G04 #@! TF.GenerationSoftware,KiCad,Pcbnew,(5.1.5)-3*
G04 #@! TF.CreationDate,2020-02-26T17:14:11+00:00*
G04 #@! TF.ProjectId,pwmfan,70776d66-616e-42e6-9b69-6361645f7063,rev?*
G04 #@! TF.SameCoordinates,Original*
G04 #@! TF.FileFunction,Soldermask,Bot*
G04 #@! TF.FilePolarity,Negative*
%FSLAX46Y46*%
G04 Gerber Fmt 4.6, Leading zero omitted, Abs format (unit mm)*
G04 Created by KiCad (PCBNEW (5.1.5)-3) date 2020-02-26 17:14:11*
%MOMM*%
%LPD*%
G04 APERTURE LIST*
%ADD10C,0.100000*%
G04 APERTURE END LIST*
D10*
G36*
X107207473Y-70011371D02*
G01*
X107322353Y-70046220D01*
X107428228Y-70102811D01*
X107521029Y-70178971D01*
X107597189Y-70271772D01*
X107653780Y-70377647D01*
X107688629Y-70492527D01*
X107701000Y-70618140D01*
X107701000Y-72381860D01*
X107688629Y-72507473D01*
X107653780Y-72622353D01*
X107597189Y-72728228D01*
X107521029Y-72821029D01*
X107428228Y-72897189D01*
X107322353Y-72953780D01*
X107207473Y-72988629D01*
X107081860Y-73001000D01*
X105618140Y-73001000D01*
X105492527Y-72988629D01*
X105377647Y-72953780D01*
X105271772Y-72897189D01*
X105178971Y-72821029D01*
X105102811Y-72728228D01*
X105046220Y-72622353D01*
X105011371Y-72507473D01*
X104999000Y-72381860D01*
X104999000Y-70618140D01*
X105011371Y-70492527D01*
X105046220Y-70377647D01*
X105102811Y-70271772D01*
X105178971Y-70178971D01*
X105271772Y-70102811D01*
X105377647Y-70046220D01*
X105492527Y-70011371D01*
X105618140Y-69999000D01*
X107081860Y-69999000D01*
X107207473Y-70011371D01*
G37*
G36*
X95507473Y-70011371D02*
G01*
X95622353Y-70046220D01*
X95728228Y-70102811D01*
X95821029Y-70178971D01*
X95897189Y-70271772D01*
X95953780Y-70377647D01*
X95988629Y-70492527D01*
X96001000Y-70618140D01*
X96001000Y-72381860D01*
X95988629Y-72507473D01*
X95953780Y-72622353D01*
X95897189Y-72728228D01*
X95821029Y-72821029D01*
X95728228Y-72897189D01*
X95622353Y-72953780D01*
X95507473Y-72988629D01*
X95381860Y-73001000D01*
X93918140Y-73001000D01*
X93792527Y-72988629D01*
X93677647Y-72953780D01*
X93571772Y-72897189D01*
X93478971Y-72821029D01*
X93402811Y-72728228D01*
X93346220Y-72622353D01*
X93311371Y-72507473D01*
X93299000Y-72381860D01*
X93299000Y-70618140D01*
X93311371Y-70492527D01*
X93346220Y-70377647D01*
X93402811Y-70271772D01*
X93478971Y-70178971D01*
X93571772Y-70102811D01*
X93677647Y-70046220D01*
X93792527Y-70011371D01*
X93918140Y-69999000D01*
X95381860Y-69999000D01*
X95507473Y-70011371D01*
G37*
G36*
X64451000Y-72951000D02*
G01*
X62549000Y-72951000D01*
X62549000Y-71049000D01*
X64451000Y-71049000D01*
X64451000Y-72951000D01*
G37*
G36*
X54451000Y-72951000D02*
G01*
X52549000Y-72951000D01*
X52549000Y-71049000D01*
X54451000Y-71049000D01*
X54451000Y-72951000D01*
G37*
G36*
X59451000Y-72951000D02*
G01*
X57549000Y-72951000D01*
X57549000Y-71049000D01*
X59451000Y-71049000D01*
X59451000Y-72951000D01*
G37*
G36*
X76317395Y-71085546D02*
G01*
X76490466Y-71157234D01*
X76544646Y-71193436D01*
X76646227Y-71261310D01*
X76778690Y-71393773D01*
X76831081Y-71472182D01*
X76882766Y-71549534D01*
X76954454Y-71722605D01*
X76991000Y-71906333D01*
X76991000Y-72093667D01*
X76954454Y-72277395D01*
X76882766Y-72450466D01*
X76882765Y-72450467D01*
X76778690Y-72606227D01*
X76646227Y-72738690D01*
X76567818Y-72791081D01*
X76490466Y-72842766D01*
X76317395Y-72914454D01*
X76133667Y-72951000D01*
X75946333Y-72951000D01*
X75762605Y-72914454D01*
X75589534Y-72842766D01*
X75512182Y-72791081D01*
X75433773Y-72738690D01*
X75301310Y-72606227D01*
X75197235Y-72450467D01*
X75197234Y-72450466D01*
X75125546Y-72277395D01*
X75089000Y-72093667D01*
X75089000Y-71906333D01*
X75125546Y-71722605D01*
X75197234Y-71549534D01*
X75248919Y-71472182D01*
X75301310Y-71393773D01*
X75433773Y-71261310D01*
X75535354Y-71193436D01*
X75589534Y-71157234D01*
X75762605Y-71085546D01*
X75946333Y-71049000D01*
X76133667Y-71049000D01*
X76317395Y-71085546D01*
G37*
G36*
X56317395Y-71085546D02*
G01*
X56490466Y-71157234D01*
X56544646Y-71193436D01*
X56646227Y-71261310D01*
X56778690Y-71393773D01*
X56831081Y-71472182D01*
X56882766Y-71549534D01*
X56954454Y-71722605D01*
X56991000Y-71906333D01*
X56991000Y-72093667D01*
X56954454Y-72277395D01*
X56882766Y-72450466D01*
X56882765Y-72450467D01*
X56778690Y-72606227D01*
X56646227Y-72738690D01*
X56567818Y-72791081D01*
X56490466Y-72842766D01*
X56317395Y-72914454D01*
X56133667Y-72951000D01*
X55946333Y-72951000D01*
X55762605Y-72914454D01*
X55589534Y-72842766D01*
X55512182Y-72791081D01*
X55433773Y-72738690D01*
X55301310Y-72606227D01*
X55197235Y-72450467D01*
X55197234Y-72450466D01*
X55125546Y-72277395D01*
X55089000Y-72093667D01*
X55089000Y-71906333D01*
X55125546Y-71722605D01*
X55197234Y-71549534D01*
X55248919Y-71472182D01*
X55301310Y-71393773D01*
X55433773Y-71261310D01*
X55535354Y-71193436D01*
X55589534Y-71157234D01*
X55762605Y-71085546D01*
X55946333Y-71049000D01*
X56133667Y-71049000D01*
X56317395Y-71085546D01*
G37*
G36*
X91317395Y-71085546D02*
G01*
X91490466Y-71157234D01*
X91544646Y-71193436D01*
X91646227Y-71261310D01*
X91778690Y-71393773D01*
X91831081Y-71472182D01*
X91882766Y-71549534D01*
X91954454Y-71722605D01*
X91991000Y-71906333D01*
X91991000Y-72093667D01*
X91954454Y-72277395D01*
X91882766Y-72450466D01*
X91882765Y-72450467D01*
X91778690Y-72606227D01*
X91646227Y-72738690D01*
X91567818Y-72791081D01*
X91490466Y-72842766D01*
X91317395Y-72914454D01*
X91133667Y-72951000D01*
X90946333Y-72951000D01*
X90762605Y-72914454D01*
X90589534Y-72842766D01*
X90512182Y-72791081D01*
X90433773Y-72738690D01*
X90301310Y-72606227D01*
X90197235Y-72450467D01*
X90197234Y-72450466D01*
X90125546Y-72277395D01*
X90089000Y-72093667D01*
X90089000Y-71906333D01*
X90125546Y-71722605D01*
X90197234Y-71549534D01*
X90248919Y-71472182D01*
X90301310Y-71393773D01*
X90433773Y-71261310D01*
X90535354Y-71193436D01*
X90589534Y-71157234D01*
X90762605Y-71085546D01*
X90946333Y-71049000D01*
X91133667Y-71049000D01*
X91317395Y-71085546D01*
G37*
G36*
X89451000Y-72951000D02*
G01*
X87549000Y-72951000D01*
X87549000Y-71049000D01*
X89451000Y-71049000D01*
X89451000Y-72951000D01*
G37*
G36*
X79451000Y-72951000D02*
G01*
X77549000Y-72951000D01*
X77549000Y-71049000D01*
X79451000Y-71049000D01*
X79451000Y-72951000D01*
G37*
G36*
X61317395Y-71085546D02*
G01*
X61490466Y-71157234D01*
X61544646Y-71193436D01*
X61646227Y-71261310D01*
X61778690Y-71393773D01*
X61831081Y-71472182D01*
X61882766Y-71549534D01*
X61954454Y-71722605D01*
X61991000Y-71906333D01*
X61991000Y-72093667D01*
X61954454Y-72277395D01*
X61882766Y-72450466D01*
X61882765Y-72450467D01*
X61778690Y-72606227D01*
X61646227Y-72738690D01*
X61567818Y-72791081D01*
X61490466Y-72842766D01*
X61317395Y-72914454D01*
X61133667Y-72951000D01*
X60946333Y-72951000D01*
X60762605Y-72914454D01*
X60589534Y-72842766D01*
X60512182Y-72791081D01*
X60433773Y-72738690D01*
X60301310Y-72606227D01*
X60197235Y-72450467D01*
X60197234Y-72450466D01*
X60125546Y-72277395D01*
X60089000Y-72093667D01*
X60089000Y-71906333D01*
X60125546Y-71722605D01*
X60197234Y-71549534D01*
X60248919Y-71472182D01*
X60301310Y-71393773D01*
X60433773Y-71261310D01*
X60535354Y-71193436D01*
X60589534Y-71157234D01*
X60762605Y-71085546D01*
X60946333Y-71049000D01*
X61133667Y-71049000D01*
X61317395Y-71085546D01*
G37*
G36*
X81317395Y-71085546D02*
G01*
X81490466Y-71157234D01*
X81544646Y-71193436D01*
X81646227Y-71261310D01*
X81778690Y-71393773D01*
X81831081Y-71472182D01*
X81882766Y-71549534D01*
X81954454Y-71722605D01*
X81991000Y-71906333D01*
X81991000Y-72093667D01*
X81954454Y-72277395D01*
X81882766Y-72450466D01*
X81882765Y-72450467D01*
X81778690Y-72606227D01*
X81646227Y-72738690D01*
X81567818Y-72791081D01*
X81490466Y-72842766D01*
X81317395Y-72914454D01*
X81133667Y-72951000D01*
X80946333Y-72951000D01*
X80762605Y-72914454D01*
X80589534Y-72842766D01*
X80512182Y-72791081D01*
X80433773Y-72738690D01*
X80301310Y-72606227D01*
X80197235Y-72450467D01*
X80197234Y-72450466D01*
X80125546Y-72277395D01*
X80089000Y-72093667D01*
X80089000Y-71906333D01*
X80125546Y-71722605D01*
X80197234Y-71549534D01*
X80248919Y-71472182D01*
X80301310Y-71393773D01*
X80433773Y-71261310D01*
X80535354Y-71193436D01*
X80589534Y-71157234D01*
X80762605Y-71085546D01*
X80946333Y-71049000D01*
X81133667Y-71049000D01*
X81317395Y-71085546D01*
G37*
G36*
X86317395Y-71085546D02*
G01*
X86490466Y-71157234D01*
X86544646Y-71193436D01*
X86646227Y-71261310D01*
X86778690Y-71393773D01*
X86831081Y-71472182D01*
X86882766Y-71549534D01*
X86954454Y-71722605D01*
X86991000Y-71906333D01*
X86991000Y-72093667D01*
X86954454Y-72277395D01*
X86882766Y-72450466D01*
X86882765Y-72450467D01*
X86778690Y-72606227D01*
X86646227Y-72738690D01*
X86567818Y-72791081D01*
X86490466Y-72842766D01*
X86317395Y-72914454D01*
X86133667Y-72951000D01*
X85946333Y-72951000D01*
X85762605Y-72914454D01*
X85589534Y-72842766D01*
X85512182Y-72791081D01*
X85433773Y-72738690D01*
X85301310Y-72606227D01*
X85197235Y-72450467D01*
X85197234Y-72450466D01*
X85125546Y-72277395D01*
X85089000Y-72093667D01*
X85089000Y-71906333D01*
X85125546Y-71722605D01*
X85197234Y-71549534D01*
X85248919Y-71472182D01*
X85301310Y-71393773D01*
X85433773Y-71261310D01*
X85535354Y-71193436D01*
X85589534Y-71157234D01*
X85762605Y-71085546D01*
X85946333Y-71049000D01*
X86133667Y-71049000D01*
X86317395Y-71085546D01*
G37*
G36*
X84451000Y-72951000D02*
G01*
X82549000Y-72951000D01*
X82549000Y-71049000D01*
X84451000Y-71049000D01*
X84451000Y-72951000D01*
G37*
G36*
X74451000Y-72951000D02*
G01*
X72549000Y-72951000D01*
X72549000Y-71049000D01*
X74451000Y-71049000D01*
X74451000Y-72951000D01*
G37*
G36*
X71317395Y-71085546D02*
G01*
X71490466Y-71157234D01*
X71544646Y-71193436D01*
X71646227Y-71261310D01*
X71778690Y-71393773D01*
X71831081Y-71472182D01*
X71882766Y-71549534D01*
X71954454Y-71722605D01*
X71991000Y-71906333D01*
X71991000Y-72093667D01*
X71954454Y-72277395D01*
X71882766Y-72450466D01*
X71882765Y-72450467D01*
X71778690Y-72606227D01*
X71646227Y-72738690D01*
X71567818Y-72791081D01*
X71490466Y-72842766D01*
X71317395Y-72914454D01*
X71133667Y-72951000D01*
X70946333Y-72951000D01*
X70762605Y-72914454D01*
X70589534Y-72842766D01*
X70512182Y-72791081D01*
X70433773Y-72738690D01*
X70301310Y-72606227D01*
X70197235Y-72450467D01*
X70197234Y-72450466D01*
X70125546Y-72277395D01*
X70089000Y-72093667D01*
X70089000Y-71906333D01*
X70125546Y-71722605D01*
X70197234Y-71549534D01*
X70248919Y-71472182D01*
X70301310Y-71393773D01*
X70433773Y-71261310D01*
X70535354Y-71193436D01*
X70589534Y-71157234D01*
X70762605Y-71085546D01*
X70946333Y-71049000D01*
X71133667Y-71049000D01*
X71317395Y-71085546D01*
G37*
G36*
X69451000Y-72951000D02*
G01*
X67549000Y-72951000D01*
X67549000Y-71049000D01*
X69451000Y-71049000D01*
X69451000Y-72951000D01*
G37*
G36*
X66317395Y-71085546D02*
G01*
X66490466Y-71157234D01*
X66544646Y-71193436D01*
X66646227Y-71261310D01*
X66778690Y-71393773D01*
X66831081Y-71472182D01*
X66882766Y-71549534D01*
X66954454Y-71722605D01*
X66991000Y-71906333D01*
X66991000Y-72093667D01*
X66954454Y-72277395D01*
X66882766Y-72450466D01*
X66882765Y-72450467D01*
X66778690Y-72606227D01*
X66646227Y-72738690D01*
X66567818Y-72791081D01*
X66490466Y-72842766D01*
X66317395Y-72914454D01*
X66133667Y-72951000D01*
X65946333Y-72951000D01*
X65762605Y-72914454D01*
X65589534Y-72842766D01*
X65512182Y-72791081D01*
X65433773Y-72738690D01*
X65301310Y-72606227D01*
X65197235Y-72450467D01*
X65197234Y-72450466D01*
X65125546Y-72277395D01*
X65089000Y-72093667D01*
X65089000Y-71906333D01*
X65125546Y-71722605D01*
X65197234Y-71549534D01*
X65248919Y-71472182D01*
X65301310Y-71393773D01*
X65433773Y-71261310D01*
X65535354Y-71193436D01*
X65589534Y-71157234D01*
X65762605Y-71085546D01*
X65946333Y-71049000D01*
X66133667Y-71049000D01*
X66317395Y-71085546D01*
G37*
G36*
X103306564Y-70489389D02*
G01*
X103497833Y-70568615D01*
X103497835Y-70568616D01*
X103669973Y-70683635D01*
X103816365Y-70830027D01*
X103931385Y-71002167D01*
X104010611Y-71193436D01*
X104051000Y-71396484D01*
X104051000Y-71603516D01*
X104010611Y-71806564D01*
X103931385Y-71997833D01*
X103931384Y-71997835D01*
X103816365Y-72169973D01*
X103669973Y-72316365D01*
X103497835Y-72431384D01*
X103497834Y-72431385D01*
X103497833Y-72431385D01*
X103306564Y-72510611D01*
X103103516Y-72551000D01*
X102896484Y-72551000D01*
X102693436Y-72510611D01*
X102502167Y-72431385D01*
X102502166Y-72431385D01*
X102502165Y-72431384D01*
X102330027Y-72316365D01*
X102183635Y-72169973D01*
X102068616Y-71997835D01*
X102068615Y-71997833D01*
X101989389Y-71806564D01*
X101949000Y-71603516D01*
X101949000Y-71396484D01*
X101989389Y-71193436D01*
X102068615Y-71002167D01*
X102183635Y-70830027D01*
X102330027Y-70683635D01*
X102502165Y-70568616D01*
X102502167Y-70568615D01*
X102693436Y-70489389D01*
X102896484Y-70449000D01*
X103103516Y-70449000D01*
X103306564Y-70489389D01*
G37*
G36*
X100806564Y-70489389D02*
G01*
X100997833Y-70568615D01*
X100997835Y-70568616D01*
X101169973Y-70683635D01*
X101316365Y-70830027D01*
X101431385Y-71002167D01*
X101510611Y-71193436D01*
X101551000Y-71396484D01*
X101551000Y-71603516D01*
X101510611Y-71806564D01*
X101431385Y-71997833D01*
X101431384Y-71997835D01*
X101316365Y-72169973D01*
X101169973Y-72316365D01*
X100997835Y-72431384D01*
X100997834Y-72431385D01*
X100997833Y-72431385D01*
X100806564Y-72510611D01*
X100603516Y-72551000D01*
X100396484Y-72551000D01*
X100193436Y-72510611D01*
X100002167Y-72431385D01*
X100002166Y-72431385D01*
X100002165Y-72431384D01*
X99830027Y-72316365D01*
X99683635Y-72169973D01*
X99568616Y-71997835D01*
X99568615Y-71997833D01*
X99489389Y-71806564D01*
X99449000Y-71603516D01*
X99449000Y-71396484D01*
X99489389Y-71193436D01*
X99568615Y-71002167D01*
X99683635Y-70830027D01*
X99830027Y-70683635D01*
X100002165Y-70568616D01*
X100002167Y-70568615D01*
X100193436Y-70489389D01*
X100396484Y-70449000D01*
X100603516Y-70449000D01*
X100806564Y-70489389D01*
G37*
G36*
X98306564Y-70489389D02*
G01*
X98497833Y-70568615D01*
X98497835Y-70568616D01*
X98669973Y-70683635D01*
X98816365Y-70830027D01*
X98931385Y-71002167D01*
X99010611Y-71193436D01*
X99051000Y-71396484D01*
X99051000Y-71603516D01*
X99010611Y-71806564D01*
X98931385Y-71997833D01*
X98931384Y-71997835D01*
X98816365Y-72169973D01*
X98669973Y-72316365D01*
X98497835Y-72431384D01*
X98497834Y-72431385D01*
X98497833Y-72431385D01*
X98306564Y-72510611D01*
X98103516Y-72551000D01*
X97896484Y-72551000D01*
X97693436Y-72510611D01*
X97502167Y-72431385D01*
X97502166Y-72431385D01*
X97502165Y-72431384D01*
X97330027Y-72316365D01*
X97183635Y-72169973D01*
X97068616Y-71997835D01*
X97068615Y-71997833D01*
X96989389Y-71806564D01*
X96949000Y-71603516D01*
X96949000Y-71396484D01*
X96989389Y-71193436D01*
X97068615Y-71002167D01*
X97183635Y-70830027D01*
X97330027Y-70683635D01*
X97502165Y-70568616D01*
X97502167Y-70568615D01*
X97693436Y-70489389D01*
X97896484Y-70449000D01*
X98103516Y-70449000D01*
X98306564Y-70489389D01*
G37*
G36*
X107009561Y-59582966D02*
G01*
X107042383Y-59592923D01*
X107072632Y-59609092D01*
X107099148Y-59630852D01*
X107120908Y-59657368D01*
X107137077Y-59687617D01*
X107147034Y-59720439D01*
X107151000Y-59760713D01*
X107151000Y-61239287D01*
X107147034Y-61279561D01*
X107137077Y-61312383D01*
X107120908Y-61342632D01*
X107099148Y-61369148D01*
X107072632Y-61390908D01*
X107042383Y-61407077D01*
X107009561Y-61417034D01*
X106969287Y-61421000D01*
X105030713Y-61421000D01*
X104990439Y-61417034D01*
X104957617Y-61407077D01*
X104927368Y-61390908D01*
X104900852Y-61369148D01*
X104879092Y-61342632D01*
X104862923Y-61312383D01*
X104852966Y-61279561D01*
X104849000Y-61239287D01*
X104849000Y-59760713D01*
X104852966Y-59720439D01*
X104862923Y-59687617D01*
X104879092Y-59657368D01*
X104900852Y-59630852D01*
X104927368Y-59609092D01*
X104957617Y-59592923D01*
X104990439Y-59582966D01*
X105030713Y-59579000D01*
X106969287Y-59579000D01*
X107009561Y-59582966D01*
G37*
G36*
X54790512Y-59582966D02*
G01*
X54885548Y-59592326D01*
X55059157Y-59644990D01*
X55219156Y-59730511D01*
X55233612Y-59742375D01*
X55359397Y-59845603D01*
X55438729Y-59942271D01*
X55474489Y-59985844D01*
X55560010Y-60145843D01*
X55612674Y-60319452D01*
X55630456Y-60500000D01*
X55612674Y-60680548D01*
X55560010Y-60854157D01*
X55474489Y-61014156D01*
X55438729Y-61057729D01*
X55359397Y-61154397D01*
X55262729Y-61233729D01*
X55219156Y-61269489D01*
X55059157Y-61355010D01*
X54885548Y-61407674D01*
X54801874Y-61415915D01*
X54750245Y-61421000D01*
X54199755Y-61421000D01*
X54148126Y-61415915D01*
X54064452Y-61407674D01*
X53890843Y-61355010D01*
X53730844Y-61269489D01*
X53687271Y-61233729D01*
X53590603Y-61154397D01*
X53511271Y-61057729D01*
X53475511Y-61014156D01*
X53389990Y-60854157D01*
X53337326Y-60680548D01*
X53319544Y-60500000D01*
X53337326Y-60319452D01*
X53389990Y-60145843D01*
X53475511Y-59985844D01*
X53511271Y-59942271D01*
X53590603Y-59845603D01*
X53716388Y-59742375D01*
X53730844Y-59730511D01*
X53890843Y-59644990D01*
X54064452Y-59592326D01*
X54159488Y-59582966D01*
X54199755Y-59579000D01*
X54750245Y-59579000D01*
X54790512Y-59582966D01*
G37*
G36*
X54795345Y-57043442D02*
G01*
X54885548Y-57052326D01*
X55059157Y-57104990D01*
X55219156Y-57190511D01*
X55228270Y-57197991D01*
X55359397Y-57305603D01*
X55438729Y-57402271D01*
X55474489Y-57445844D01*
X55560010Y-57605843D01*
X55612674Y-57779452D01*
X55630456Y-57960000D01*
X55612674Y-58140548D01*
X55560010Y-58314157D01*
X55474489Y-58474156D01*
X55438729Y-58517729D01*
X55359397Y-58614397D01*
X55262729Y-58693729D01*
X55219156Y-58729489D01*
X55059157Y-58815010D01*
X54885548Y-58867674D01*
X54795345Y-58876558D01*
X54750245Y-58881000D01*
X54199755Y-58881000D01*
X54154655Y-58876558D01*
X54064452Y-58867674D01*
X53890843Y-58815010D01*
X53730844Y-58729489D01*
X53687271Y-58693729D01*
X53590603Y-58614397D01*
X53511271Y-58517729D01*
X53475511Y-58474156D01*
X53389990Y-58314157D01*
X53337326Y-58140548D01*
X53319544Y-57960000D01*
X53337326Y-57779452D01*
X53389990Y-57605843D01*
X53475511Y-57445844D01*
X53511271Y-57402271D01*
X53590603Y-57305603D01*
X53721730Y-57197991D01*
X53730844Y-57190511D01*
X53890843Y-57104990D01*
X54064452Y-57052326D01*
X54154655Y-57043442D01*
X54199755Y-57039000D01*
X54750245Y-57039000D01*
X54795345Y-57043442D01*
G37*
G36*
X106320345Y-57043442D02*
G01*
X106410548Y-57052326D01*
X106584157Y-57104990D01*
X106744156Y-57190511D01*
X106753270Y-57197991D01*
X106884397Y-57305603D01*
X106963729Y-57402271D01*
X106999489Y-57445844D01*
X107085010Y-57605843D01*
X107137674Y-57779452D01*
X107155456Y-57960000D01*
X107137674Y-58140548D01*
X107085010Y-58314157D01*
X106999489Y-58474156D01*
X106963729Y-58517729D01*
X106884397Y-58614397D01*
X106787729Y-58693729D01*
X106744156Y-58729489D01*
X106584157Y-58815010D01*
X106410548Y-58867674D01*
X106320345Y-58876558D01*
X106275245Y-58881000D01*
X105724755Y-58881000D01*
X105679655Y-58876558D01*
X105589452Y-58867674D01*
X105415843Y-58815010D01*
X105255844Y-58729489D01*
X105212271Y-58693729D01*
X105115603Y-58614397D01*
X105036271Y-58517729D01*
X105000511Y-58474156D01*
X104914990Y-58314157D01*
X104862326Y-58140548D01*
X104844544Y-57960000D01*
X104862326Y-57779452D01*
X104914990Y-57605843D01*
X105000511Y-57445844D01*
X105036271Y-57402271D01*
X105115603Y-57305603D01*
X105246730Y-57197991D01*
X105255844Y-57190511D01*
X105415843Y-57104990D01*
X105589452Y-57052326D01*
X105679655Y-57043442D01*
X105724755Y-57039000D01*
X106275245Y-57039000D01*
X106320345Y-57043442D01*
G37*
G36*
X98134239Y-51811467D02*
G01*
X98448282Y-51873934D01*
X99039926Y-52119001D01*
X99572392Y-52474784D01*
X100025216Y-52927608D01*
X100380999Y-53460074D01*
X100520572Y-53797034D01*
X100626066Y-54051719D01*
X100751000Y-54679803D01*
X100751000Y-55320197D01*
X100747204Y-55339279D01*
X100626066Y-55948282D01*
X100380999Y-56539926D01*
X100025216Y-57072392D01*
X99572392Y-57525216D01*
X99039926Y-57880999D01*
X98448282Y-58126066D01*
X98134239Y-58188533D01*
X97820197Y-58251000D01*
X97179803Y-58251000D01*
X96865761Y-58188533D01*
X96551718Y-58126066D01*
X95960074Y-57880999D01*
X95427608Y-57525216D01*
X94974784Y-57072392D01*
X94619001Y-56539926D01*
X94373934Y-55948282D01*
X94252796Y-55339279D01*
X94249000Y-55320197D01*
X94249000Y-54679803D01*
X94373934Y-54051719D01*
X94479428Y-53797034D01*
X94619001Y-53460074D01*
X94974784Y-52927608D01*
X95427608Y-52474784D01*
X95960074Y-52119001D01*
X96551718Y-51873934D01*
X96865761Y-51811467D01*
X97179803Y-51749000D01*
X97820197Y-51749000D01*
X98134239Y-51811467D01*
G37*
G36*
X63134239Y-51811467D02*
G01*
X63448282Y-51873934D01*
X64039926Y-52119001D01*
X64572392Y-52474784D01*
X65025216Y-52927608D01*
X65380999Y-53460074D01*
X65520572Y-53797034D01*
X65626066Y-54051719D01*
X65751000Y-54679803D01*
X65751000Y-55320197D01*
X65747204Y-55339279D01*
X65626066Y-55948282D01*
X65380999Y-56539926D01*
X65025216Y-57072392D01*
X64572392Y-57525216D01*
X64039926Y-57880999D01*
X63448282Y-58126066D01*
X63134239Y-58188533D01*
X62820197Y-58251000D01*
X62179803Y-58251000D01*
X61865761Y-58188533D01*
X61551718Y-58126066D01*
X60960074Y-57880999D01*
X60427608Y-57525216D01*
X59974784Y-57072392D01*
X59619001Y-56539926D01*
X59373934Y-55948282D01*
X59252796Y-55339279D01*
X59249000Y-55320197D01*
X59249000Y-54679803D01*
X59373934Y-54051719D01*
X59479428Y-53797034D01*
X59619001Y-53460074D01*
X59974784Y-52927608D01*
X60427608Y-52474784D01*
X60960074Y-52119001D01*
X61551718Y-51873934D01*
X61865761Y-51811467D01*
X62179803Y-51749000D01*
X62820197Y-51749000D01*
X63134239Y-51811467D01*
G37*
G36*
X82620721Y-54970174D02*
G01*
X82720995Y-55011709D01*
X82720996Y-55011710D01*
X82811242Y-55072010D01*
X82887990Y-55148758D01*
X82887991Y-55148760D01*
X82948291Y-55239005D01*
X82979516Y-55314389D01*
X82991067Y-55336000D01*
X83006612Y-55354941D01*
X83025554Y-55370487D01*
X83047165Y-55382038D01*
X83070614Y-55389151D01*
X83095000Y-55391553D01*
X83119386Y-55389151D01*
X83142835Y-55382038D01*
X83164446Y-55370487D01*
X83183387Y-55354942D01*
X83198933Y-55336000D01*
X83210484Y-55314389D01*
X83241709Y-55239005D01*
X83302009Y-55148760D01*
X83302010Y-55148758D01*
X83378758Y-55072010D01*
X83469004Y-55011710D01*
X83469005Y-55011709D01*
X83569279Y-54970174D01*
X83675730Y-54949000D01*
X83784270Y-54949000D01*
X83890721Y-54970174D01*
X83990995Y-55011709D01*
X83990996Y-55011710D01*
X84081242Y-55072010D01*
X84157990Y-55148758D01*
X84157991Y-55148760D01*
X84218291Y-55239005D01*
X84249516Y-55314389D01*
X84261067Y-55336000D01*
X84276612Y-55354941D01*
X84295554Y-55370487D01*
X84317165Y-55382038D01*
X84340614Y-55389151D01*
X84365000Y-55391553D01*
X84389386Y-55389151D01*
X84412835Y-55382038D01*
X84434446Y-55370487D01*
X84453387Y-55354942D01*
X84468933Y-55336000D01*
X84480484Y-55314389D01*
X84511709Y-55239005D01*
X84572009Y-55148760D01*
X84572010Y-55148758D01*
X84648758Y-55072010D01*
X84739004Y-55011710D01*
X84739005Y-55011709D01*
X84839279Y-54970174D01*
X84945730Y-54949000D01*
X85054270Y-54949000D01*
X85160721Y-54970174D01*
X85260995Y-55011709D01*
X85260996Y-55011710D01*
X85351242Y-55072010D01*
X85427990Y-55148758D01*
X85427991Y-55148760D01*
X85488291Y-55239005D01*
X85519516Y-55314389D01*
X85531067Y-55336000D01*
X85546612Y-55354941D01*
X85565554Y-55370487D01*
X85587165Y-55382038D01*
X85610614Y-55389151D01*
X85635000Y-55391553D01*
X85659386Y-55389151D01*
X85682835Y-55382038D01*
X85704446Y-55370487D01*
X85723387Y-55354942D01*
X85738933Y-55336000D01*
X85750484Y-55314389D01*
X85781709Y-55239005D01*
X85842009Y-55148760D01*
X85842010Y-55148758D01*
X85918758Y-55072010D01*
X86009004Y-55011710D01*
X86009005Y-55011709D01*
X86109279Y-54970174D01*
X86215730Y-54949000D01*
X86324270Y-54949000D01*
X86430721Y-54970174D01*
X86530995Y-55011709D01*
X86530996Y-55011710D01*
X86621242Y-55072010D01*
X86697990Y-55148758D01*
X86697991Y-55148760D01*
X86760068Y-55241664D01*
X86775614Y-55260606D01*
X86794556Y-55276151D01*
X86816167Y-55287702D01*
X86839615Y-55294815D01*
X86864002Y-55297217D01*
X86888388Y-55294815D01*
X86911837Y-55287702D01*
X86933447Y-55276151D01*
X86952389Y-55260605D01*
X86967934Y-55241663D01*
X86979485Y-55220052D01*
X86986598Y-55196604D01*
X86989000Y-55172218D01*
X86989000Y-54949000D01*
X88091000Y-54949000D01*
X88091000Y-56051000D01*
X87867782Y-56051000D01*
X87843396Y-56053402D01*
X87819947Y-56060515D01*
X87798336Y-56072066D01*
X87779394Y-56087611D01*
X87763849Y-56106553D01*
X87752298Y-56128164D01*
X87745185Y-56151613D01*
X87742783Y-56175999D01*
X87745185Y-56200385D01*
X87752298Y-56223834D01*
X87763849Y-56245445D01*
X87779394Y-56264387D01*
X87798336Y-56279932D01*
X87859816Y-56321012D01*
X87891242Y-56342010D01*
X87967990Y-56418758D01*
X87967991Y-56418760D01*
X88028291Y-56509005D01*
X88069826Y-56609279D01*
X88091000Y-56715730D01*
X88091000Y-56824270D01*
X88069826Y-56930721D01*
X88028291Y-57030995D01*
X88028290Y-57030996D01*
X87967990Y-57121242D01*
X87891242Y-57197990D01*
X87845812Y-57228345D01*
X87800995Y-57258291D01*
X87700721Y-57299826D01*
X87594270Y-57321000D01*
X87485730Y-57321000D01*
X87379279Y-57299826D01*
X87279005Y-57258291D01*
X87234188Y-57228345D01*
X87188758Y-57197990D01*
X87112010Y-57121242D01*
X87051710Y-57030996D01*
X87051709Y-57030995D01*
X87020484Y-56955611D01*
X87008933Y-56934000D01*
X86993388Y-56915059D01*
X86974446Y-56899513D01*
X86952835Y-56887962D01*
X86929386Y-56880849D01*
X86905000Y-56878447D01*
X86880614Y-56880849D01*
X86857165Y-56887962D01*
X86835554Y-56899513D01*
X86816613Y-56915058D01*
X86801067Y-56934000D01*
X86789516Y-56955611D01*
X86758291Y-57030995D01*
X86758290Y-57030996D01*
X86697990Y-57121242D01*
X86621242Y-57197990D01*
X86575812Y-57228345D01*
X86530995Y-57258291D01*
X86430721Y-57299826D01*
X86324270Y-57321000D01*
X86215730Y-57321000D01*
X86109279Y-57299826D01*
X86009005Y-57258291D01*
X85964188Y-57228345D01*
X85918758Y-57197990D01*
X85842010Y-57121242D01*
X85781710Y-57030996D01*
X85781709Y-57030995D01*
X85750484Y-56955611D01*
X85738933Y-56934000D01*
X85723388Y-56915059D01*
X85704446Y-56899513D01*
X85682835Y-56887962D01*
X85659386Y-56880849D01*
X85635000Y-56878447D01*
X85610614Y-56880849D01*
X85587165Y-56887962D01*
X85565554Y-56899513D01*
X85546613Y-56915058D01*
X85531067Y-56934000D01*
X85519516Y-56955611D01*
X85488291Y-57030995D01*
X85488290Y-57030996D01*
X85427990Y-57121242D01*
X85351242Y-57197990D01*
X85305812Y-57228345D01*
X85260995Y-57258291D01*
X85160721Y-57299826D01*
X85054270Y-57321000D01*
X84945730Y-57321000D01*
X84839279Y-57299826D01*
X84739005Y-57258291D01*
X84694188Y-57228345D01*
X84648758Y-57197990D01*
X84572010Y-57121242D01*
X84511710Y-57030996D01*
X84511709Y-57030995D01*
X84480484Y-56955611D01*
X84468933Y-56934000D01*
X84453388Y-56915059D01*
X84434446Y-56899513D01*
X84412835Y-56887962D01*
X84389386Y-56880849D01*
X84365000Y-56878447D01*
X84340614Y-56880849D01*
X84317165Y-56887962D01*
X84295554Y-56899513D01*
X84276613Y-56915058D01*
X84261067Y-56934000D01*
X84249516Y-56955611D01*
X84218291Y-57030995D01*
X84218290Y-57030996D01*
X84157990Y-57121242D01*
X84081242Y-57197990D01*
X84035812Y-57228345D01*
X83990995Y-57258291D01*
X83890721Y-57299826D01*
X83784270Y-57321000D01*
X83675730Y-57321000D01*
X83569279Y-57299826D01*
X83469005Y-57258291D01*
X83424188Y-57228345D01*
X83378758Y-57197990D01*
X83302010Y-57121242D01*
X83241710Y-57030996D01*
X83241709Y-57030995D01*
X83210484Y-56955611D01*
X83198933Y-56934000D01*
X83183388Y-56915059D01*
X83164446Y-56899513D01*
X83142835Y-56887962D01*
X83119386Y-56880849D01*
X83095000Y-56878447D01*
X83070614Y-56880849D01*
X83047165Y-56887962D01*
X83025554Y-56899513D01*
X83006613Y-56915058D01*
X82991067Y-56934000D01*
X82979516Y-56955611D01*
X82948291Y-57030995D01*
X82948290Y-57030996D01*
X82887990Y-57121242D01*
X82811242Y-57197990D01*
X82765812Y-57228345D01*
X82720995Y-57258291D01*
X82620721Y-57299826D01*
X82514270Y-57321000D01*
X82405730Y-57321000D01*
X82299279Y-57299826D01*
X82199005Y-57258291D01*
X82154188Y-57228345D01*
X82108758Y-57197990D01*
X82032010Y-57121242D01*
X81971710Y-57030996D01*
X81971709Y-57030995D01*
X81930174Y-56930721D01*
X81909000Y-56824270D01*
X81909000Y-56715730D01*
X81930174Y-56609279D01*
X81971709Y-56509005D01*
X82032009Y-56418760D01*
X82032010Y-56418758D01*
X82108758Y-56342010D01*
X82199004Y-56281710D01*
X82199005Y-56281709D01*
X82274389Y-56250484D01*
X82296000Y-56238933D01*
X82314941Y-56223388D01*
X82330487Y-56204446D01*
X82342038Y-56182835D01*
X82349151Y-56159386D01*
X82351553Y-56135000D01*
X82568447Y-56135000D01*
X82570849Y-56159386D01*
X82577962Y-56182835D01*
X82589513Y-56204446D01*
X82605058Y-56223387D01*
X82624000Y-56238933D01*
X82645611Y-56250484D01*
X82720995Y-56281709D01*
X82720996Y-56281710D01*
X82811242Y-56342010D01*
X82887990Y-56418758D01*
X82887991Y-56418760D01*
X82948291Y-56509005D01*
X82979516Y-56584389D01*
X82991067Y-56606000D01*
X83006612Y-56624941D01*
X83025554Y-56640487D01*
X83047165Y-56652038D01*
X83070614Y-56659151D01*
X83095000Y-56661553D01*
X83119386Y-56659151D01*
X83142835Y-56652038D01*
X83164446Y-56640487D01*
X83183387Y-56624942D01*
X83198933Y-56606000D01*
X83210484Y-56584389D01*
X83241709Y-56509005D01*
X83302009Y-56418760D01*
X83302010Y-56418758D01*
X83378758Y-56342010D01*
X83469004Y-56281710D01*
X83469005Y-56281709D01*
X83544389Y-56250484D01*
X83566000Y-56238933D01*
X83584941Y-56223388D01*
X83600487Y-56204446D01*
X83612038Y-56182835D01*
X83619151Y-56159386D01*
X83621553Y-56135000D01*
X83838447Y-56135000D01*
X83840849Y-56159386D01*
X83847962Y-56182835D01*
X83859513Y-56204446D01*
X83875058Y-56223387D01*
X83894000Y-56238933D01*
X83915611Y-56250484D01*
X83990995Y-56281709D01*
X83990996Y-56281710D01*
X84081242Y-56342010D01*
X84157990Y-56418758D01*
X84157991Y-56418760D01*
X84218291Y-56509005D01*
X84249516Y-56584389D01*
X84261067Y-56606000D01*
X84276612Y-56624941D01*
X84295554Y-56640487D01*
X84317165Y-56652038D01*
X84340614Y-56659151D01*
X84365000Y-56661553D01*
X84389386Y-56659151D01*
X84412835Y-56652038D01*
X84434446Y-56640487D01*
X84453387Y-56624942D01*
X84468933Y-56606000D01*
X84480484Y-56584389D01*
X84511709Y-56509005D01*
X84572009Y-56418760D01*
X84572010Y-56418758D01*
X84648758Y-56342010D01*
X84739004Y-56281710D01*
X84739005Y-56281709D01*
X84814389Y-56250484D01*
X84836000Y-56238933D01*
X84854941Y-56223388D01*
X84870487Y-56204446D01*
X84882038Y-56182835D01*
X84889151Y-56159386D01*
X84891553Y-56135000D01*
X85108447Y-56135000D01*
X85110849Y-56159386D01*
X85117962Y-56182835D01*
X85129513Y-56204446D01*
X85145058Y-56223387D01*
X85164000Y-56238933D01*
X85185611Y-56250484D01*
X85260995Y-56281709D01*
X85260996Y-56281710D01*
X85351242Y-56342010D01*
X85427990Y-56418758D01*
X85427991Y-56418760D01*
X85488291Y-56509005D01*
X85519516Y-56584389D01*
X85531067Y-56606000D01*
X85546612Y-56624941D01*
X85565554Y-56640487D01*
X85587165Y-56652038D01*
X85610614Y-56659151D01*
X85635000Y-56661553D01*
X85659386Y-56659151D01*
X85682835Y-56652038D01*
X85704446Y-56640487D01*
X85723387Y-56624942D01*
X85738933Y-56606000D01*
X85750484Y-56584389D01*
X85781709Y-56509005D01*
X85842009Y-56418760D01*
X85842010Y-56418758D01*
X85918758Y-56342010D01*
X86009004Y-56281710D01*
X86009005Y-56281709D01*
X86084389Y-56250484D01*
X86106000Y-56238933D01*
X86124941Y-56223388D01*
X86140487Y-56204446D01*
X86152038Y-56182835D01*
X86159151Y-56159386D01*
X86161553Y-56135000D01*
X86378447Y-56135000D01*
X86380849Y-56159386D01*
X86387962Y-56182835D01*
X86399513Y-56204446D01*
X86415058Y-56223387D01*
X86434000Y-56238933D01*
X86455611Y-56250484D01*
X86530995Y-56281709D01*
X86530996Y-56281710D01*
X86621242Y-56342010D01*
X86697990Y-56418758D01*
X86697991Y-56418760D01*
X86758291Y-56509005D01*
X86789516Y-56584389D01*
X86801067Y-56606000D01*
X86816612Y-56624941D01*
X86835554Y-56640487D01*
X86857165Y-56652038D01*
X86880614Y-56659151D01*
X86905000Y-56661553D01*
X86929386Y-56659151D01*
X86952835Y-56652038D01*
X86974446Y-56640487D01*
X86993387Y-56624942D01*
X87008933Y-56606000D01*
X87020484Y-56584389D01*
X87051709Y-56509005D01*
X87112009Y-56418760D01*
X87112010Y-56418758D01*
X87188758Y-56342010D01*
X87220184Y-56321012D01*
X87281664Y-56279932D01*
X87300606Y-56264386D01*
X87316151Y-56245444D01*
X87327702Y-56223833D01*
X87334815Y-56200385D01*
X87337217Y-56175998D01*
X87334815Y-56151612D01*
X87327702Y-56128163D01*
X87316151Y-56106553D01*
X87300605Y-56087611D01*
X87281663Y-56072066D01*
X87260052Y-56060515D01*
X87236604Y-56053402D01*
X87212218Y-56051000D01*
X86989000Y-56051000D01*
X86989000Y-55827782D01*
X86986598Y-55803396D01*
X86979485Y-55779947D01*
X86967934Y-55758336D01*
X86952389Y-55739394D01*
X86933447Y-55723849D01*
X86911836Y-55712298D01*
X86888387Y-55705185D01*
X86864001Y-55702783D01*
X86839615Y-55705185D01*
X86816166Y-55712298D01*
X86794555Y-55723849D01*
X86775613Y-55739394D01*
X86760068Y-55758336D01*
X86718988Y-55819816D01*
X86697990Y-55851242D01*
X86621242Y-55927990D01*
X86575812Y-55958345D01*
X86530995Y-55988291D01*
X86455611Y-56019516D01*
X86434000Y-56031067D01*
X86415059Y-56046612D01*
X86399513Y-56065554D01*
X86387962Y-56087165D01*
X86380849Y-56110614D01*
X86378447Y-56135000D01*
X86161553Y-56135000D01*
X86159151Y-56110614D01*
X86152038Y-56087165D01*
X86140487Y-56065554D01*
X86124942Y-56046613D01*
X86106000Y-56031067D01*
X86084389Y-56019516D01*
X86009005Y-55988291D01*
X85964188Y-55958345D01*
X85918758Y-55927990D01*
X85842010Y-55851242D01*
X85810041Y-55803396D01*
X85781709Y-55760995D01*
X85750484Y-55685611D01*
X85738933Y-55664000D01*
X85723388Y-55645059D01*
X85704446Y-55629513D01*
X85682835Y-55617962D01*
X85659386Y-55610849D01*
X85635000Y-55608447D01*
X85610614Y-55610849D01*
X85587165Y-55617962D01*
X85565554Y-55629513D01*
X85546613Y-55645058D01*
X85531067Y-55664000D01*
X85519516Y-55685611D01*
X85488291Y-55760995D01*
X85459959Y-55803396D01*
X85427990Y-55851242D01*
X85351242Y-55927990D01*
X85305812Y-55958345D01*
X85260995Y-55988291D01*
X85185611Y-56019516D01*
X85164000Y-56031067D01*
X85145059Y-56046612D01*
X85129513Y-56065554D01*
X85117962Y-56087165D01*
X85110849Y-56110614D01*
X85108447Y-56135000D01*
X84891553Y-56135000D01*
X84889151Y-56110614D01*
X84882038Y-56087165D01*
X84870487Y-56065554D01*
X84854942Y-56046613D01*
X84836000Y-56031067D01*
X84814389Y-56019516D01*
X84739005Y-55988291D01*
X84694188Y-55958345D01*
X84648758Y-55927990D01*
X84572010Y-55851242D01*
X84540041Y-55803396D01*
X84511709Y-55760995D01*
X84480484Y-55685611D01*
X84468933Y-55664000D01*
X84453388Y-55645059D01*
X84434446Y-55629513D01*
X84412835Y-55617962D01*
X84389386Y-55610849D01*
X84365000Y-55608447D01*
X84340614Y-55610849D01*
X84317165Y-55617962D01*
X84295554Y-55629513D01*
X84276613Y-55645058D01*
X84261067Y-55664000D01*
X84249516Y-55685611D01*
X84218291Y-55760995D01*
X84189959Y-55803396D01*
X84157990Y-55851242D01*
X84081242Y-55927990D01*
X84035812Y-55958345D01*
X83990995Y-55988291D01*
X83915611Y-56019516D01*
X83894000Y-56031067D01*
X83875059Y-56046612D01*
X83859513Y-56065554D01*
X83847962Y-56087165D01*
X83840849Y-56110614D01*
X83838447Y-56135000D01*
X83621553Y-56135000D01*
X83619151Y-56110614D01*
X83612038Y-56087165D01*
X83600487Y-56065554D01*
X83584942Y-56046613D01*
X83566000Y-56031067D01*
X83544389Y-56019516D01*
X83469005Y-55988291D01*
X83424188Y-55958345D01*
X83378758Y-55927990D01*
X83302010Y-55851242D01*
X83270041Y-55803396D01*
X83241709Y-55760995D01*
X83210484Y-55685611D01*
X83198933Y-55664000D01*
X83183388Y-55645059D01*
X83164446Y-55629513D01*
X83142835Y-55617962D01*
X83119386Y-55610849D01*
X83095000Y-55608447D01*
X83070614Y-55610849D01*
X83047165Y-55617962D01*
X83025554Y-55629513D01*
X83006613Y-55645058D01*
X82991067Y-55664000D01*
X82979516Y-55685611D01*
X82948291Y-55760995D01*
X82919959Y-55803396D01*
X82887990Y-55851242D01*
X82811242Y-55927990D01*
X82765812Y-55958345D01*
X82720995Y-55988291D01*
X82645611Y-56019516D01*
X82624000Y-56031067D01*
X82605059Y-56046612D01*
X82589513Y-56065554D01*
X82577962Y-56087165D01*
X82570849Y-56110614D01*
X82568447Y-56135000D01*
X82351553Y-56135000D01*
X82349151Y-56110614D01*
X82342038Y-56087165D01*
X82330487Y-56065554D01*
X82314942Y-56046613D01*
X82296000Y-56031067D01*
X82274389Y-56019516D01*
X82199005Y-55988291D01*
X82154188Y-55958345D01*
X82108758Y-55927990D01*
X82032010Y-55851242D01*
X82000041Y-55803396D01*
X81971709Y-55760995D01*
X81930174Y-55660721D01*
X81909000Y-55554270D01*
X81909000Y-55445730D01*
X81930174Y-55339279D01*
X81971709Y-55239005D01*
X82032009Y-55148760D01*
X82032010Y-55148758D01*
X82108758Y-55072010D01*
X82199004Y-55011710D01*
X82199005Y-55011709D01*
X82299279Y-54970174D01*
X82405730Y-54949000D01*
X82514270Y-54949000D01*
X82620721Y-54970174D01*
G37*
G36*
X106320345Y-54503442D02*
G01*
X106410548Y-54512326D01*
X106584157Y-54564990D01*
X106744156Y-54650511D01*
X106779848Y-54679803D01*
X106884397Y-54765603D01*
X106963729Y-54862271D01*
X106999489Y-54905844D01*
X107085010Y-55065843D01*
X107137674Y-55239452D01*
X107155456Y-55420000D01*
X107137674Y-55600548D01*
X107085010Y-55774157D01*
X106999489Y-55934156D01*
X106963729Y-55977729D01*
X106884397Y-56074397D01*
X106790309Y-56151612D01*
X106744156Y-56189489D01*
X106584157Y-56275010D01*
X106410548Y-56327674D01*
X106320345Y-56336558D01*
X106275245Y-56341000D01*
X105724755Y-56341000D01*
X105679655Y-56336558D01*
X105589452Y-56327674D01*
X105415843Y-56275010D01*
X105255844Y-56189489D01*
X105209691Y-56151612D01*
X105115603Y-56074397D01*
X105036271Y-55977729D01*
X105000511Y-55934156D01*
X104914990Y-55774157D01*
X104862326Y-55600548D01*
X104844544Y-55420000D01*
X104862326Y-55239452D01*
X104914990Y-55065843D01*
X105000511Y-54905844D01*
X105036271Y-54862271D01*
X105115603Y-54765603D01*
X105220152Y-54679803D01*
X105255844Y-54650511D01*
X105415843Y-54564990D01*
X105589452Y-54512326D01*
X105679655Y-54503442D01*
X105724755Y-54499000D01*
X106275245Y-54499000D01*
X106320345Y-54503442D01*
G37*
G36*
X54795345Y-54503442D02*
G01*
X54885548Y-54512326D01*
X55059157Y-54564990D01*
X55219156Y-54650511D01*
X55254848Y-54679803D01*
X55359397Y-54765603D01*
X55438729Y-54862271D01*
X55474489Y-54905844D01*
X55560010Y-55065843D01*
X55612674Y-55239452D01*
X55630456Y-55420000D01*
X55612674Y-55600548D01*
X55560010Y-55774157D01*
X55474489Y-55934156D01*
X55438729Y-55977729D01*
X55359397Y-56074397D01*
X55265309Y-56151612D01*
X55219156Y-56189489D01*
X55059157Y-56275010D01*
X54885548Y-56327674D01*
X54795345Y-56336558D01*
X54750245Y-56341000D01*
X54199755Y-56341000D01*
X54154655Y-56336558D01*
X54064452Y-56327674D01*
X53890843Y-56275010D01*
X53730844Y-56189489D01*
X53684691Y-56151612D01*
X53590603Y-56074397D01*
X53511271Y-55977729D01*
X53475511Y-55934156D01*
X53389990Y-55774157D01*
X53337326Y-55600548D01*
X53319544Y-55420000D01*
X53337326Y-55239452D01*
X53389990Y-55065843D01*
X53475511Y-54905844D01*
X53511271Y-54862271D01*
X53590603Y-54765603D01*
X53695152Y-54679803D01*
X53730844Y-54650511D01*
X53890843Y-54564990D01*
X54064452Y-54512326D01*
X54154655Y-54503442D01*
X54199755Y-54499000D01*
X54750245Y-54499000D01*
X54795345Y-54503442D01*
G37*
G36*
X106315512Y-51962966D02*
G01*
X106410548Y-51972326D01*
X106584157Y-52024990D01*
X106744156Y-52110511D01*
X106758612Y-52122375D01*
X106884397Y-52225603D01*
X106963729Y-52322271D01*
X106999489Y-52365844D01*
X107085010Y-52525843D01*
X107137674Y-52699452D01*
X107155456Y-52880000D01*
X107137674Y-53060548D01*
X107085010Y-53234157D01*
X106999489Y-53394156D01*
X106963729Y-53437729D01*
X106884397Y-53534397D01*
X106787729Y-53613729D01*
X106744156Y-53649489D01*
X106584157Y-53735010D01*
X106410548Y-53787674D01*
X106326874Y-53795915D01*
X106275245Y-53801000D01*
X105724755Y-53801000D01*
X105673126Y-53795915D01*
X105589452Y-53787674D01*
X105415843Y-53735010D01*
X105255844Y-53649489D01*
X105212271Y-53613729D01*
X105115603Y-53534397D01*
X105036271Y-53437729D01*
X105000511Y-53394156D01*
X104914990Y-53234157D01*
X104862326Y-53060548D01*
X104844544Y-52880000D01*
X104862326Y-52699452D01*
X104914990Y-52525843D01*
X105000511Y-52365844D01*
X105036271Y-52322271D01*
X105115603Y-52225603D01*
X105241388Y-52122375D01*
X105255844Y-52110511D01*
X105415843Y-52024990D01*
X105589452Y-51972326D01*
X105684488Y-51962966D01*
X105724755Y-51959000D01*
X106275245Y-51959000D01*
X106315512Y-51962966D01*
G37*
G36*
X55484561Y-51962966D02*
G01*
X55517383Y-51972923D01*
X55547632Y-51989092D01*
X55574148Y-52010852D01*
X55595908Y-52037368D01*
X55612077Y-52067617D01*
X55622034Y-52100439D01*
X55626000Y-52140713D01*
X55626000Y-53619287D01*
X55622034Y-53659561D01*
X55612077Y-53692383D01*
X55595908Y-53722632D01*
X55574148Y-53749148D01*
X55547632Y-53770908D01*
X55517383Y-53787077D01*
X55484561Y-53797034D01*
X55444287Y-53801000D01*
X53505713Y-53801000D01*
X53465439Y-53797034D01*
X53432617Y-53787077D01*
X53402368Y-53770908D01*
X53375852Y-53749148D01*
X53354092Y-53722632D01*
X53337923Y-53692383D01*
X53327966Y-53659561D01*
X53324000Y-53619287D01*
X53324000Y-52140713D01*
X53327966Y-52100439D01*
X53337923Y-52067617D01*
X53354092Y-52037368D01*
X53375852Y-52010852D01*
X53402368Y-51989092D01*
X53432617Y-51972923D01*
X53465439Y-51962966D01*
X53505713Y-51959000D01*
X55444287Y-51959000D01*
X55484561Y-51962966D01*
G37*
M02*
