M48
; DRILL file {KiCad (5.1.5)-3} date 01/03/2020 19:25:42
; FORMAT={-:-/ absolute / inch / decimal}
; #@! TF.CreationDate,2020-03-01T19:25:42+00:00
; #@! TF.GenerationSoftware,Kicad,Pcbnew,(5.1.5)-3
; #@! TF.FileFunction,Plated,1,2,PTH
FMAT,2
INCH
T1C0.0118
T2C0.0157
T3C0.0256
T4C0.0354
T5C0.0394
T6C0.0472
T7C0.0709
T8C0.1260
%
G90
G05
T1
X2.4055Y-2.4606
X2.4449Y-2.7126
X2.7264Y-2.747
X2.8346Y-2.1949
X2.8602Y-2.5679
X3.0433Y-2.3386
X3.0433Y-2.4528
X3.3169Y-2.3425
X3.4124Y-2.5325
X3.6496Y-2.3967
X3.6496Y-2.5069
X3.6929Y-2.6181
X3.7559Y-2.5866
X3.7628Y-2.4488
X4.0945Y-2.6476
T2
X2.2992Y-2.7047
T3
X3.2465Y-2.185
X3.2465Y-2.235
X3.2965Y-2.185
X3.2965Y-2.235
X3.3465Y-2.185
X3.3465Y-2.235
X3.3965Y-2.185
X3.3965Y-2.235
X3.4465Y-2.185
X3.4465Y-2.235
T4
X2.6969Y-2.8346
X2.7969Y-2.8346
X3.4843Y-2.8346
X3.5843Y-2.8346
X2.3031Y-2.8346
X2.4031Y-2.8346
X3.0906Y-2.8346
X3.1906Y-2.8346
X2.5Y-2.8346
X2.6Y-2.8346
X2.1063Y-2.8346
X2.2063Y-2.8346
X2.8937Y-2.8346
X2.9937Y-2.8346
X3.2874Y-2.8346
X3.3874Y-2.8346
T5
X3.8583Y-2.815
X3.9567Y-2.815
X4.0551Y-2.815
T6
X2.1447Y-2.0819
X2.1447Y-2.1819
X2.1447Y-2.2819
X2.1447Y-2.3819
X4.1732Y-2.0819
X4.1732Y-2.1819
X4.1732Y-2.2819
X4.1732Y-2.3819
T8
X2.4606Y-2.1654
X3.8386Y-2.1654
T7
G00X3.7264Y-2.8091
M15
G01X3.7264Y-2.8209
M16
G05
G00X4.187Y-2.8091
M15
G01X4.187Y-2.8209
M16
G05
T0
M30
