G04 #@! TF.GenerationSoftware,KiCad,Pcbnew,(5.1.5)-3*
G04 #@! TF.CreationDate,2020-03-01T19:25:43+00:00*
G04 #@! TF.ProjectId,pwmfan,70776d66-616e-42e6-9b69-6361645f7063,rev?*
G04 #@! TF.SameCoordinates,Original*
G04 #@! TF.FileFunction,Legend,Bot*
G04 #@! TF.FilePolarity,Positive*
%FSLAX46Y46*%
G04 Gerber Fmt 4.6, Leading zero omitted, Abs format (unit mm)*
G04 Created by KiCad (PCBNEW (5.1.5)-3) date 2020-03-01 19:25:43*
%MOMM*%
%LPD*%
G04 APERTURE LIST*
%ADD10C,0.150000*%
%ADD11C,0.100000*%
G04 APERTURE END LIST*
D10*
X98138095Y-61677380D02*
X98138095Y-60677380D01*
X97757142Y-60677380D01*
X97661904Y-60725000D01*
X97614285Y-60772619D01*
X97566666Y-60867857D01*
X97566666Y-61010714D01*
X97614285Y-61105952D01*
X97661904Y-61153571D01*
X97757142Y-61201190D01*
X98138095Y-61201190D01*
X97233333Y-60677380D02*
X96995238Y-61677380D01*
X96804761Y-60963095D01*
X96614285Y-61677380D01*
X96376190Y-60677380D01*
X95995238Y-61677380D02*
X95995238Y-60677380D01*
X95661904Y-61391666D01*
X95328571Y-60677380D01*
X95328571Y-61677380D01*
X94519047Y-61153571D02*
X94852380Y-61153571D01*
X94852380Y-61677380D02*
X94852380Y-60677380D01*
X94376190Y-60677380D01*
X93566666Y-61677380D02*
X93566666Y-61153571D01*
X93614285Y-61058333D01*
X93709523Y-61010714D01*
X93900000Y-61010714D01*
X93995238Y-61058333D01*
X93566666Y-61629761D02*
X93661904Y-61677380D01*
X93900000Y-61677380D01*
X93995238Y-61629761D01*
X94042857Y-61534523D01*
X94042857Y-61439285D01*
X93995238Y-61344047D01*
X93900000Y-61296428D01*
X93661904Y-61296428D01*
X93566666Y-61248809D01*
X93090476Y-61010714D02*
X93090476Y-61677380D01*
X93090476Y-61105952D02*
X93042857Y-61058333D01*
X92947619Y-61010714D01*
X92804761Y-61010714D01*
X92709523Y-61058333D01*
X92661904Y-61153571D01*
X92661904Y-61677380D01*
X101900000Y-62327380D02*
X101328571Y-62327380D01*
X101614285Y-63327380D02*
X101614285Y-62327380D01*
X100995238Y-63327380D02*
X100995238Y-62327380D01*
X100566666Y-63327380D02*
X100566666Y-62803571D01*
X100614285Y-62708333D01*
X100709523Y-62660714D01*
X100852380Y-62660714D01*
X100947619Y-62708333D01*
X100995238Y-62755952D01*
X99947619Y-63327380D02*
X100042857Y-63279761D01*
X100090476Y-63232142D01*
X100138095Y-63136904D01*
X100138095Y-62851190D01*
X100090476Y-62755952D01*
X100042857Y-62708333D01*
X99947619Y-62660714D01*
X99804761Y-62660714D01*
X99709523Y-62708333D01*
X99661904Y-62755952D01*
X99614285Y-62851190D01*
X99614285Y-63136904D01*
X99661904Y-63232142D01*
X99709523Y-63279761D01*
X99804761Y-63327380D01*
X99947619Y-63327380D01*
X99185714Y-63327380D02*
X99185714Y-62660714D01*
X99185714Y-62755952D02*
X99138095Y-62708333D01*
X99042857Y-62660714D01*
X98900000Y-62660714D01*
X98804761Y-62708333D01*
X98757142Y-62803571D01*
X98757142Y-63327380D01*
X98757142Y-62803571D02*
X98709523Y-62708333D01*
X98614285Y-62660714D01*
X98471428Y-62660714D01*
X98376190Y-62708333D01*
X98328571Y-62803571D01*
X98328571Y-63327380D01*
X97423809Y-63327380D02*
X97423809Y-62803571D01*
X97471428Y-62708333D01*
X97566666Y-62660714D01*
X97757142Y-62660714D01*
X97852380Y-62708333D01*
X97423809Y-63279761D02*
X97519047Y-63327380D01*
X97757142Y-63327380D01*
X97852380Y-63279761D01*
X97900000Y-63184523D01*
X97900000Y-63089285D01*
X97852380Y-62994047D01*
X97757142Y-62946428D01*
X97519047Y-62946428D01*
X97423809Y-62898809D01*
X96995238Y-63279761D02*
X96900000Y-63327380D01*
X96709523Y-63327380D01*
X96614285Y-63279761D01*
X96566666Y-63184523D01*
X96566666Y-63136904D01*
X96614285Y-63041666D01*
X96709523Y-62994047D01*
X96852380Y-62994047D01*
X96947619Y-62946428D01*
X96995238Y-62851190D01*
X96995238Y-62803571D01*
X96947619Y-62708333D01*
X96852380Y-62660714D01*
X96709523Y-62660714D01*
X96614285Y-62708333D01*
X95042857Y-62803571D02*
X94900000Y-62851190D01*
X94852380Y-62898809D01*
X94804761Y-62994047D01*
X94804761Y-63136904D01*
X94852380Y-63232142D01*
X94900000Y-63279761D01*
X94995238Y-63327380D01*
X95376190Y-63327380D01*
X95376190Y-62327380D01*
X95042857Y-62327380D01*
X94947619Y-62375000D01*
X94900000Y-62422619D01*
X94852380Y-62517857D01*
X94852380Y-62613095D01*
X94900000Y-62708333D01*
X94947619Y-62755952D01*
X95042857Y-62803571D01*
X95376190Y-62803571D01*
X94471428Y-62660714D02*
X94233333Y-63327380D01*
X93995238Y-62660714D02*
X94233333Y-63327380D01*
X94328571Y-63565476D01*
X94376190Y-63613095D01*
X94471428Y-63660714D01*
X93757142Y-62660714D02*
X93376190Y-62660714D01*
X93614285Y-62327380D02*
X93614285Y-63184523D01*
X93566666Y-63279761D01*
X93471428Y-63327380D01*
X93376190Y-63327380D01*
X93042857Y-63327380D02*
X93042857Y-62327380D01*
X92614285Y-63327380D02*
X92614285Y-62803571D01*
X92661904Y-62708333D01*
X92757142Y-62660714D01*
X92900000Y-62660714D01*
X92995238Y-62708333D01*
X93042857Y-62755952D01*
X91757142Y-63279761D02*
X91852380Y-63327380D01*
X92042857Y-63327380D01*
X92138095Y-63279761D01*
X92185714Y-63184523D01*
X92185714Y-62803571D01*
X92138095Y-62708333D01*
X92042857Y-62660714D01*
X91852380Y-62660714D01*
X91757142Y-62708333D01*
X91709523Y-62803571D01*
X91709523Y-62898809D01*
X92185714Y-62994047D01*
X91376190Y-62660714D02*
X91185714Y-63327380D01*
X90995238Y-62851190D01*
X90804761Y-63327380D01*
X90614285Y-62660714D01*
X89804761Y-63327380D02*
X89804761Y-62803571D01*
X89852380Y-62708333D01*
X89947619Y-62660714D01*
X90138095Y-62660714D01*
X90233333Y-62708333D01*
X89804761Y-63279761D02*
X89900000Y-63327380D01*
X90138095Y-63327380D01*
X90233333Y-63279761D01*
X90280952Y-63184523D01*
X90280952Y-63089285D01*
X90233333Y-62994047D01*
X90138095Y-62946428D01*
X89900000Y-62946428D01*
X89804761Y-62898809D01*
X89423809Y-62660714D02*
X89185714Y-63327380D01*
X88947619Y-62660714D02*
X89185714Y-63327380D01*
X89280952Y-63565476D01*
X89328571Y-63613095D01*
X89423809Y-63660714D01*
X100257142Y-64072619D02*
X100209523Y-64025000D01*
X100114285Y-63977380D01*
X99876190Y-63977380D01*
X99780952Y-64025000D01*
X99733333Y-64072619D01*
X99685714Y-64167857D01*
X99685714Y-64263095D01*
X99733333Y-64405952D01*
X100304761Y-64977380D01*
X99685714Y-64977380D01*
X99066666Y-63977380D02*
X98971428Y-63977380D01*
X98876190Y-64025000D01*
X98828571Y-64072619D01*
X98780952Y-64167857D01*
X98733333Y-64358333D01*
X98733333Y-64596428D01*
X98780952Y-64786904D01*
X98828571Y-64882142D01*
X98876190Y-64929761D01*
X98971428Y-64977380D01*
X99066666Y-64977380D01*
X99161904Y-64929761D01*
X99209523Y-64882142D01*
X99257142Y-64786904D01*
X99304761Y-64596428D01*
X99304761Y-64358333D01*
X99257142Y-64167857D01*
X99209523Y-64072619D01*
X99161904Y-64025000D01*
X99066666Y-63977380D01*
X98352380Y-64072619D02*
X98304761Y-64025000D01*
X98209523Y-63977380D01*
X97971428Y-63977380D01*
X97876190Y-64025000D01*
X97828571Y-64072619D01*
X97780952Y-64167857D01*
X97780952Y-64263095D01*
X97828571Y-64405952D01*
X98400000Y-64977380D01*
X97780952Y-64977380D01*
X97161904Y-63977380D02*
X97066666Y-63977380D01*
X96971428Y-64025000D01*
X96923809Y-64072619D01*
X96876190Y-64167857D01*
X96828571Y-64358333D01*
X96828571Y-64596428D01*
X96876190Y-64786904D01*
X96923809Y-64882142D01*
X96971428Y-64929761D01*
X97066666Y-64977380D01*
X97161904Y-64977380D01*
X97257142Y-64929761D01*
X97304761Y-64882142D01*
X97352380Y-64786904D01*
X97400000Y-64596428D01*
X97400000Y-64358333D01*
X97352380Y-64167857D01*
X97304761Y-64072619D01*
X97257142Y-64025000D01*
X97161904Y-63977380D01*
X96400000Y-64596428D02*
X95638095Y-64596428D01*
X94971428Y-63977380D02*
X94876190Y-63977380D01*
X94780952Y-64025000D01*
X94733333Y-64072619D01*
X94685714Y-64167857D01*
X94638095Y-64358333D01*
X94638095Y-64596428D01*
X94685714Y-64786904D01*
X94733333Y-64882142D01*
X94780952Y-64929761D01*
X94876190Y-64977380D01*
X94971428Y-64977380D01*
X95066666Y-64929761D01*
X95114285Y-64882142D01*
X95161904Y-64786904D01*
X95209523Y-64596428D01*
X95209523Y-64358333D01*
X95161904Y-64167857D01*
X95114285Y-64072619D01*
X95066666Y-64025000D01*
X94971428Y-63977380D01*
X94257142Y-64072619D02*
X94209523Y-64025000D01*
X94114285Y-63977380D01*
X93876190Y-63977380D01*
X93780952Y-64025000D01*
X93733333Y-64072619D01*
X93685714Y-64167857D01*
X93685714Y-64263095D01*
X93733333Y-64405952D01*
X94304761Y-64977380D01*
X93685714Y-64977380D01*
X93257142Y-64596428D02*
X92495238Y-64596428D01*
X92066666Y-64072619D02*
X92019047Y-64025000D01*
X91923809Y-63977380D01*
X91685714Y-63977380D01*
X91590476Y-64025000D01*
X91542857Y-64072619D01*
X91495238Y-64167857D01*
X91495238Y-64263095D01*
X91542857Y-64405952D01*
X92114285Y-64977380D01*
X91495238Y-64977380D01*
X90590476Y-63977380D02*
X91066666Y-63977380D01*
X91114285Y-64453571D01*
X91066666Y-64405952D01*
X90971428Y-64358333D01*
X90733333Y-64358333D01*
X90638095Y-64405952D01*
X90590476Y-64453571D01*
X90542857Y-64548809D01*
X90542857Y-64786904D01*
X90590476Y-64882142D01*
X90638095Y-64929761D01*
X90733333Y-64977380D01*
X90971428Y-64977380D01*
X91066666Y-64929761D01*
X91114285Y-64882142D01*
X96757142Y-66627380D02*
X97090476Y-66151190D01*
X97328571Y-66627380D02*
X97328571Y-65627380D01*
X96947619Y-65627380D01*
X96852380Y-65675000D01*
X96804761Y-65722619D01*
X96757142Y-65817857D01*
X96757142Y-65960714D01*
X96804761Y-66055952D01*
X96852380Y-66103571D01*
X96947619Y-66151190D01*
X97328571Y-66151190D01*
X95947619Y-66579761D02*
X96042857Y-66627380D01*
X96233333Y-66627380D01*
X96328571Y-66579761D01*
X96376190Y-66484523D01*
X96376190Y-66103571D01*
X96328571Y-66008333D01*
X96233333Y-65960714D01*
X96042857Y-65960714D01*
X95947619Y-66008333D01*
X95900000Y-66103571D01*
X95900000Y-66198809D01*
X96376190Y-66294047D01*
X95566666Y-65960714D02*
X95328571Y-66627380D01*
X95090476Y-65960714D01*
X93423809Y-66627380D02*
X93995238Y-66627380D01*
X93709523Y-66627380D02*
X93709523Y-65627380D01*
X93804761Y-65770238D01*
X93900000Y-65865476D01*
X93995238Y-65913095D01*
D11*
G36*
X66500000Y-66300000D02*
G01*
X66500000Y-65900000D01*
X66900000Y-65900000D01*
X66900000Y-66300000D01*
X66500000Y-66300000D01*
G37*
G36*
X66900000Y-66300000D02*
G01*
X66900000Y-65900000D01*
X67300000Y-65900000D01*
X67300000Y-66300000D01*
X66900000Y-66300000D01*
G37*
G36*
X67300000Y-66300000D02*
G01*
X67300000Y-65900000D01*
X67700000Y-65900000D01*
X67700000Y-66300000D01*
X67300000Y-66300000D01*
G37*
G36*
X67700000Y-66300000D02*
G01*
X67700000Y-65900000D01*
X68100000Y-65900000D01*
X68100000Y-66300000D01*
X67700000Y-66300000D01*
G37*
G36*
X68100000Y-66300000D02*
G01*
X68100000Y-65900000D01*
X68500000Y-65900000D01*
X68500000Y-66300000D01*
X68100000Y-66300000D01*
G37*
G36*
X68500000Y-66300000D02*
G01*
X68500000Y-65900000D01*
X68900000Y-65900000D01*
X68900000Y-66300000D01*
X68500000Y-66300000D01*
G37*
G36*
X68900000Y-66300000D02*
G01*
X68900000Y-65900000D01*
X69300000Y-65900000D01*
X69300000Y-66300000D01*
X68900000Y-66300000D01*
G37*
G36*
X69300000Y-66300000D02*
G01*
X69300000Y-65900000D01*
X69700000Y-65900000D01*
X69700000Y-66300000D01*
X69300000Y-66300000D01*
G37*
G36*
X69700000Y-66300000D02*
G01*
X69700000Y-65900000D01*
X70100000Y-65900000D01*
X70100000Y-66300000D01*
X69700000Y-66300000D01*
G37*
G36*
X70100000Y-66300000D02*
G01*
X70100000Y-65900000D01*
X70500000Y-65900000D01*
X70500000Y-66300000D01*
X70100000Y-66300000D01*
G37*
G36*
X70500000Y-66300000D02*
G01*
X70500000Y-65900000D01*
X70900000Y-65900000D01*
X70900000Y-66300000D01*
X70500000Y-66300000D01*
G37*
G36*
X70900000Y-66300000D02*
G01*
X70900000Y-65900000D01*
X71300000Y-65900000D01*
X71300000Y-66300000D01*
X70900000Y-66300000D01*
G37*
G36*
X71300000Y-66300000D02*
G01*
X71300000Y-65900000D01*
X71700000Y-65900000D01*
X71700000Y-66300000D01*
X71300000Y-66300000D01*
G37*
G36*
X71700000Y-66300000D02*
G01*
X71700000Y-65900000D01*
X72100000Y-65900000D01*
X72100000Y-66300000D01*
X71700000Y-66300000D01*
G37*
G36*
X72100000Y-66300000D02*
G01*
X72100000Y-65900000D01*
X72500000Y-65900000D01*
X72500000Y-66300000D01*
X72100000Y-66300000D01*
G37*
G36*
X72500000Y-66300000D02*
G01*
X72500000Y-65900000D01*
X72900000Y-65900000D01*
X72900000Y-66300000D01*
X72500000Y-66300000D01*
G37*
G36*
X72900000Y-66300000D02*
G01*
X72900000Y-65900000D01*
X73300000Y-65900000D01*
X73300000Y-66300000D01*
X72900000Y-66300000D01*
G37*
G36*
X73300000Y-66300000D02*
G01*
X73300000Y-65900000D01*
X73700000Y-65900000D01*
X73700000Y-66300000D01*
X73300000Y-66300000D01*
G37*
G36*
X73700000Y-66300000D02*
G01*
X73700000Y-65900000D01*
X74100000Y-65900000D01*
X74100000Y-66300000D01*
X73700000Y-66300000D01*
G37*
G36*
X74100000Y-66300000D02*
G01*
X74100000Y-65900000D01*
X74500000Y-65900000D01*
X74500000Y-66300000D01*
X74100000Y-66300000D01*
G37*
G36*
X74500000Y-66300000D02*
G01*
X74500000Y-65900000D01*
X74900000Y-65900000D01*
X74900000Y-66300000D01*
X74500000Y-66300000D01*
G37*
G36*
X74900000Y-66300000D02*
G01*
X74900000Y-65900000D01*
X75300000Y-65900000D01*
X75300000Y-66300000D01*
X74900000Y-66300000D01*
G37*
G36*
X75300000Y-66300000D02*
G01*
X75300000Y-65900000D01*
X75700000Y-65900000D01*
X75700000Y-66300000D01*
X75300000Y-66300000D01*
G37*
G36*
X75700000Y-66300000D02*
G01*
X75700000Y-65900000D01*
X76100000Y-65900000D01*
X76100000Y-66300000D01*
X75700000Y-66300000D01*
G37*
G36*
X76100000Y-66300000D02*
G01*
X76100000Y-65900000D01*
X76500000Y-65900000D01*
X76500000Y-66300000D01*
X76100000Y-66300000D01*
G37*
G36*
X76500000Y-66300000D02*
G01*
X76500000Y-65900000D01*
X76900000Y-65900000D01*
X76900000Y-66300000D01*
X76500000Y-66300000D01*
G37*
G36*
X76900000Y-66300000D02*
G01*
X76900000Y-65900000D01*
X77300000Y-65900000D01*
X77300000Y-66300000D01*
X76900000Y-66300000D01*
G37*
G36*
X77300000Y-66300000D02*
G01*
X77300000Y-65900000D01*
X77700000Y-65900000D01*
X77700000Y-66300000D01*
X77300000Y-66300000D01*
G37*
G36*
X77700000Y-66300000D02*
G01*
X77700000Y-65900000D01*
X78100000Y-65900000D01*
X78100000Y-66300000D01*
X77700000Y-66300000D01*
G37*
G36*
X78100000Y-66300000D02*
G01*
X78100000Y-65900000D01*
X78500000Y-65900000D01*
X78500000Y-66300000D01*
X78100000Y-66300000D01*
G37*
G36*
X78500000Y-66300000D02*
G01*
X78500000Y-65900000D01*
X78900000Y-65900000D01*
X78900000Y-66300000D01*
X78500000Y-66300000D01*
G37*
G36*
X78900000Y-66300000D02*
G01*
X78900000Y-65900000D01*
X79300000Y-65900000D01*
X79300000Y-66300000D01*
X78900000Y-66300000D01*
G37*
G36*
X79300000Y-66300000D02*
G01*
X79300000Y-65900000D01*
X79700000Y-65900000D01*
X79700000Y-66300000D01*
X79300000Y-66300000D01*
G37*
G36*
X79700000Y-66300000D02*
G01*
X79700000Y-65900000D01*
X80100000Y-65900000D01*
X80100000Y-66300000D01*
X79700000Y-66300000D01*
G37*
G36*
X80100000Y-66300000D02*
G01*
X80100000Y-65900000D01*
X80500000Y-65900000D01*
X80500000Y-66300000D01*
X80100000Y-66300000D01*
G37*
G36*
X80500000Y-66300000D02*
G01*
X80500000Y-65900000D01*
X80900000Y-65900000D01*
X80900000Y-66300000D01*
X80500000Y-66300000D01*
G37*
G36*
X80900000Y-66300000D02*
G01*
X80900000Y-65900000D01*
X81300000Y-65900000D01*
X81300000Y-66300000D01*
X80900000Y-66300000D01*
G37*
G36*
X66500000Y-65900000D02*
G01*
X66500000Y-65500000D01*
X66900000Y-65500000D01*
X66900000Y-65900000D01*
X66500000Y-65900000D01*
G37*
G36*
X66900000Y-65900000D02*
G01*
X66900000Y-65500000D01*
X67300000Y-65500000D01*
X67300000Y-65900000D01*
X66900000Y-65900000D01*
G37*
G36*
X67300000Y-65900000D02*
G01*
X67300000Y-65500000D01*
X67700000Y-65500000D01*
X67700000Y-65900000D01*
X67300000Y-65900000D01*
G37*
G36*
X67700000Y-65900000D02*
G01*
X67700000Y-65500000D01*
X68100000Y-65500000D01*
X68100000Y-65900000D01*
X67700000Y-65900000D01*
G37*
G36*
X68100000Y-65900000D02*
G01*
X68100000Y-65500000D01*
X68500000Y-65500000D01*
X68500000Y-65900000D01*
X68100000Y-65900000D01*
G37*
G36*
X68500000Y-65900000D02*
G01*
X68500000Y-65500000D01*
X68900000Y-65500000D01*
X68900000Y-65900000D01*
X68500000Y-65900000D01*
G37*
G36*
X68900000Y-65900000D02*
G01*
X68900000Y-65500000D01*
X69300000Y-65500000D01*
X69300000Y-65900000D01*
X68900000Y-65900000D01*
G37*
G36*
X69300000Y-65900000D02*
G01*
X69300000Y-65500000D01*
X69700000Y-65500000D01*
X69700000Y-65900000D01*
X69300000Y-65900000D01*
G37*
G36*
X69700000Y-65900000D02*
G01*
X69700000Y-65500000D01*
X70100000Y-65500000D01*
X70100000Y-65900000D01*
X69700000Y-65900000D01*
G37*
G36*
X70100000Y-65900000D02*
G01*
X70100000Y-65500000D01*
X70500000Y-65500000D01*
X70500000Y-65900000D01*
X70100000Y-65900000D01*
G37*
G36*
X70500000Y-65900000D02*
G01*
X70500000Y-65500000D01*
X70900000Y-65500000D01*
X70900000Y-65900000D01*
X70500000Y-65900000D01*
G37*
G36*
X70900000Y-65900000D02*
G01*
X70900000Y-65500000D01*
X71300000Y-65500000D01*
X71300000Y-65900000D01*
X70900000Y-65900000D01*
G37*
G36*
X71300000Y-65900000D02*
G01*
X71300000Y-65500000D01*
X71700000Y-65500000D01*
X71700000Y-65900000D01*
X71300000Y-65900000D01*
G37*
G36*
X71700000Y-65900000D02*
G01*
X71700000Y-65500000D01*
X72100000Y-65500000D01*
X72100000Y-65900000D01*
X71700000Y-65900000D01*
G37*
G36*
X72100000Y-65900000D02*
G01*
X72100000Y-65500000D01*
X72500000Y-65500000D01*
X72500000Y-65900000D01*
X72100000Y-65900000D01*
G37*
G36*
X72500000Y-65900000D02*
G01*
X72500000Y-65500000D01*
X72900000Y-65500000D01*
X72900000Y-65900000D01*
X72500000Y-65900000D01*
G37*
G36*
X72900000Y-65900000D02*
G01*
X72900000Y-65500000D01*
X73300000Y-65500000D01*
X73300000Y-65900000D01*
X72900000Y-65900000D01*
G37*
G36*
X73300000Y-65900000D02*
G01*
X73300000Y-65500000D01*
X73700000Y-65500000D01*
X73700000Y-65900000D01*
X73300000Y-65900000D01*
G37*
G36*
X73700000Y-65900000D02*
G01*
X73700000Y-65500000D01*
X74100000Y-65500000D01*
X74100000Y-65900000D01*
X73700000Y-65900000D01*
G37*
G36*
X74100000Y-65900000D02*
G01*
X74100000Y-65500000D01*
X74500000Y-65500000D01*
X74500000Y-65900000D01*
X74100000Y-65900000D01*
G37*
G36*
X74500000Y-65900000D02*
G01*
X74500000Y-65500000D01*
X74900000Y-65500000D01*
X74900000Y-65900000D01*
X74500000Y-65900000D01*
G37*
G36*
X74900000Y-65900000D02*
G01*
X74900000Y-65500000D01*
X75300000Y-65500000D01*
X75300000Y-65900000D01*
X74900000Y-65900000D01*
G37*
G36*
X75300000Y-65900000D02*
G01*
X75300000Y-65500000D01*
X75700000Y-65500000D01*
X75700000Y-65900000D01*
X75300000Y-65900000D01*
G37*
G36*
X75700000Y-65900000D02*
G01*
X75700000Y-65500000D01*
X76100000Y-65500000D01*
X76100000Y-65900000D01*
X75700000Y-65900000D01*
G37*
G36*
X76100000Y-65900000D02*
G01*
X76100000Y-65500000D01*
X76500000Y-65500000D01*
X76500000Y-65900000D01*
X76100000Y-65900000D01*
G37*
G36*
X76500000Y-65900000D02*
G01*
X76500000Y-65500000D01*
X76900000Y-65500000D01*
X76900000Y-65900000D01*
X76500000Y-65900000D01*
G37*
G36*
X76900000Y-65900000D02*
G01*
X76900000Y-65500000D01*
X77300000Y-65500000D01*
X77300000Y-65900000D01*
X76900000Y-65900000D01*
G37*
G36*
X77300000Y-65900000D02*
G01*
X77300000Y-65500000D01*
X77700000Y-65500000D01*
X77700000Y-65900000D01*
X77300000Y-65900000D01*
G37*
G36*
X77700000Y-65900000D02*
G01*
X77700000Y-65500000D01*
X78100000Y-65500000D01*
X78100000Y-65900000D01*
X77700000Y-65900000D01*
G37*
G36*
X78100000Y-65900000D02*
G01*
X78100000Y-65500000D01*
X78500000Y-65500000D01*
X78500000Y-65900000D01*
X78100000Y-65900000D01*
G37*
G36*
X78500000Y-65900000D02*
G01*
X78500000Y-65500000D01*
X78900000Y-65500000D01*
X78900000Y-65900000D01*
X78500000Y-65900000D01*
G37*
G36*
X78900000Y-65900000D02*
G01*
X78900000Y-65500000D01*
X79300000Y-65500000D01*
X79300000Y-65900000D01*
X78900000Y-65900000D01*
G37*
G36*
X79300000Y-65900000D02*
G01*
X79300000Y-65500000D01*
X79700000Y-65500000D01*
X79700000Y-65900000D01*
X79300000Y-65900000D01*
G37*
G36*
X79700000Y-65900000D02*
G01*
X79700000Y-65500000D01*
X80100000Y-65500000D01*
X80100000Y-65900000D01*
X79700000Y-65900000D01*
G37*
G36*
X80100000Y-65900000D02*
G01*
X80100000Y-65500000D01*
X80500000Y-65500000D01*
X80500000Y-65900000D01*
X80100000Y-65900000D01*
G37*
G36*
X80500000Y-65900000D02*
G01*
X80500000Y-65500000D01*
X80900000Y-65500000D01*
X80900000Y-65900000D01*
X80500000Y-65900000D01*
G37*
G36*
X80900000Y-65900000D02*
G01*
X80900000Y-65500000D01*
X81300000Y-65500000D01*
X81300000Y-65900000D01*
X80900000Y-65900000D01*
G37*
G36*
X66500000Y-65500000D02*
G01*
X66500000Y-65100000D01*
X66900000Y-65100000D01*
X66900000Y-65500000D01*
X66500000Y-65500000D01*
G37*
G36*
X66900000Y-65500000D02*
G01*
X66900000Y-65100000D01*
X67300000Y-65100000D01*
X67300000Y-65500000D01*
X66900000Y-65500000D01*
G37*
G36*
X67700000Y-65500000D02*
G01*
X67700000Y-65100000D01*
X68100000Y-65100000D01*
X68100000Y-65500000D01*
X67700000Y-65500000D01*
G37*
G36*
X68100000Y-65500000D02*
G01*
X68100000Y-65100000D01*
X68500000Y-65100000D01*
X68500000Y-65500000D01*
X68100000Y-65500000D01*
G37*
G36*
X68500000Y-65500000D02*
G01*
X68500000Y-65100000D01*
X68900000Y-65100000D01*
X68900000Y-65500000D01*
X68500000Y-65500000D01*
G37*
G36*
X68900000Y-65500000D02*
G01*
X68900000Y-65100000D01*
X69300000Y-65100000D01*
X69300000Y-65500000D01*
X68900000Y-65500000D01*
G37*
G36*
X69300000Y-65500000D02*
G01*
X69300000Y-65100000D01*
X69700000Y-65100000D01*
X69700000Y-65500000D01*
X69300000Y-65500000D01*
G37*
G36*
X69700000Y-65500000D02*
G01*
X69700000Y-65100000D01*
X70100000Y-65100000D01*
X70100000Y-65500000D01*
X69700000Y-65500000D01*
G37*
G36*
X70500000Y-65500000D02*
G01*
X70500000Y-65100000D01*
X70900000Y-65100000D01*
X70900000Y-65500000D01*
X70500000Y-65500000D01*
G37*
G36*
X72500000Y-65500000D02*
G01*
X72500000Y-65100000D01*
X72900000Y-65100000D01*
X72900000Y-65500000D01*
X72500000Y-65500000D01*
G37*
G36*
X72900000Y-65500000D02*
G01*
X72900000Y-65100000D01*
X73300000Y-65100000D01*
X73300000Y-65500000D01*
X72900000Y-65500000D01*
G37*
G36*
X73700000Y-65500000D02*
G01*
X73700000Y-65100000D01*
X74100000Y-65100000D01*
X74100000Y-65500000D01*
X73700000Y-65500000D01*
G37*
G36*
X74900000Y-65500000D02*
G01*
X74900000Y-65100000D01*
X75300000Y-65100000D01*
X75300000Y-65500000D01*
X74900000Y-65500000D01*
G37*
G36*
X75300000Y-65500000D02*
G01*
X75300000Y-65100000D01*
X75700000Y-65100000D01*
X75700000Y-65500000D01*
X75300000Y-65500000D01*
G37*
G36*
X76100000Y-65500000D02*
G01*
X76100000Y-65100000D01*
X76500000Y-65100000D01*
X76500000Y-65500000D01*
X76100000Y-65500000D01*
G37*
G36*
X77300000Y-65500000D02*
G01*
X77300000Y-65100000D01*
X77700000Y-65100000D01*
X77700000Y-65500000D01*
X77300000Y-65500000D01*
G37*
G36*
X80500000Y-65500000D02*
G01*
X80500000Y-65100000D01*
X80900000Y-65100000D01*
X80900000Y-65500000D01*
X80500000Y-65500000D01*
G37*
G36*
X80900000Y-65500000D02*
G01*
X80900000Y-65100000D01*
X81300000Y-65100000D01*
X81300000Y-65500000D01*
X80900000Y-65500000D01*
G37*
G36*
X66500000Y-65100000D02*
G01*
X66500000Y-64700000D01*
X66900000Y-64700000D01*
X66900000Y-65100000D01*
X66500000Y-65100000D01*
G37*
G36*
X66900000Y-65100000D02*
G01*
X66900000Y-64700000D01*
X67300000Y-64700000D01*
X67300000Y-65100000D01*
X66900000Y-65100000D01*
G37*
G36*
X67300000Y-65100000D02*
G01*
X67300000Y-64700000D01*
X67700000Y-64700000D01*
X67700000Y-65100000D01*
X67300000Y-65100000D01*
G37*
G36*
X67700000Y-65100000D02*
G01*
X67700000Y-64700000D01*
X68100000Y-64700000D01*
X68100000Y-65100000D01*
X67700000Y-65100000D01*
G37*
G36*
X68100000Y-65100000D02*
G01*
X68100000Y-64700000D01*
X68500000Y-64700000D01*
X68500000Y-65100000D01*
X68100000Y-65100000D01*
G37*
G36*
X68500000Y-65100000D02*
G01*
X68500000Y-64700000D01*
X68900000Y-64700000D01*
X68900000Y-65100000D01*
X68500000Y-65100000D01*
G37*
G36*
X68900000Y-65100000D02*
G01*
X68900000Y-64700000D01*
X69300000Y-64700000D01*
X69300000Y-65100000D01*
X68900000Y-65100000D01*
G37*
G36*
X69300000Y-65100000D02*
G01*
X69300000Y-64700000D01*
X69700000Y-64700000D01*
X69700000Y-65100000D01*
X69300000Y-65100000D01*
G37*
G36*
X70500000Y-65100000D02*
G01*
X70500000Y-64700000D01*
X70900000Y-64700000D01*
X70900000Y-65100000D01*
X70500000Y-65100000D01*
G37*
G36*
X71300000Y-65100000D02*
G01*
X71300000Y-64700000D01*
X71700000Y-64700000D01*
X71700000Y-65100000D01*
X71300000Y-65100000D01*
G37*
G36*
X72900000Y-65100000D02*
G01*
X72900000Y-64700000D01*
X73300000Y-64700000D01*
X73300000Y-65100000D01*
X72900000Y-65100000D01*
G37*
G36*
X73700000Y-65100000D02*
G01*
X73700000Y-64700000D01*
X74100000Y-64700000D01*
X74100000Y-65100000D01*
X73700000Y-65100000D01*
G37*
G36*
X74100000Y-65100000D02*
G01*
X74100000Y-64700000D01*
X74500000Y-64700000D01*
X74500000Y-65100000D01*
X74100000Y-65100000D01*
G37*
G36*
X74500000Y-65100000D02*
G01*
X74500000Y-64700000D01*
X74900000Y-64700000D01*
X74900000Y-65100000D01*
X74500000Y-65100000D01*
G37*
G36*
X75300000Y-65100000D02*
G01*
X75300000Y-64700000D01*
X75700000Y-64700000D01*
X75700000Y-65100000D01*
X75300000Y-65100000D01*
G37*
G36*
X76900000Y-65100000D02*
G01*
X76900000Y-64700000D01*
X77300000Y-64700000D01*
X77300000Y-65100000D01*
X76900000Y-65100000D01*
G37*
G36*
X77300000Y-65100000D02*
G01*
X77300000Y-64700000D01*
X77700000Y-64700000D01*
X77700000Y-65100000D01*
X77300000Y-65100000D01*
G37*
G36*
X78100000Y-65100000D02*
G01*
X78100000Y-64700000D01*
X78500000Y-64700000D01*
X78500000Y-65100000D01*
X78100000Y-65100000D01*
G37*
G36*
X78500000Y-65100000D02*
G01*
X78500000Y-64700000D01*
X78900000Y-64700000D01*
X78900000Y-65100000D01*
X78500000Y-65100000D01*
G37*
G36*
X78900000Y-65100000D02*
G01*
X78900000Y-64700000D01*
X79300000Y-64700000D01*
X79300000Y-65100000D01*
X78900000Y-65100000D01*
G37*
G36*
X79300000Y-65100000D02*
G01*
X79300000Y-64700000D01*
X79700000Y-64700000D01*
X79700000Y-65100000D01*
X79300000Y-65100000D01*
G37*
G36*
X79700000Y-65100000D02*
G01*
X79700000Y-64700000D01*
X80100000Y-64700000D01*
X80100000Y-65100000D01*
X79700000Y-65100000D01*
G37*
G36*
X80500000Y-65100000D02*
G01*
X80500000Y-64700000D01*
X80900000Y-64700000D01*
X80900000Y-65100000D01*
X80500000Y-65100000D01*
G37*
G36*
X80900000Y-65100000D02*
G01*
X80900000Y-64700000D01*
X81300000Y-64700000D01*
X81300000Y-65100000D01*
X80900000Y-65100000D01*
G37*
G36*
X66500000Y-64700000D02*
G01*
X66500000Y-64300000D01*
X66900000Y-64300000D01*
X66900000Y-64700000D01*
X66500000Y-64700000D01*
G37*
G36*
X66900000Y-64700000D02*
G01*
X66900000Y-64300000D01*
X67300000Y-64300000D01*
X67300000Y-64700000D01*
X66900000Y-64700000D01*
G37*
G36*
X67300000Y-64700000D02*
G01*
X67300000Y-64300000D01*
X67700000Y-64300000D01*
X67700000Y-64700000D01*
X67300000Y-64700000D01*
G37*
G36*
X67700000Y-64700000D02*
G01*
X67700000Y-64300000D01*
X68100000Y-64300000D01*
X68100000Y-64700000D01*
X67700000Y-64700000D01*
G37*
G36*
X70100000Y-64700000D02*
G01*
X70100000Y-64300000D01*
X70500000Y-64300000D01*
X70500000Y-64700000D01*
X70100000Y-64700000D01*
G37*
G36*
X71300000Y-64700000D02*
G01*
X71300000Y-64300000D01*
X71700000Y-64300000D01*
X71700000Y-64700000D01*
X71300000Y-64700000D01*
G37*
G36*
X71700000Y-64700000D02*
G01*
X71700000Y-64300000D01*
X72100000Y-64300000D01*
X72100000Y-64700000D01*
X71700000Y-64700000D01*
G37*
G36*
X72100000Y-64700000D02*
G01*
X72100000Y-64300000D01*
X72500000Y-64300000D01*
X72500000Y-64700000D01*
X72100000Y-64700000D01*
G37*
G36*
X73300000Y-64700000D02*
G01*
X73300000Y-64300000D01*
X73700000Y-64300000D01*
X73700000Y-64700000D01*
X73300000Y-64700000D01*
G37*
G36*
X74100000Y-64700000D02*
G01*
X74100000Y-64300000D01*
X74500000Y-64300000D01*
X74500000Y-64700000D01*
X74100000Y-64700000D01*
G37*
G36*
X74500000Y-64700000D02*
G01*
X74500000Y-64300000D01*
X74900000Y-64300000D01*
X74900000Y-64700000D01*
X74500000Y-64700000D01*
G37*
G36*
X75300000Y-64700000D02*
G01*
X75300000Y-64300000D01*
X75700000Y-64300000D01*
X75700000Y-64700000D01*
X75300000Y-64700000D01*
G37*
G36*
X75700000Y-64700000D02*
G01*
X75700000Y-64300000D01*
X76100000Y-64300000D01*
X76100000Y-64700000D01*
X75700000Y-64700000D01*
G37*
G36*
X76100000Y-64700000D02*
G01*
X76100000Y-64300000D01*
X76500000Y-64300000D01*
X76500000Y-64700000D01*
X76100000Y-64700000D01*
G37*
G36*
X76500000Y-64700000D02*
G01*
X76500000Y-64300000D01*
X76900000Y-64300000D01*
X76900000Y-64700000D01*
X76500000Y-64700000D01*
G37*
G36*
X76900000Y-64700000D02*
G01*
X76900000Y-64300000D01*
X77300000Y-64300000D01*
X77300000Y-64700000D01*
X76900000Y-64700000D01*
G37*
G36*
X77300000Y-64700000D02*
G01*
X77300000Y-64300000D01*
X77700000Y-64300000D01*
X77700000Y-64700000D01*
X77300000Y-64700000D01*
G37*
G36*
X78100000Y-64700000D02*
G01*
X78100000Y-64300000D01*
X78500000Y-64300000D01*
X78500000Y-64700000D01*
X78100000Y-64700000D01*
G37*
G36*
X79700000Y-64700000D02*
G01*
X79700000Y-64300000D01*
X80100000Y-64300000D01*
X80100000Y-64700000D01*
X79700000Y-64700000D01*
G37*
G36*
X80500000Y-64700000D02*
G01*
X80500000Y-64300000D01*
X80900000Y-64300000D01*
X80900000Y-64700000D01*
X80500000Y-64700000D01*
G37*
G36*
X80900000Y-64700000D02*
G01*
X80900000Y-64300000D01*
X81300000Y-64300000D01*
X81300000Y-64700000D01*
X80900000Y-64700000D01*
G37*
G36*
X66500000Y-64300000D02*
G01*
X66500000Y-63900000D01*
X66900000Y-63900000D01*
X66900000Y-64300000D01*
X66500000Y-64300000D01*
G37*
G36*
X66900000Y-64300000D02*
G01*
X66900000Y-63900000D01*
X67300000Y-63900000D01*
X67300000Y-64300000D01*
X66900000Y-64300000D01*
G37*
G36*
X67300000Y-64300000D02*
G01*
X67300000Y-63900000D01*
X67700000Y-63900000D01*
X67700000Y-64300000D01*
X67300000Y-64300000D01*
G37*
G36*
X70100000Y-64300000D02*
G01*
X70100000Y-63900000D01*
X70500000Y-63900000D01*
X70500000Y-64300000D01*
X70100000Y-64300000D01*
G37*
G36*
X72100000Y-64300000D02*
G01*
X72100000Y-63900000D01*
X72500000Y-63900000D01*
X72500000Y-64300000D01*
X72100000Y-64300000D01*
G37*
G36*
X72900000Y-64300000D02*
G01*
X72900000Y-63900000D01*
X73300000Y-63900000D01*
X73300000Y-64300000D01*
X72900000Y-64300000D01*
G37*
G36*
X74100000Y-64300000D02*
G01*
X74100000Y-63900000D01*
X74500000Y-63900000D01*
X74500000Y-64300000D01*
X74100000Y-64300000D01*
G37*
G36*
X74500000Y-64300000D02*
G01*
X74500000Y-63900000D01*
X74900000Y-63900000D01*
X74900000Y-64300000D01*
X74500000Y-64300000D01*
G37*
G36*
X75300000Y-64300000D02*
G01*
X75300000Y-63900000D01*
X75700000Y-63900000D01*
X75700000Y-64300000D01*
X75300000Y-64300000D01*
G37*
G36*
X75700000Y-64300000D02*
G01*
X75700000Y-63900000D01*
X76100000Y-63900000D01*
X76100000Y-64300000D01*
X75700000Y-64300000D01*
G37*
G36*
X76900000Y-64300000D02*
G01*
X76900000Y-63900000D01*
X77300000Y-63900000D01*
X77300000Y-64300000D01*
X76900000Y-64300000D01*
G37*
G36*
X77300000Y-64300000D02*
G01*
X77300000Y-63900000D01*
X77700000Y-63900000D01*
X77700000Y-64300000D01*
X77300000Y-64300000D01*
G37*
G36*
X78100000Y-64300000D02*
G01*
X78100000Y-63900000D01*
X78500000Y-63900000D01*
X78500000Y-64300000D01*
X78100000Y-64300000D01*
G37*
G36*
X79700000Y-64300000D02*
G01*
X79700000Y-63900000D01*
X80100000Y-63900000D01*
X80100000Y-64300000D01*
X79700000Y-64300000D01*
G37*
G36*
X80500000Y-64300000D02*
G01*
X80500000Y-63900000D01*
X80900000Y-63900000D01*
X80900000Y-64300000D01*
X80500000Y-64300000D01*
G37*
G36*
X80900000Y-64300000D02*
G01*
X80900000Y-63900000D01*
X81300000Y-63900000D01*
X81300000Y-64300000D01*
X80900000Y-64300000D01*
G37*
G36*
X66500000Y-63900000D02*
G01*
X66500000Y-63500000D01*
X66900000Y-63500000D01*
X66900000Y-63900000D01*
X66500000Y-63900000D01*
G37*
G36*
X66900000Y-63900000D02*
G01*
X66900000Y-63500000D01*
X67300000Y-63500000D01*
X67300000Y-63900000D01*
X66900000Y-63900000D01*
G37*
G36*
X67700000Y-63900000D02*
G01*
X67700000Y-63500000D01*
X68100000Y-63500000D01*
X68100000Y-63900000D01*
X67700000Y-63900000D01*
G37*
G36*
X68100000Y-63900000D02*
G01*
X68100000Y-63500000D01*
X68500000Y-63500000D01*
X68500000Y-63900000D01*
X68100000Y-63900000D01*
G37*
G36*
X70900000Y-63900000D02*
G01*
X70900000Y-63500000D01*
X71300000Y-63500000D01*
X71300000Y-63900000D01*
X70900000Y-63900000D01*
G37*
G36*
X71300000Y-63900000D02*
G01*
X71300000Y-63500000D01*
X71700000Y-63500000D01*
X71700000Y-63900000D01*
X71300000Y-63900000D01*
G37*
G36*
X71700000Y-63900000D02*
G01*
X71700000Y-63500000D01*
X72100000Y-63500000D01*
X72100000Y-63900000D01*
X71700000Y-63900000D01*
G37*
G36*
X72500000Y-63900000D02*
G01*
X72500000Y-63500000D01*
X72900000Y-63500000D01*
X72900000Y-63900000D01*
X72500000Y-63900000D01*
G37*
G36*
X73300000Y-63900000D02*
G01*
X73300000Y-63500000D01*
X73700000Y-63500000D01*
X73700000Y-63900000D01*
X73300000Y-63900000D01*
G37*
G36*
X73700000Y-63900000D02*
G01*
X73700000Y-63500000D01*
X74100000Y-63500000D01*
X74100000Y-63900000D01*
X73700000Y-63900000D01*
G37*
G36*
X74100000Y-63900000D02*
G01*
X74100000Y-63500000D01*
X74500000Y-63500000D01*
X74500000Y-63900000D01*
X74100000Y-63900000D01*
G37*
G36*
X74500000Y-63900000D02*
G01*
X74500000Y-63500000D01*
X74900000Y-63500000D01*
X74900000Y-63900000D01*
X74500000Y-63900000D01*
G37*
G36*
X74900000Y-63900000D02*
G01*
X74900000Y-63500000D01*
X75300000Y-63500000D01*
X75300000Y-63900000D01*
X74900000Y-63900000D01*
G37*
G36*
X75700000Y-63900000D02*
G01*
X75700000Y-63500000D01*
X76100000Y-63500000D01*
X76100000Y-63900000D01*
X75700000Y-63900000D01*
G37*
G36*
X76100000Y-63900000D02*
G01*
X76100000Y-63500000D01*
X76500000Y-63500000D01*
X76500000Y-63900000D01*
X76100000Y-63900000D01*
G37*
G36*
X76500000Y-63900000D02*
G01*
X76500000Y-63500000D01*
X76900000Y-63500000D01*
X76900000Y-63900000D01*
X76500000Y-63900000D01*
G37*
G36*
X77300000Y-63900000D02*
G01*
X77300000Y-63500000D01*
X77700000Y-63500000D01*
X77700000Y-63900000D01*
X77300000Y-63900000D01*
G37*
G36*
X78100000Y-63900000D02*
G01*
X78100000Y-63500000D01*
X78500000Y-63500000D01*
X78500000Y-63900000D01*
X78100000Y-63900000D01*
G37*
G36*
X79700000Y-63900000D02*
G01*
X79700000Y-63500000D01*
X80100000Y-63500000D01*
X80100000Y-63900000D01*
X79700000Y-63900000D01*
G37*
G36*
X80500000Y-63900000D02*
G01*
X80500000Y-63500000D01*
X80900000Y-63500000D01*
X80900000Y-63900000D01*
X80500000Y-63900000D01*
G37*
G36*
X80900000Y-63900000D02*
G01*
X80900000Y-63500000D01*
X81300000Y-63500000D01*
X81300000Y-63900000D01*
X80900000Y-63900000D01*
G37*
G36*
X66500000Y-63500000D02*
G01*
X66500000Y-63100000D01*
X66900000Y-63100000D01*
X66900000Y-63500000D01*
X66500000Y-63500000D01*
G37*
G36*
X66900000Y-63500000D02*
G01*
X66900000Y-63100000D01*
X67300000Y-63100000D01*
X67300000Y-63500000D01*
X66900000Y-63500000D01*
G37*
G36*
X67300000Y-63500000D02*
G01*
X67300000Y-63100000D01*
X67700000Y-63100000D01*
X67700000Y-63500000D01*
X67300000Y-63500000D01*
G37*
G36*
X68100000Y-63500000D02*
G01*
X68100000Y-63100000D01*
X68500000Y-63100000D01*
X68500000Y-63500000D01*
X68100000Y-63500000D01*
G37*
G36*
X68500000Y-63500000D02*
G01*
X68500000Y-63100000D01*
X68900000Y-63100000D01*
X68900000Y-63500000D01*
X68500000Y-63500000D01*
G37*
G36*
X69300000Y-63500000D02*
G01*
X69300000Y-63100000D01*
X69700000Y-63100000D01*
X69700000Y-63500000D01*
X69300000Y-63500000D01*
G37*
G36*
X69700000Y-63500000D02*
G01*
X69700000Y-63100000D01*
X70100000Y-63100000D01*
X70100000Y-63500000D01*
X69700000Y-63500000D01*
G37*
G36*
X70100000Y-63500000D02*
G01*
X70100000Y-63100000D01*
X70500000Y-63100000D01*
X70500000Y-63500000D01*
X70100000Y-63500000D01*
G37*
G36*
X70900000Y-63500000D02*
G01*
X70900000Y-63100000D01*
X71300000Y-63100000D01*
X71300000Y-63500000D01*
X70900000Y-63500000D01*
G37*
G36*
X71300000Y-63500000D02*
G01*
X71300000Y-63100000D01*
X71700000Y-63100000D01*
X71700000Y-63500000D01*
X71300000Y-63500000D01*
G37*
G36*
X72500000Y-63500000D02*
G01*
X72500000Y-63100000D01*
X72900000Y-63100000D01*
X72900000Y-63500000D01*
X72500000Y-63500000D01*
G37*
G36*
X73700000Y-63500000D02*
G01*
X73700000Y-63100000D01*
X74100000Y-63100000D01*
X74100000Y-63500000D01*
X73700000Y-63500000D01*
G37*
G36*
X74500000Y-63500000D02*
G01*
X74500000Y-63100000D01*
X74900000Y-63100000D01*
X74900000Y-63500000D01*
X74500000Y-63500000D01*
G37*
G36*
X74900000Y-63500000D02*
G01*
X74900000Y-63100000D01*
X75300000Y-63100000D01*
X75300000Y-63500000D01*
X74900000Y-63500000D01*
G37*
G36*
X76500000Y-63500000D02*
G01*
X76500000Y-63100000D01*
X76900000Y-63100000D01*
X76900000Y-63500000D01*
X76500000Y-63500000D01*
G37*
G36*
X76900000Y-63500000D02*
G01*
X76900000Y-63100000D01*
X77300000Y-63100000D01*
X77300000Y-63500000D01*
X76900000Y-63500000D01*
G37*
G36*
X77300000Y-63500000D02*
G01*
X77300000Y-63100000D01*
X77700000Y-63100000D01*
X77700000Y-63500000D01*
X77300000Y-63500000D01*
G37*
G36*
X78100000Y-63500000D02*
G01*
X78100000Y-63100000D01*
X78500000Y-63100000D01*
X78500000Y-63500000D01*
X78100000Y-63500000D01*
G37*
G36*
X78500000Y-63500000D02*
G01*
X78500000Y-63100000D01*
X78900000Y-63100000D01*
X78900000Y-63500000D01*
X78500000Y-63500000D01*
G37*
G36*
X78900000Y-63500000D02*
G01*
X78900000Y-63100000D01*
X79300000Y-63100000D01*
X79300000Y-63500000D01*
X78900000Y-63500000D01*
G37*
G36*
X79300000Y-63500000D02*
G01*
X79300000Y-63100000D01*
X79700000Y-63100000D01*
X79700000Y-63500000D01*
X79300000Y-63500000D01*
G37*
G36*
X79700000Y-63500000D02*
G01*
X79700000Y-63100000D01*
X80100000Y-63100000D01*
X80100000Y-63500000D01*
X79700000Y-63500000D01*
G37*
G36*
X80500000Y-63500000D02*
G01*
X80500000Y-63100000D01*
X80900000Y-63100000D01*
X80900000Y-63500000D01*
X80500000Y-63500000D01*
G37*
G36*
X80900000Y-63500000D02*
G01*
X80900000Y-63100000D01*
X81300000Y-63100000D01*
X81300000Y-63500000D01*
X80900000Y-63500000D01*
G37*
G36*
X66500000Y-63100000D02*
G01*
X66500000Y-62700000D01*
X66900000Y-62700000D01*
X66900000Y-63100000D01*
X66500000Y-63100000D01*
G37*
G36*
X66900000Y-63100000D02*
G01*
X66900000Y-62700000D01*
X67300000Y-62700000D01*
X67300000Y-63100000D01*
X66900000Y-63100000D01*
G37*
G36*
X67300000Y-63100000D02*
G01*
X67300000Y-62700000D01*
X67700000Y-62700000D01*
X67700000Y-63100000D01*
X67300000Y-63100000D01*
G37*
G36*
X67700000Y-63100000D02*
G01*
X67700000Y-62700000D01*
X68100000Y-62700000D01*
X68100000Y-63100000D01*
X67700000Y-63100000D01*
G37*
G36*
X68100000Y-63100000D02*
G01*
X68100000Y-62700000D01*
X68500000Y-62700000D01*
X68500000Y-63100000D01*
X68100000Y-63100000D01*
G37*
G36*
X69300000Y-63100000D02*
G01*
X69300000Y-62700000D01*
X69700000Y-62700000D01*
X69700000Y-63100000D01*
X69300000Y-63100000D01*
G37*
G36*
X70100000Y-63100000D02*
G01*
X70100000Y-62700000D01*
X70500000Y-62700000D01*
X70500000Y-63100000D01*
X70100000Y-63100000D01*
G37*
G36*
X70900000Y-63100000D02*
G01*
X70900000Y-62700000D01*
X71300000Y-62700000D01*
X71300000Y-63100000D01*
X70900000Y-63100000D01*
G37*
G36*
X72500000Y-63100000D02*
G01*
X72500000Y-62700000D01*
X72900000Y-62700000D01*
X72900000Y-63100000D01*
X72500000Y-63100000D01*
G37*
G36*
X72900000Y-63100000D02*
G01*
X72900000Y-62700000D01*
X73300000Y-62700000D01*
X73300000Y-63100000D01*
X72900000Y-63100000D01*
G37*
G36*
X73700000Y-63100000D02*
G01*
X73700000Y-62700000D01*
X74100000Y-62700000D01*
X74100000Y-63100000D01*
X73700000Y-63100000D01*
G37*
G36*
X74500000Y-63100000D02*
G01*
X74500000Y-62700000D01*
X74900000Y-62700000D01*
X74900000Y-63100000D01*
X74500000Y-63100000D01*
G37*
G36*
X74900000Y-63100000D02*
G01*
X74900000Y-62700000D01*
X75300000Y-62700000D01*
X75300000Y-63100000D01*
X74900000Y-63100000D01*
G37*
G36*
X76100000Y-63100000D02*
G01*
X76100000Y-62700000D01*
X76500000Y-62700000D01*
X76500000Y-63100000D01*
X76100000Y-63100000D01*
G37*
G36*
X76500000Y-63100000D02*
G01*
X76500000Y-62700000D01*
X76900000Y-62700000D01*
X76900000Y-63100000D01*
X76500000Y-63100000D01*
G37*
G36*
X77300000Y-63100000D02*
G01*
X77300000Y-62700000D01*
X77700000Y-62700000D01*
X77700000Y-63100000D01*
X77300000Y-63100000D01*
G37*
G36*
X80500000Y-63100000D02*
G01*
X80500000Y-62700000D01*
X80900000Y-62700000D01*
X80900000Y-63100000D01*
X80500000Y-63100000D01*
G37*
G36*
X80900000Y-63100000D02*
G01*
X80900000Y-62700000D01*
X81300000Y-62700000D01*
X81300000Y-63100000D01*
X80900000Y-63100000D01*
G37*
G36*
X66500000Y-62700000D02*
G01*
X66500000Y-62300000D01*
X66900000Y-62300000D01*
X66900000Y-62700000D01*
X66500000Y-62700000D01*
G37*
G36*
X66900000Y-62700000D02*
G01*
X66900000Y-62300000D01*
X67300000Y-62300000D01*
X67300000Y-62700000D01*
X66900000Y-62700000D01*
G37*
G36*
X67300000Y-62700000D02*
G01*
X67300000Y-62300000D01*
X67700000Y-62300000D01*
X67700000Y-62700000D01*
X67300000Y-62700000D01*
G37*
G36*
X68500000Y-62700000D02*
G01*
X68500000Y-62300000D01*
X68900000Y-62300000D01*
X68900000Y-62700000D01*
X68500000Y-62700000D01*
G37*
G36*
X69300000Y-62700000D02*
G01*
X69300000Y-62300000D01*
X69700000Y-62300000D01*
X69700000Y-62700000D01*
X69300000Y-62700000D01*
G37*
G36*
X69700000Y-62700000D02*
G01*
X69700000Y-62300000D01*
X70100000Y-62300000D01*
X70100000Y-62700000D01*
X69700000Y-62700000D01*
G37*
G36*
X70100000Y-62700000D02*
G01*
X70100000Y-62300000D01*
X70500000Y-62300000D01*
X70500000Y-62700000D01*
X70100000Y-62700000D01*
G37*
G36*
X71300000Y-62700000D02*
G01*
X71300000Y-62300000D01*
X71700000Y-62300000D01*
X71700000Y-62700000D01*
X71300000Y-62700000D01*
G37*
G36*
X71700000Y-62700000D02*
G01*
X71700000Y-62300000D01*
X72100000Y-62300000D01*
X72100000Y-62700000D01*
X71700000Y-62700000D01*
G37*
G36*
X72500000Y-62700000D02*
G01*
X72500000Y-62300000D01*
X72900000Y-62300000D01*
X72900000Y-62700000D01*
X72500000Y-62700000D01*
G37*
G36*
X73300000Y-62700000D02*
G01*
X73300000Y-62300000D01*
X73700000Y-62300000D01*
X73700000Y-62700000D01*
X73300000Y-62700000D01*
G37*
G36*
X74500000Y-62700000D02*
G01*
X74500000Y-62300000D01*
X74900000Y-62300000D01*
X74900000Y-62700000D01*
X74500000Y-62700000D01*
G37*
G36*
X75300000Y-62700000D02*
G01*
X75300000Y-62300000D01*
X75700000Y-62300000D01*
X75700000Y-62700000D01*
X75300000Y-62700000D01*
G37*
G36*
X75700000Y-62700000D02*
G01*
X75700000Y-62300000D01*
X76100000Y-62300000D01*
X76100000Y-62700000D01*
X75700000Y-62700000D01*
G37*
G36*
X76100000Y-62700000D02*
G01*
X76100000Y-62300000D01*
X76500000Y-62300000D01*
X76500000Y-62700000D01*
X76100000Y-62700000D01*
G37*
G36*
X77300000Y-62700000D02*
G01*
X77300000Y-62300000D01*
X77700000Y-62300000D01*
X77700000Y-62700000D01*
X77300000Y-62700000D01*
G37*
G36*
X77700000Y-62700000D02*
G01*
X77700000Y-62300000D01*
X78100000Y-62300000D01*
X78100000Y-62700000D01*
X77700000Y-62700000D01*
G37*
G36*
X78100000Y-62700000D02*
G01*
X78100000Y-62300000D01*
X78500000Y-62300000D01*
X78500000Y-62700000D01*
X78100000Y-62700000D01*
G37*
G36*
X78500000Y-62700000D02*
G01*
X78500000Y-62300000D01*
X78900000Y-62300000D01*
X78900000Y-62700000D01*
X78500000Y-62700000D01*
G37*
G36*
X78900000Y-62700000D02*
G01*
X78900000Y-62300000D01*
X79300000Y-62300000D01*
X79300000Y-62700000D01*
X78900000Y-62700000D01*
G37*
G36*
X79300000Y-62700000D02*
G01*
X79300000Y-62300000D01*
X79700000Y-62300000D01*
X79700000Y-62700000D01*
X79300000Y-62700000D01*
G37*
G36*
X79700000Y-62700000D02*
G01*
X79700000Y-62300000D01*
X80100000Y-62300000D01*
X80100000Y-62700000D01*
X79700000Y-62700000D01*
G37*
G36*
X80100000Y-62700000D02*
G01*
X80100000Y-62300000D01*
X80500000Y-62300000D01*
X80500000Y-62700000D01*
X80100000Y-62700000D01*
G37*
G36*
X80500000Y-62700000D02*
G01*
X80500000Y-62300000D01*
X80900000Y-62300000D01*
X80900000Y-62700000D01*
X80500000Y-62700000D01*
G37*
G36*
X80900000Y-62700000D02*
G01*
X80900000Y-62300000D01*
X81300000Y-62300000D01*
X81300000Y-62700000D01*
X80900000Y-62700000D01*
G37*
G36*
X66500000Y-62300000D02*
G01*
X66500000Y-61900000D01*
X66900000Y-61900000D01*
X66900000Y-62300000D01*
X66500000Y-62300000D01*
G37*
G36*
X66900000Y-62300000D02*
G01*
X66900000Y-61900000D01*
X67300000Y-61900000D01*
X67300000Y-62300000D01*
X66900000Y-62300000D01*
G37*
G36*
X67700000Y-62300000D02*
G01*
X67700000Y-61900000D01*
X68100000Y-61900000D01*
X68100000Y-62300000D01*
X67700000Y-62300000D01*
G37*
G36*
X68100000Y-62300000D02*
G01*
X68100000Y-61900000D01*
X68500000Y-61900000D01*
X68500000Y-62300000D01*
X68100000Y-62300000D01*
G37*
G36*
X68500000Y-62300000D02*
G01*
X68500000Y-61900000D01*
X68900000Y-61900000D01*
X68900000Y-62300000D01*
X68500000Y-62300000D01*
G37*
G36*
X70900000Y-62300000D02*
G01*
X70900000Y-61900000D01*
X71300000Y-61900000D01*
X71300000Y-62300000D01*
X70900000Y-62300000D01*
G37*
G36*
X72900000Y-62300000D02*
G01*
X72900000Y-61900000D01*
X73300000Y-61900000D01*
X73300000Y-62300000D01*
X72900000Y-62300000D01*
G37*
G36*
X73700000Y-62300000D02*
G01*
X73700000Y-61900000D01*
X74100000Y-61900000D01*
X74100000Y-62300000D01*
X73700000Y-62300000D01*
G37*
G36*
X74100000Y-62300000D02*
G01*
X74100000Y-61900000D01*
X74500000Y-61900000D01*
X74500000Y-62300000D01*
X74100000Y-62300000D01*
G37*
G36*
X74900000Y-62300000D02*
G01*
X74900000Y-61900000D01*
X75300000Y-61900000D01*
X75300000Y-62300000D01*
X74900000Y-62300000D01*
G37*
G36*
X76100000Y-62300000D02*
G01*
X76100000Y-61900000D01*
X76500000Y-61900000D01*
X76500000Y-62300000D01*
X76100000Y-62300000D01*
G37*
G36*
X78900000Y-62300000D02*
G01*
X78900000Y-61900000D01*
X79300000Y-61900000D01*
X79300000Y-62300000D01*
X78900000Y-62300000D01*
G37*
G36*
X79300000Y-62300000D02*
G01*
X79300000Y-61900000D01*
X79700000Y-61900000D01*
X79700000Y-62300000D01*
X79300000Y-62300000D01*
G37*
G36*
X80500000Y-62300000D02*
G01*
X80500000Y-61900000D01*
X80900000Y-61900000D01*
X80900000Y-62300000D01*
X80500000Y-62300000D01*
G37*
G36*
X80900000Y-62300000D02*
G01*
X80900000Y-61900000D01*
X81300000Y-61900000D01*
X81300000Y-62300000D01*
X80900000Y-62300000D01*
G37*
G36*
X66500000Y-61900000D02*
G01*
X66500000Y-61500000D01*
X66900000Y-61500000D01*
X66900000Y-61900000D01*
X66500000Y-61900000D01*
G37*
G36*
X66900000Y-61900000D02*
G01*
X66900000Y-61500000D01*
X67300000Y-61500000D01*
X67300000Y-61900000D01*
X66900000Y-61900000D01*
G37*
G36*
X67700000Y-61900000D02*
G01*
X67700000Y-61500000D01*
X68100000Y-61500000D01*
X68100000Y-61900000D01*
X67700000Y-61900000D01*
G37*
G36*
X68100000Y-61900000D02*
G01*
X68100000Y-61500000D01*
X68500000Y-61500000D01*
X68500000Y-61900000D01*
X68100000Y-61900000D01*
G37*
G36*
X68500000Y-61900000D02*
G01*
X68500000Y-61500000D01*
X68900000Y-61500000D01*
X68900000Y-61900000D01*
X68500000Y-61900000D01*
G37*
G36*
X70500000Y-61900000D02*
G01*
X70500000Y-61500000D01*
X70900000Y-61500000D01*
X70900000Y-61900000D01*
X70500000Y-61900000D01*
G37*
G36*
X71300000Y-61900000D02*
G01*
X71300000Y-61500000D01*
X71700000Y-61500000D01*
X71700000Y-61900000D01*
X71300000Y-61900000D01*
G37*
G36*
X72100000Y-61900000D02*
G01*
X72100000Y-61500000D01*
X72500000Y-61500000D01*
X72500000Y-61900000D01*
X72100000Y-61900000D01*
G37*
G36*
X72500000Y-61900000D02*
G01*
X72500000Y-61500000D01*
X72900000Y-61500000D01*
X72900000Y-61900000D01*
X72500000Y-61900000D01*
G37*
G36*
X74900000Y-61900000D02*
G01*
X74900000Y-61500000D01*
X75300000Y-61500000D01*
X75300000Y-61900000D01*
X74900000Y-61900000D01*
G37*
G36*
X75300000Y-61900000D02*
G01*
X75300000Y-61500000D01*
X75700000Y-61500000D01*
X75700000Y-61900000D01*
X75300000Y-61900000D01*
G37*
G36*
X76500000Y-61900000D02*
G01*
X76500000Y-61500000D01*
X76900000Y-61500000D01*
X76900000Y-61900000D01*
X76500000Y-61900000D01*
G37*
G36*
X77300000Y-61900000D02*
G01*
X77300000Y-61500000D01*
X77700000Y-61500000D01*
X77700000Y-61900000D01*
X77300000Y-61900000D01*
G37*
G36*
X77700000Y-61900000D02*
G01*
X77700000Y-61500000D01*
X78100000Y-61500000D01*
X78100000Y-61900000D01*
X77700000Y-61900000D01*
G37*
G36*
X78500000Y-61900000D02*
G01*
X78500000Y-61500000D01*
X78900000Y-61500000D01*
X78900000Y-61900000D01*
X78500000Y-61900000D01*
G37*
G36*
X79700000Y-61900000D02*
G01*
X79700000Y-61500000D01*
X80100000Y-61500000D01*
X80100000Y-61900000D01*
X79700000Y-61900000D01*
G37*
G36*
X80100000Y-61900000D02*
G01*
X80100000Y-61500000D01*
X80500000Y-61500000D01*
X80500000Y-61900000D01*
X80100000Y-61900000D01*
G37*
G36*
X80500000Y-61900000D02*
G01*
X80500000Y-61500000D01*
X80900000Y-61500000D01*
X80900000Y-61900000D01*
X80500000Y-61900000D01*
G37*
G36*
X80900000Y-61900000D02*
G01*
X80900000Y-61500000D01*
X81300000Y-61500000D01*
X81300000Y-61900000D01*
X80900000Y-61900000D01*
G37*
G36*
X66500000Y-61500000D02*
G01*
X66500000Y-61100000D01*
X66900000Y-61100000D01*
X66900000Y-61500000D01*
X66500000Y-61500000D01*
G37*
G36*
X66900000Y-61500000D02*
G01*
X66900000Y-61100000D01*
X67300000Y-61100000D01*
X67300000Y-61500000D01*
X66900000Y-61500000D01*
G37*
G36*
X67300000Y-61500000D02*
G01*
X67300000Y-61100000D01*
X67700000Y-61100000D01*
X67700000Y-61500000D01*
X67300000Y-61500000D01*
G37*
G36*
X68100000Y-61500000D02*
G01*
X68100000Y-61100000D01*
X68500000Y-61100000D01*
X68500000Y-61500000D01*
X68100000Y-61500000D01*
G37*
G36*
X68500000Y-61500000D02*
G01*
X68500000Y-61100000D01*
X68900000Y-61100000D01*
X68900000Y-61500000D01*
X68500000Y-61500000D01*
G37*
G36*
X69300000Y-61500000D02*
G01*
X69300000Y-61100000D01*
X69700000Y-61100000D01*
X69700000Y-61500000D01*
X69300000Y-61500000D01*
G37*
G36*
X69700000Y-61500000D02*
G01*
X69700000Y-61100000D01*
X70100000Y-61100000D01*
X70100000Y-61500000D01*
X69700000Y-61500000D01*
G37*
G36*
X71700000Y-61500000D02*
G01*
X71700000Y-61100000D01*
X72100000Y-61100000D01*
X72100000Y-61500000D01*
X71700000Y-61500000D01*
G37*
G36*
X72500000Y-61500000D02*
G01*
X72500000Y-61100000D01*
X72900000Y-61100000D01*
X72900000Y-61500000D01*
X72500000Y-61500000D01*
G37*
G36*
X73300000Y-61500000D02*
G01*
X73300000Y-61100000D01*
X73700000Y-61100000D01*
X73700000Y-61500000D01*
X73300000Y-61500000D01*
G37*
G36*
X73700000Y-61500000D02*
G01*
X73700000Y-61100000D01*
X74100000Y-61100000D01*
X74100000Y-61500000D01*
X73700000Y-61500000D01*
G37*
G36*
X74900000Y-61500000D02*
G01*
X74900000Y-61100000D01*
X75300000Y-61100000D01*
X75300000Y-61500000D01*
X74900000Y-61500000D01*
G37*
G36*
X75300000Y-61500000D02*
G01*
X75300000Y-61100000D01*
X75700000Y-61100000D01*
X75700000Y-61500000D01*
X75300000Y-61500000D01*
G37*
G36*
X76100000Y-61500000D02*
G01*
X76100000Y-61100000D01*
X76500000Y-61100000D01*
X76500000Y-61500000D01*
X76100000Y-61500000D01*
G37*
G36*
X78500000Y-61500000D02*
G01*
X78500000Y-61100000D01*
X78900000Y-61100000D01*
X78900000Y-61500000D01*
X78500000Y-61500000D01*
G37*
G36*
X78900000Y-61500000D02*
G01*
X78900000Y-61100000D01*
X79300000Y-61100000D01*
X79300000Y-61500000D01*
X78900000Y-61500000D01*
G37*
G36*
X79300000Y-61500000D02*
G01*
X79300000Y-61100000D01*
X79700000Y-61100000D01*
X79700000Y-61500000D01*
X79300000Y-61500000D01*
G37*
G36*
X79700000Y-61500000D02*
G01*
X79700000Y-61100000D01*
X80100000Y-61100000D01*
X80100000Y-61500000D01*
X79700000Y-61500000D01*
G37*
G36*
X80100000Y-61500000D02*
G01*
X80100000Y-61100000D01*
X80500000Y-61100000D01*
X80500000Y-61500000D01*
X80100000Y-61500000D01*
G37*
G36*
X80500000Y-61500000D02*
G01*
X80500000Y-61100000D01*
X80900000Y-61100000D01*
X80900000Y-61500000D01*
X80500000Y-61500000D01*
G37*
G36*
X80900000Y-61500000D02*
G01*
X80900000Y-61100000D01*
X81300000Y-61100000D01*
X81300000Y-61500000D01*
X80900000Y-61500000D01*
G37*
G36*
X66500000Y-61100000D02*
G01*
X66500000Y-60700000D01*
X66900000Y-60700000D01*
X66900000Y-61100000D01*
X66500000Y-61100000D01*
G37*
G36*
X66900000Y-61100000D02*
G01*
X66900000Y-60700000D01*
X67300000Y-60700000D01*
X67300000Y-61100000D01*
X66900000Y-61100000D01*
G37*
G36*
X67300000Y-61100000D02*
G01*
X67300000Y-60700000D01*
X67700000Y-60700000D01*
X67700000Y-61100000D01*
X67300000Y-61100000D01*
G37*
G36*
X68100000Y-61100000D02*
G01*
X68100000Y-60700000D01*
X68500000Y-60700000D01*
X68500000Y-61100000D01*
X68100000Y-61100000D01*
G37*
G36*
X68900000Y-61100000D02*
G01*
X68900000Y-60700000D01*
X69300000Y-60700000D01*
X69300000Y-61100000D01*
X68900000Y-61100000D01*
G37*
G36*
X70100000Y-61100000D02*
G01*
X70100000Y-60700000D01*
X70500000Y-60700000D01*
X70500000Y-61100000D01*
X70100000Y-61100000D01*
G37*
G36*
X70900000Y-61100000D02*
G01*
X70900000Y-60700000D01*
X71300000Y-60700000D01*
X71300000Y-61100000D01*
X70900000Y-61100000D01*
G37*
G36*
X71300000Y-61100000D02*
G01*
X71300000Y-60700000D01*
X71700000Y-60700000D01*
X71700000Y-61100000D01*
X71300000Y-61100000D01*
G37*
G36*
X71700000Y-61100000D02*
G01*
X71700000Y-60700000D01*
X72100000Y-60700000D01*
X72100000Y-61100000D01*
X71700000Y-61100000D01*
G37*
G36*
X73700000Y-61100000D02*
G01*
X73700000Y-60700000D01*
X74100000Y-60700000D01*
X74100000Y-61100000D01*
X73700000Y-61100000D01*
G37*
G36*
X74100000Y-61100000D02*
G01*
X74100000Y-60700000D01*
X74500000Y-60700000D01*
X74500000Y-61100000D01*
X74100000Y-61100000D01*
G37*
G36*
X74500000Y-61100000D02*
G01*
X74500000Y-60700000D01*
X74900000Y-60700000D01*
X74900000Y-61100000D01*
X74500000Y-61100000D01*
G37*
G36*
X75700000Y-61100000D02*
G01*
X75700000Y-60700000D01*
X76100000Y-60700000D01*
X76100000Y-61100000D01*
X75700000Y-61100000D01*
G37*
G36*
X77700000Y-61100000D02*
G01*
X77700000Y-60700000D01*
X78100000Y-60700000D01*
X78100000Y-61100000D01*
X77700000Y-61100000D01*
G37*
G36*
X78100000Y-61100000D02*
G01*
X78100000Y-60700000D01*
X78500000Y-60700000D01*
X78500000Y-61100000D01*
X78100000Y-61100000D01*
G37*
G36*
X79700000Y-61100000D02*
G01*
X79700000Y-60700000D01*
X80100000Y-60700000D01*
X80100000Y-61100000D01*
X79700000Y-61100000D01*
G37*
G36*
X80500000Y-61100000D02*
G01*
X80500000Y-60700000D01*
X80900000Y-60700000D01*
X80900000Y-61100000D01*
X80500000Y-61100000D01*
G37*
G36*
X80900000Y-61100000D02*
G01*
X80900000Y-60700000D01*
X81300000Y-60700000D01*
X81300000Y-61100000D01*
X80900000Y-61100000D01*
G37*
G36*
X66500000Y-60700000D02*
G01*
X66500000Y-60300000D01*
X66900000Y-60300000D01*
X66900000Y-60700000D01*
X66500000Y-60700000D01*
G37*
G36*
X66900000Y-60700000D02*
G01*
X66900000Y-60300000D01*
X67300000Y-60300000D01*
X67300000Y-60700000D01*
X66900000Y-60700000D01*
G37*
G36*
X67300000Y-60700000D02*
G01*
X67300000Y-60300000D01*
X67700000Y-60300000D01*
X67700000Y-60700000D01*
X67300000Y-60700000D01*
G37*
G36*
X67700000Y-60700000D02*
G01*
X67700000Y-60300000D01*
X68100000Y-60300000D01*
X68100000Y-60700000D01*
X67700000Y-60700000D01*
G37*
G36*
X68100000Y-60700000D02*
G01*
X68100000Y-60300000D01*
X68500000Y-60300000D01*
X68500000Y-60700000D01*
X68100000Y-60700000D01*
G37*
G36*
X69300000Y-60700000D02*
G01*
X69300000Y-60300000D01*
X69700000Y-60300000D01*
X69700000Y-60700000D01*
X69300000Y-60700000D01*
G37*
G36*
X70500000Y-60700000D02*
G01*
X70500000Y-60300000D01*
X70900000Y-60300000D01*
X70900000Y-60700000D01*
X70500000Y-60700000D01*
G37*
G36*
X70900000Y-60700000D02*
G01*
X70900000Y-60300000D01*
X71300000Y-60300000D01*
X71300000Y-60700000D01*
X70900000Y-60700000D01*
G37*
G36*
X71700000Y-60700000D02*
G01*
X71700000Y-60300000D01*
X72100000Y-60300000D01*
X72100000Y-60700000D01*
X71700000Y-60700000D01*
G37*
G36*
X72100000Y-60700000D02*
G01*
X72100000Y-60300000D01*
X72500000Y-60300000D01*
X72500000Y-60700000D01*
X72100000Y-60700000D01*
G37*
G36*
X72500000Y-60700000D02*
G01*
X72500000Y-60300000D01*
X72900000Y-60300000D01*
X72900000Y-60700000D01*
X72500000Y-60700000D01*
G37*
G36*
X72900000Y-60700000D02*
G01*
X72900000Y-60300000D01*
X73300000Y-60300000D01*
X73300000Y-60700000D01*
X72900000Y-60700000D01*
G37*
G36*
X73300000Y-60700000D02*
G01*
X73300000Y-60300000D01*
X73700000Y-60300000D01*
X73700000Y-60700000D01*
X73300000Y-60700000D01*
G37*
G36*
X74500000Y-60700000D02*
G01*
X74500000Y-60300000D01*
X74900000Y-60300000D01*
X74900000Y-60700000D01*
X74500000Y-60700000D01*
G37*
G36*
X74900000Y-60700000D02*
G01*
X74900000Y-60300000D01*
X75300000Y-60300000D01*
X75300000Y-60700000D01*
X74900000Y-60700000D01*
G37*
G36*
X75300000Y-60700000D02*
G01*
X75300000Y-60300000D01*
X75700000Y-60300000D01*
X75700000Y-60700000D01*
X75300000Y-60700000D01*
G37*
G36*
X75700000Y-60700000D02*
G01*
X75700000Y-60300000D01*
X76100000Y-60300000D01*
X76100000Y-60700000D01*
X75700000Y-60700000D01*
G37*
G36*
X76500000Y-60700000D02*
G01*
X76500000Y-60300000D01*
X76900000Y-60300000D01*
X76900000Y-60700000D01*
X76500000Y-60700000D01*
G37*
G36*
X76900000Y-60700000D02*
G01*
X76900000Y-60300000D01*
X77300000Y-60300000D01*
X77300000Y-60700000D01*
X76900000Y-60700000D01*
G37*
G36*
X78500000Y-60700000D02*
G01*
X78500000Y-60300000D01*
X78900000Y-60300000D01*
X78900000Y-60700000D01*
X78500000Y-60700000D01*
G37*
G36*
X79300000Y-60700000D02*
G01*
X79300000Y-60300000D01*
X79700000Y-60300000D01*
X79700000Y-60700000D01*
X79300000Y-60700000D01*
G37*
G36*
X79700000Y-60700000D02*
G01*
X79700000Y-60300000D01*
X80100000Y-60300000D01*
X80100000Y-60700000D01*
X79700000Y-60700000D01*
G37*
G36*
X80500000Y-60700000D02*
G01*
X80500000Y-60300000D01*
X80900000Y-60300000D01*
X80900000Y-60700000D01*
X80500000Y-60700000D01*
G37*
G36*
X80900000Y-60700000D02*
G01*
X80900000Y-60300000D01*
X81300000Y-60300000D01*
X81300000Y-60700000D01*
X80900000Y-60700000D01*
G37*
G36*
X66500000Y-60300000D02*
G01*
X66500000Y-59900000D01*
X66900000Y-59900000D01*
X66900000Y-60300000D01*
X66500000Y-60300000D01*
G37*
G36*
X66900000Y-60300000D02*
G01*
X66900000Y-59900000D01*
X67300000Y-59900000D01*
X67300000Y-60300000D01*
X66900000Y-60300000D01*
G37*
G36*
X68100000Y-60300000D02*
G01*
X68100000Y-59900000D01*
X68500000Y-59900000D01*
X68500000Y-60300000D01*
X68100000Y-60300000D01*
G37*
G36*
X68500000Y-60300000D02*
G01*
X68500000Y-59900000D01*
X68900000Y-59900000D01*
X68900000Y-60300000D01*
X68500000Y-60300000D01*
G37*
G36*
X68900000Y-60300000D02*
G01*
X68900000Y-59900000D01*
X69300000Y-59900000D01*
X69300000Y-60300000D01*
X68900000Y-60300000D01*
G37*
G36*
X69700000Y-60300000D02*
G01*
X69700000Y-59900000D01*
X70100000Y-59900000D01*
X70100000Y-60300000D01*
X69700000Y-60300000D01*
G37*
G36*
X71700000Y-60300000D02*
G01*
X71700000Y-59900000D01*
X72100000Y-59900000D01*
X72100000Y-60300000D01*
X71700000Y-60300000D01*
G37*
G36*
X72900000Y-60300000D02*
G01*
X72900000Y-59900000D01*
X73300000Y-59900000D01*
X73300000Y-60300000D01*
X72900000Y-60300000D01*
G37*
G36*
X73300000Y-60300000D02*
G01*
X73300000Y-59900000D01*
X73700000Y-59900000D01*
X73700000Y-60300000D01*
X73300000Y-60300000D01*
G37*
G36*
X73700000Y-60300000D02*
G01*
X73700000Y-59900000D01*
X74100000Y-59900000D01*
X74100000Y-60300000D01*
X73700000Y-60300000D01*
G37*
G36*
X74100000Y-60300000D02*
G01*
X74100000Y-59900000D01*
X74500000Y-59900000D01*
X74500000Y-60300000D01*
X74100000Y-60300000D01*
G37*
G36*
X74900000Y-60300000D02*
G01*
X74900000Y-59900000D01*
X75300000Y-59900000D01*
X75300000Y-60300000D01*
X74900000Y-60300000D01*
G37*
G36*
X75700000Y-60300000D02*
G01*
X75700000Y-59900000D01*
X76100000Y-59900000D01*
X76100000Y-60300000D01*
X75700000Y-60300000D01*
G37*
G36*
X76100000Y-60300000D02*
G01*
X76100000Y-59900000D01*
X76500000Y-59900000D01*
X76500000Y-60300000D01*
X76100000Y-60300000D01*
G37*
G36*
X76500000Y-60300000D02*
G01*
X76500000Y-59900000D01*
X76900000Y-59900000D01*
X76900000Y-60300000D01*
X76500000Y-60300000D01*
G37*
G36*
X76900000Y-60300000D02*
G01*
X76900000Y-59900000D01*
X77300000Y-59900000D01*
X77300000Y-60300000D01*
X76900000Y-60300000D01*
G37*
G36*
X77300000Y-60300000D02*
G01*
X77300000Y-59900000D01*
X77700000Y-59900000D01*
X77700000Y-60300000D01*
X77300000Y-60300000D01*
G37*
G36*
X77700000Y-60300000D02*
G01*
X77700000Y-59900000D01*
X78100000Y-59900000D01*
X78100000Y-60300000D01*
X77700000Y-60300000D01*
G37*
G36*
X78900000Y-60300000D02*
G01*
X78900000Y-59900000D01*
X79300000Y-59900000D01*
X79300000Y-60300000D01*
X78900000Y-60300000D01*
G37*
G36*
X79300000Y-60300000D02*
G01*
X79300000Y-59900000D01*
X79700000Y-59900000D01*
X79700000Y-60300000D01*
X79300000Y-60300000D01*
G37*
G36*
X80500000Y-60300000D02*
G01*
X80500000Y-59900000D01*
X80900000Y-59900000D01*
X80900000Y-60300000D01*
X80500000Y-60300000D01*
G37*
G36*
X80900000Y-60300000D02*
G01*
X80900000Y-59900000D01*
X81300000Y-59900000D01*
X81300000Y-60300000D01*
X80900000Y-60300000D01*
G37*
G36*
X66500000Y-59900000D02*
G01*
X66500000Y-59500000D01*
X66900000Y-59500000D01*
X66900000Y-59900000D01*
X66500000Y-59900000D01*
G37*
G36*
X66900000Y-59900000D02*
G01*
X66900000Y-59500000D01*
X67300000Y-59500000D01*
X67300000Y-59900000D01*
X66900000Y-59900000D01*
G37*
G36*
X67300000Y-59900000D02*
G01*
X67300000Y-59500000D01*
X67700000Y-59500000D01*
X67700000Y-59900000D01*
X67300000Y-59900000D01*
G37*
G36*
X68100000Y-59900000D02*
G01*
X68100000Y-59500000D01*
X68500000Y-59500000D01*
X68500000Y-59900000D01*
X68100000Y-59900000D01*
G37*
G36*
X68900000Y-59900000D02*
G01*
X68900000Y-59500000D01*
X69300000Y-59500000D01*
X69300000Y-59900000D01*
X68900000Y-59900000D01*
G37*
G36*
X69700000Y-59900000D02*
G01*
X69700000Y-59500000D01*
X70100000Y-59500000D01*
X70100000Y-59900000D01*
X69700000Y-59900000D01*
G37*
G36*
X70100000Y-59900000D02*
G01*
X70100000Y-59500000D01*
X70500000Y-59500000D01*
X70500000Y-59900000D01*
X70100000Y-59900000D01*
G37*
G36*
X70500000Y-59900000D02*
G01*
X70500000Y-59500000D01*
X70900000Y-59500000D01*
X70900000Y-59900000D01*
X70500000Y-59900000D01*
G37*
G36*
X71300000Y-59900000D02*
G01*
X71300000Y-59500000D01*
X71700000Y-59500000D01*
X71700000Y-59900000D01*
X71300000Y-59900000D01*
G37*
G36*
X71700000Y-59900000D02*
G01*
X71700000Y-59500000D01*
X72100000Y-59500000D01*
X72100000Y-59900000D01*
X71700000Y-59900000D01*
G37*
G36*
X72500000Y-59900000D02*
G01*
X72500000Y-59500000D01*
X72900000Y-59500000D01*
X72900000Y-59900000D01*
X72500000Y-59900000D01*
G37*
G36*
X73300000Y-59900000D02*
G01*
X73300000Y-59500000D01*
X73700000Y-59500000D01*
X73700000Y-59900000D01*
X73300000Y-59900000D01*
G37*
G36*
X75300000Y-59900000D02*
G01*
X75300000Y-59500000D01*
X75700000Y-59500000D01*
X75700000Y-59900000D01*
X75300000Y-59900000D01*
G37*
G36*
X75700000Y-59900000D02*
G01*
X75700000Y-59500000D01*
X76100000Y-59500000D01*
X76100000Y-59900000D01*
X75700000Y-59900000D01*
G37*
G36*
X77300000Y-59900000D02*
G01*
X77300000Y-59500000D01*
X77700000Y-59500000D01*
X77700000Y-59900000D01*
X77300000Y-59900000D01*
G37*
G36*
X79300000Y-59900000D02*
G01*
X79300000Y-59500000D01*
X79700000Y-59500000D01*
X79700000Y-59900000D01*
X79300000Y-59900000D01*
G37*
G36*
X80500000Y-59900000D02*
G01*
X80500000Y-59500000D01*
X80900000Y-59500000D01*
X80900000Y-59900000D01*
X80500000Y-59900000D01*
G37*
G36*
X80900000Y-59900000D02*
G01*
X80900000Y-59500000D01*
X81300000Y-59500000D01*
X81300000Y-59900000D01*
X80900000Y-59900000D01*
G37*
G36*
X66500000Y-59500000D02*
G01*
X66500000Y-59100000D01*
X66900000Y-59100000D01*
X66900000Y-59500000D01*
X66500000Y-59500000D01*
G37*
G36*
X66900000Y-59500000D02*
G01*
X66900000Y-59100000D01*
X67300000Y-59100000D01*
X67300000Y-59500000D01*
X66900000Y-59500000D01*
G37*
G36*
X67300000Y-59500000D02*
G01*
X67300000Y-59100000D01*
X67700000Y-59100000D01*
X67700000Y-59500000D01*
X67300000Y-59500000D01*
G37*
G36*
X67700000Y-59500000D02*
G01*
X67700000Y-59100000D01*
X68100000Y-59100000D01*
X68100000Y-59500000D01*
X67700000Y-59500000D01*
G37*
G36*
X68900000Y-59500000D02*
G01*
X68900000Y-59100000D01*
X69300000Y-59100000D01*
X69300000Y-59500000D01*
X68900000Y-59500000D01*
G37*
G36*
X69300000Y-59500000D02*
G01*
X69300000Y-59100000D01*
X69700000Y-59100000D01*
X69700000Y-59500000D01*
X69300000Y-59500000D01*
G37*
G36*
X69700000Y-59500000D02*
G01*
X69700000Y-59100000D01*
X70100000Y-59100000D01*
X70100000Y-59500000D01*
X69700000Y-59500000D01*
G37*
G36*
X70500000Y-59500000D02*
G01*
X70500000Y-59100000D01*
X70900000Y-59100000D01*
X70900000Y-59500000D01*
X70500000Y-59500000D01*
G37*
G36*
X71300000Y-59500000D02*
G01*
X71300000Y-59100000D01*
X71700000Y-59100000D01*
X71700000Y-59500000D01*
X71300000Y-59500000D01*
G37*
G36*
X72100000Y-59500000D02*
G01*
X72100000Y-59100000D01*
X72500000Y-59100000D01*
X72500000Y-59500000D01*
X72100000Y-59500000D01*
G37*
G36*
X74100000Y-59500000D02*
G01*
X74100000Y-59100000D01*
X74500000Y-59100000D01*
X74500000Y-59500000D01*
X74100000Y-59500000D01*
G37*
G36*
X74900000Y-59500000D02*
G01*
X74900000Y-59100000D01*
X75300000Y-59100000D01*
X75300000Y-59500000D01*
X74900000Y-59500000D01*
G37*
G36*
X75300000Y-59500000D02*
G01*
X75300000Y-59100000D01*
X75700000Y-59100000D01*
X75700000Y-59500000D01*
X75300000Y-59500000D01*
G37*
G36*
X76100000Y-59500000D02*
G01*
X76100000Y-59100000D01*
X76500000Y-59100000D01*
X76500000Y-59500000D01*
X76100000Y-59500000D01*
G37*
G36*
X76500000Y-59500000D02*
G01*
X76500000Y-59100000D01*
X76900000Y-59100000D01*
X76900000Y-59500000D01*
X76500000Y-59500000D01*
G37*
G36*
X76900000Y-59500000D02*
G01*
X76900000Y-59100000D01*
X77300000Y-59100000D01*
X77300000Y-59500000D01*
X76900000Y-59500000D01*
G37*
G36*
X77700000Y-59500000D02*
G01*
X77700000Y-59100000D01*
X78100000Y-59100000D01*
X78100000Y-59500000D01*
X77700000Y-59500000D01*
G37*
G36*
X78500000Y-59500000D02*
G01*
X78500000Y-59100000D01*
X78900000Y-59100000D01*
X78900000Y-59500000D01*
X78500000Y-59500000D01*
G37*
G36*
X78900000Y-59500000D02*
G01*
X78900000Y-59100000D01*
X79300000Y-59100000D01*
X79300000Y-59500000D01*
X78900000Y-59500000D01*
G37*
G36*
X80100000Y-59500000D02*
G01*
X80100000Y-59100000D01*
X80500000Y-59100000D01*
X80500000Y-59500000D01*
X80100000Y-59500000D01*
G37*
G36*
X80500000Y-59500000D02*
G01*
X80500000Y-59100000D01*
X80900000Y-59100000D01*
X80900000Y-59500000D01*
X80500000Y-59500000D01*
G37*
G36*
X80900000Y-59500000D02*
G01*
X80900000Y-59100000D01*
X81300000Y-59100000D01*
X81300000Y-59500000D01*
X80900000Y-59500000D01*
G37*
G36*
X66500000Y-59100000D02*
G01*
X66500000Y-58700000D01*
X66900000Y-58700000D01*
X66900000Y-59100000D01*
X66500000Y-59100000D01*
G37*
G36*
X66900000Y-59100000D02*
G01*
X66900000Y-58700000D01*
X67300000Y-58700000D01*
X67300000Y-59100000D01*
X66900000Y-59100000D01*
G37*
G36*
X67300000Y-59100000D02*
G01*
X67300000Y-58700000D01*
X67700000Y-58700000D01*
X67700000Y-59100000D01*
X67300000Y-59100000D01*
G37*
G36*
X68100000Y-59100000D02*
G01*
X68100000Y-58700000D01*
X68500000Y-58700000D01*
X68500000Y-59100000D01*
X68100000Y-59100000D01*
G37*
G36*
X68500000Y-59100000D02*
G01*
X68500000Y-58700000D01*
X68900000Y-58700000D01*
X68900000Y-59100000D01*
X68500000Y-59100000D01*
G37*
G36*
X69300000Y-59100000D02*
G01*
X69300000Y-58700000D01*
X69700000Y-58700000D01*
X69700000Y-59100000D01*
X69300000Y-59100000D01*
G37*
G36*
X70100000Y-59100000D02*
G01*
X70100000Y-58700000D01*
X70500000Y-58700000D01*
X70500000Y-59100000D01*
X70100000Y-59100000D01*
G37*
G36*
X72500000Y-59100000D02*
G01*
X72500000Y-58700000D01*
X72900000Y-58700000D01*
X72900000Y-59100000D01*
X72500000Y-59100000D01*
G37*
G36*
X72900000Y-59100000D02*
G01*
X72900000Y-58700000D01*
X73300000Y-58700000D01*
X73300000Y-59100000D01*
X72900000Y-59100000D01*
G37*
G36*
X73700000Y-59100000D02*
G01*
X73700000Y-58700000D01*
X74100000Y-58700000D01*
X74100000Y-59100000D01*
X73700000Y-59100000D01*
G37*
G36*
X74500000Y-59100000D02*
G01*
X74500000Y-58700000D01*
X74900000Y-58700000D01*
X74900000Y-59100000D01*
X74500000Y-59100000D01*
G37*
G36*
X75700000Y-59100000D02*
G01*
X75700000Y-58700000D01*
X76100000Y-58700000D01*
X76100000Y-59100000D01*
X75700000Y-59100000D01*
G37*
G36*
X76900000Y-59100000D02*
G01*
X76900000Y-58700000D01*
X77300000Y-58700000D01*
X77300000Y-59100000D01*
X76900000Y-59100000D01*
G37*
G36*
X78100000Y-59100000D02*
G01*
X78100000Y-58700000D01*
X78500000Y-58700000D01*
X78500000Y-59100000D01*
X78100000Y-59100000D01*
G37*
G36*
X79700000Y-59100000D02*
G01*
X79700000Y-58700000D01*
X80100000Y-58700000D01*
X80100000Y-59100000D01*
X79700000Y-59100000D01*
G37*
G36*
X80500000Y-59100000D02*
G01*
X80500000Y-58700000D01*
X80900000Y-58700000D01*
X80900000Y-59100000D01*
X80500000Y-59100000D01*
G37*
G36*
X80900000Y-59100000D02*
G01*
X80900000Y-58700000D01*
X81300000Y-58700000D01*
X81300000Y-59100000D01*
X80900000Y-59100000D01*
G37*
G36*
X66500000Y-58700000D02*
G01*
X66500000Y-58300000D01*
X66900000Y-58300000D01*
X66900000Y-58700000D01*
X66500000Y-58700000D01*
G37*
G36*
X66900000Y-58700000D02*
G01*
X66900000Y-58300000D01*
X67300000Y-58300000D01*
X67300000Y-58700000D01*
X66900000Y-58700000D01*
G37*
G36*
X67300000Y-58700000D02*
G01*
X67300000Y-58300000D01*
X67700000Y-58300000D01*
X67700000Y-58700000D01*
X67300000Y-58700000D01*
G37*
G36*
X67700000Y-58700000D02*
G01*
X67700000Y-58300000D01*
X68100000Y-58300000D01*
X68100000Y-58700000D01*
X67700000Y-58700000D01*
G37*
G36*
X68100000Y-58700000D02*
G01*
X68100000Y-58300000D01*
X68500000Y-58300000D01*
X68500000Y-58700000D01*
X68100000Y-58700000D01*
G37*
G36*
X68500000Y-58700000D02*
G01*
X68500000Y-58300000D01*
X68900000Y-58300000D01*
X68900000Y-58700000D01*
X68500000Y-58700000D01*
G37*
G36*
X68900000Y-58700000D02*
G01*
X68900000Y-58300000D01*
X69300000Y-58300000D01*
X69300000Y-58700000D01*
X68900000Y-58700000D01*
G37*
G36*
X69300000Y-58700000D02*
G01*
X69300000Y-58300000D01*
X69700000Y-58300000D01*
X69700000Y-58700000D01*
X69300000Y-58700000D01*
G37*
G36*
X70900000Y-58700000D02*
G01*
X70900000Y-58300000D01*
X71300000Y-58300000D01*
X71300000Y-58700000D01*
X70900000Y-58700000D01*
G37*
G36*
X73700000Y-58700000D02*
G01*
X73700000Y-58300000D01*
X74100000Y-58300000D01*
X74100000Y-58700000D01*
X73700000Y-58700000D01*
G37*
G36*
X74100000Y-58700000D02*
G01*
X74100000Y-58300000D01*
X74500000Y-58300000D01*
X74500000Y-58700000D01*
X74100000Y-58700000D01*
G37*
G36*
X74500000Y-58700000D02*
G01*
X74500000Y-58300000D01*
X74900000Y-58300000D01*
X74900000Y-58700000D01*
X74500000Y-58700000D01*
G37*
G36*
X75300000Y-58700000D02*
G01*
X75300000Y-58300000D01*
X75700000Y-58300000D01*
X75700000Y-58700000D01*
X75300000Y-58700000D01*
G37*
G36*
X75700000Y-58700000D02*
G01*
X75700000Y-58300000D01*
X76100000Y-58300000D01*
X76100000Y-58700000D01*
X75700000Y-58700000D01*
G37*
G36*
X76500000Y-58700000D02*
G01*
X76500000Y-58300000D01*
X76900000Y-58300000D01*
X76900000Y-58700000D01*
X76500000Y-58700000D01*
G37*
G36*
X77300000Y-58700000D02*
G01*
X77300000Y-58300000D01*
X77700000Y-58300000D01*
X77700000Y-58700000D01*
X77300000Y-58700000D01*
G37*
G36*
X77700000Y-58700000D02*
G01*
X77700000Y-58300000D01*
X78100000Y-58300000D01*
X78100000Y-58700000D01*
X77700000Y-58700000D01*
G37*
G36*
X79700000Y-58700000D02*
G01*
X79700000Y-58300000D01*
X80100000Y-58300000D01*
X80100000Y-58700000D01*
X79700000Y-58700000D01*
G37*
G36*
X80100000Y-58700000D02*
G01*
X80100000Y-58300000D01*
X80500000Y-58300000D01*
X80500000Y-58700000D01*
X80100000Y-58700000D01*
G37*
G36*
X80500000Y-58700000D02*
G01*
X80500000Y-58300000D01*
X80900000Y-58300000D01*
X80900000Y-58700000D01*
X80500000Y-58700000D01*
G37*
G36*
X80900000Y-58700000D02*
G01*
X80900000Y-58300000D01*
X81300000Y-58300000D01*
X81300000Y-58700000D01*
X80900000Y-58700000D01*
G37*
G36*
X66500000Y-58300000D02*
G01*
X66500000Y-57900000D01*
X66900000Y-57900000D01*
X66900000Y-58300000D01*
X66500000Y-58300000D01*
G37*
G36*
X66900000Y-58300000D02*
G01*
X66900000Y-57900000D01*
X67300000Y-57900000D01*
X67300000Y-58300000D01*
X66900000Y-58300000D01*
G37*
G36*
X67300000Y-58300000D02*
G01*
X67300000Y-57900000D01*
X67700000Y-57900000D01*
X67700000Y-58300000D01*
X67300000Y-58300000D01*
G37*
G36*
X68500000Y-58300000D02*
G01*
X68500000Y-57900000D01*
X68900000Y-57900000D01*
X68900000Y-58300000D01*
X68500000Y-58300000D01*
G37*
G36*
X68900000Y-58300000D02*
G01*
X68900000Y-57900000D01*
X69300000Y-57900000D01*
X69300000Y-58300000D01*
X68900000Y-58300000D01*
G37*
G36*
X70500000Y-58300000D02*
G01*
X70500000Y-57900000D01*
X70900000Y-57900000D01*
X70900000Y-58300000D01*
X70500000Y-58300000D01*
G37*
G36*
X70900000Y-58300000D02*
G01*
X70900000Y-57900000D01*
X71300000Y-57900000D01*
X71300000Y-58300000D01*
X70900000Y-58300000D01*
G37*
G36*
X71300000Y-58300000D02*
G01*
X71300000Y-57900000D01*
X71700000Y-57900000D01*
X71700000Y-58300000D01*
X71300000Y-58300000D01*
G37*
G36*
X71700000Y-58300000D02*
G01*
X71700000Y-57900000D01*
X72100000Y-57900000D01*
X72100000Y-58300000D01*
X71700000Y-58300000D01*
G37*
G36*
X72100000Y-58300000D02*
G01*
X72100000Y-57900000D01*
X72500000Y-57900000D01*
X72500000Y-58300000D01*
X72100000Y-58300000D01*
G37*
G36*
X72900000Y-58300000D02*
G01*
X72900000Y-57900000D01*
X73300000Y-57900000D01*
X73300000Y-58300000D01*
X72900000Y-58300000D01*
G37*
G36*
X73300000Y-58300000D02*
G01*
X73300000Y-57900000D01*
X73700000Y-57900000D01*
X73700000Y-58300000D01*
X73300000Y-58300000D01*
G37*
G36*
X74100000Y-58300000D02*
G01*
X74100000Y-57900000D01*
X74500000Y-57900000D01*
X74500000Y-58300000D01*
X74100000Y-58300000D01*
G37*
G36*
X76100000Y-58300000D02*
G01*
X76100000Y-57900000D01*
X76500000Y-57900000D01*
X76500000Y-58300000D01*
X76100000Y-58300000D01*
G37*
G36*
X76500000Y-58300000D02*
G01*
X76500000Y-57900000D01*
X76900000Y-57900000D01*
X76900000Y-58300000D01*
X76500000Y-58300000D01*
G37*
G36*
X76900000Y-58300000D02*
G01*
X76900000Y-57900000D01*
X77300000Y-57900000D01*
X77300000Y-58300000D01*
X76900000Y-58300000D01*
G37*
G36*
X78500000Y-58300000D02*
G01*
X78500000Y-57900000D01*
X78900000Y-57900000D01*
X78900000Y-58300000D01*
X78500000Y-58300000D01*
G37*
G36*
X78900000Y-58300000D02*
G01*
X78900000Y-57900000D01*
X79300000Y-57900000D01*
X79300000Y-58300000D01*
X78900000Y-58300000D01*
G37*
G36*
X79300000Y-58300000D02*
G01*
X79300000Y-57900000D01*
X79700000Y-57900000D01*
X79700000Y-58300000D01*
X79300000Y-58300000D01*
G37*
G36*
X79700000Y-58300000D02*
G01*
X79700000Y-57900000D01*
X80100000Y-57900000D01*
X80100000Y-58300000D01*
X79700000Y-58300000D01*
G37*
G36*
X80100000Y-58300000D02*
G01*
X80100000Y-57900000D01*
X80500000Y-57900000D01*
X80500000Y-58300000D01*
X80100000Y-58300000D01*
G37*
G36*
X80500000Y-58300000D02*
G01*
X80500000Y-57900000D01*
X80900000Y-57900000D01*
X80900000Y-58300000D01*
X80500000Y-58300000D01*
G37*
G36*
X80900000Y-58300000D02*
G01*
X80900000Y-57900000D01*
X81300000Y-57900000D01*
X81300000Y-58300000D01*
X80900000Y-58300000D01*
G37*
G36*
X66500000Y-57900000D02*
G01*
X66500000Y-57500000D01*
X66900000Y-57500000D01*
X66900000Y-57900000D01*
X66500000Y-57900000D01*
G37*
G36*
X66900000Y-57900000D02*
G01*
X66900000Y-57500000D01*
X67300000Y-57500000D01*
X67300000Y-57900000D01*
X66900000Y-57900000D01*
G37*
G36*
X67300000Y-57900000D02*
G01*
X67300000Y-57500000D01*
X67700000Y-57500000D01*
X67700000Y-57900000D01*
X67300000Y-57900000D01*
G37*
G36*
X67700000Y-57900000D02*
G01*
X67700000Y-57500000D01*
X68100000Y-57500000D01*
X68100000Y-57900000D01*
X67700000Y-57900000D01*
G37*
G36*
X68900000Y-57900000D02*
G01*
X68900000Y-57500000D01*
X69300000Y-57500000D01*
X69300000Y-57900000D01*
X68900000Y-57900000D01*
G37*
G36*
X69300000Y-57900000D02*
G01*
X69300000Y-57500000D01*
X69700000Y-57500000D01*
X69700000Y-57900000D01*
X69300000Y-57900000D01*
G37*
G36*
X70500000Y-57900000D02*
G01*
X70500000Y-57500000D01*
X70900000Y-57500000D01*
X70900000Y-57900000D01*
X70500000Y-57900000D01*
G37*
G36*
X70900000Y-57900000D02*
G01*
X70900000Y-57500000D01*
X71300000Y-57500000D01*
X71300000Y-57900000D01*
X70900000Y-57900000D01*
G37*
G36*
X72100000Y-57900000D02*
G01*
X72100000Y-57500000D01*
X72500000Y-57500000D01*
X72500000Y-57900000D01*
X72100000Y-57900000D01*
G37*
G36*
X72900000Y-57900000D02*
G01*
X72900000Y-57500000D01*
X73300000Y-57500000D01*
X73300000Y-57900000D01*
X72900000Y-57900000D01*
G37*
G36*
X74100000Y-57900000D02*
G01*
X74100000Y-57500000D01*
X74500000Y-57500000D01*
X74500000Y-57900000D01*
X74100000Y-57900000D01*
G37*
G36*
X74500000Y-57900000D02*
G01*
X74500000Y-57500000D01*
X74900000Y-57500000D01*
X74900000Y-57900000D01*
X74500000Y-57900000D01*
G37*
G36*
X74900000Y-57900000D02*
G01*
X74900000Y-57500000D01*
X75300000Y-57500000D01*
X75300000Y-57900000D01*
X74900000Y-57900000D01*
G37*
G36*
X76100000Y-57900000D02*
G01*
X76100000Y-57500000D01*
X76500000Y-57500000D01*
X76500000Y-57900000D01*
X76100000Y-57900000D01*
G37*
G36*
X76500000Y-57900000D02*
G01*
X76500000Y-57500000D01*
X76900000Y-57500000D01*
X76900000Y-57900000D01*
X76500000Y-57900000D01*
G37*
G36*
X76900000Y-57900000D02*
G01*
X76900000Y-57500000D01*
X77300000Y-57500000D01*
X77300000Y-57900000D01*
X76900000Y-57900000D01*
G37*
G36*
X77700000Y-57900000D02*
G01*
X77700000Y-57500000D01*
X78100000Y-57500000D01*
X78100000Y-57900000D01*
X77700000Y-57900000D01*
G37*
G36*
X78900000Y-57900000D02*
G01*
X78900000Y-57500000D01*
X79300000Y-57500000D01*
X79300000Y-57900000D01*
X78900000Y-57900000D01*
G37*
G36*
X79700000Y-57900000D02*
G01*
X79700000Y-57500000D01*
X80100000Y-57500000D01*
X80100000Y-57900000D01*
X79700000Y-57900000D01*
G37*
G36*
X80100000Y-57900000D02*
G01*
X80100000Y-57500000D01*
X80500000Y-57500000D01*
X80500000Y-57900000D01*
X80100000Y-57900000D01*
G37*
G36*
X80500000Y-57900000D02*
G01*
X80500000Y-57500000D01*
X80900000Y-57500000D01*
X80900000Y-57900000D01*
X80500000Y-57900000D01*
G37*
G36*
X80900000Y-57900000D02*
G01*
X80900000Y-57500000D01*
X81300000Y-57500000D01*
X81300000Y-57900000D01*
X80900000Y-57900000D01*
G37*
G36*
X66500000Y-57500000D02*
G01*
X66500000Y-57100000D01*
X66900000Y-57100000D01*
X66900000Y-57500000D01*
X66500000Y-57500000D01*
G37*
G36*
X66900000Y-57500000D02*
G01*
X66900000Y-57100000D01*
X67300000Y-57100000D01*
X67300000Y-57500000D01*
X66900000Y-57500000D01*
G37*
G36*
X68100000Y-57500000D02*
G01*
X68100000Y-57100000D01*
X68500000Y-57100000D01*
X68500000Y-57500000D01*
X68100000Y-57500000D01*
G37*
G36*
X68900000Y-57500000D02*
G01*
X68900000Y-57100000D01*
X69300000Y-57100000D01*
X69300000Y-57500000D01*
X68900000Y-57500000D01*
G37*
G36*
X69300000Y-57500000D02*
G01*
X69300000Y-57100000D01*
X69700000Y-57100000D01*
X69700000Y-57500000D01*
X69300000Y-57500000D01*
G37*
G36*
X69700000Y-57500000D02*
G01*
X69700000Y-57100000D01*
X70100000Y-57100000D01*
X70100000Y-57500000D01*
X69700000Y-57500000D01*
G37*
G36*
X70100000Y-57500000D02*
G01*
X70100000Y-57100000D01*
X70500000Y-57100000D01*
X70500000Y-57500000D01*
X70100000Y-57500000D01*
G37*
G36*
X71300000Y-57500000D02*
G01*
X71300000Y-57100000D01*
X71700000Y-57100000D01*
X71700000Y-57500000D01*
X71300000Y-57500000D01*
G37*
G36*
X71700000Y-57500000D02*
G01*
X71700000Y-57100000D01*
X72100000Y-57100000D01*
X72100000Y-57500000D01*
X71700000Y-57500000D01*
G37*
G36*
X72500000Y-57500000D02*
G01*
X72500000Y-57100000D01*
X72900000Y-57100000D01*
X72900000Y-57500000D01*
X72500000Y-57500000D01*
G37*
G36*
X73300000Y-57500000D02*
G01*
X73300000Y-57100000D01*
X73700000Y-57100000D01*
X73700000Y-57500000D01*
X73300000Y-57500000D01*
G37*
G36*
X73700000Y-57500000D02*
G01*
X73700000Y-57100000D01*
X74100000Y-57100000D01*
X74100000Y-57500000D01*
X73700000Y-57500000D01*
G37*
G36*
X74100000Y-57500000D02*
G01*
X74100000Y-57100000D01*
X74500000Y-57100000D01*
X74500000Y-57500000D01*
X74100000Y-57500000D01*
G37*
G36*
X75700000Y-57500000D02*
G01*
X75700000Y-57100000D01*
X76100000Y-57100000D01*
X76100000Y-57500000D01*
X75700000Y-57500000D01*
G37*
G36*
X76100000Y-57500000D02*
G01*
X76100000Y-57100000D01*
X76500000Y-57100000D01*
X76500000Y-57500000D01*
X76100000Y-57500000D01*
G37*
G36*
X77300000Y-57500000D02*
G01*
X77300000Y-57100000D01*
X77700000Y-57100000D01*
X77700000Y-57500000D01*
X77300000Y-57500000D01*
G37*
G36*
X78100000Y-57500000D02*
G01*
X78100000Y-57100000D01*
X78500000Y-57100000D01*
X78500000Y-57500000D01*
X78100000Y-57500000D01*
G37*
G36*
X78900000Y-57500000D02*
G01*
X78900000Y-57100000D01*
X79300000Y-57100000D01*
X79300000Y-57500000D01*
X78900000Y-57500000D01*
G37*
G36*
X80100000Y-57500000D02*
G01*
X80100000Y-57100000D01*
X80500000Y-57100000D01*
X80500000Y-57500000D01*
X80100000Y-57500000D01*
G37*
G36*
X80500000Y-57500000D02*
G01*
X80500000Y-57100000D01*
X80900000Y-57100000D01*
X80900000Y-57500000D01*
X80500000Y-57500000D01*
G37*
G36*
X80900000Y-57500000D02*
G01*
X80900000Y-57100000D01*
X81300000Y-57100000D01*
X81300000Y-57500000D01*
X80900000Y-57500000D01*
G37*
G36*
X66500000Y-57100000D02*
G01*
X66500000Y-56700000D01*
X66900000Y-56700000D01*
X66900000Y-57100000D01*
X66500000Y-57100000D01*
G37*
G36*
X66900000Y-57100000D02*
G01*
X66900000Y-56700000D01*
X67300000Y-56700000D01*
X67300000Y-57100000D01*
X66900000Y-57100000D01*
G37*
G36*
X67300000Y-57100000D02*
G01*
X67300000Y-56700000D01*
X67700000Y-56700000D01*
X67700000Y-57100000D01*
X67300000Y-57100000D01*
G37*
G36*
X67700000Y-57100000D02*
G01*
X67700000Y-56700000D01*
X68100000Y-56700000D01*
X68100000Y-57100000D01*
X67700000Y-57100000D01*
G37*
G36*
X68100000Y-57100000D02*
G01*
X68100000Y-56700000D01*
X68500000Y-56700000D01*
X68500000Y-57100000D01*
X68100000Y-57100000D01*
G37*
G36*
X68500000Y-57100000D02*
G01*
X68500000Y-56700000D01*
X68900000Y-56700000D01*
X68900000Y-57100000D01*
X68500000Y-57100000D01*
G37*
G36*
X68900000Y-57100000D02*
G01*
X68900000Y-56700000D01*
X69300000Y-56700000D01*
X69300000Y-57100000D01*
X68900000Y-57100000D01*
G37*
G36*
X69300000Y-57100000D02*
G01*
X69300000Y-56700000D01*
X69700000Y-56700000D01*
X69700000Y-57100000D01*
X69300000Y-57100000D01*
G37*
G36*
X70100000Y-57100000D02*
G01*
X70100000Y-56700000D01*
X70500000Y-56700000D01*
X70500000Y-57100000D01*
X70100000Y-57100000D01*
G37*
G36*
X70500000Y-57100000D02*
G01*
X70500000Y-56700000D01*
X70900000Y-56700000D01*
X70900000Y-57100000D01*
X70500000Y-57100000D01*
G37*
G36*
X71300000Y-57100000D02*
G01*
X71300000Y-56700000D01*
X71700000Y-56700000D01*
X71700000Y-57100000D01*
X71300000Y-57100000D01*
G37*
G36*
X72100000Y-57100000D02*
G01*
X72100000Y-56700000D01*
X72500000Y-56700000D01*
X72500000Y-57100000D01*
X72100000Y-57100000D01*
G37*
G36*
X72500000Y-57100000D02*
G01*
X72500000Y-56700000D01*
X72900000Y-56700000D01*
X72900000Y-57100000D01*
X72500000Y-57100000D01*
G37*
G36*
X74100000Y-57100000D02*
G01*
X74100000Y-56700000D01*
X74500000Y-56700000D01*
X74500000Y-57100000D01*
X74100000Y-57100000D01*
G37*
G36*
X74900000Y-57100000D02*
G01*
X74900000Y-56700000D01*
X75300000Y-56700000D01*
X75300000Y-57100000D01*
X74900000Y-57100000D01*
G37*
G36*
X75700000Y-57100000D02*
G01*
X75700000Y-56700000D01*
X76100000Y-56700000D01*
X76100000Y-57100000D01*
X75700000Y-57100000D01*
G37*
G36*
X77300000Y-57100000D02*
G01*
X77300000Y-56700000D01*
X77700000Y-56700000D01*
X77700000Y-57100000D01*
X77300000Y-57100000D01*
G37*
G36*
X77700000Y-57100000D02*
G01*
X77700000Y-56700000D01*
X78100000Y-56700000D01*
X78100000Y-57100000D01*
X77700000Y-57100000D01*
G37*
G36*
X78100000Y-57100000D02*
G01*
X78100000Y-56700000D01*
X78500000Y-56700000D01*
X78500000Y-57100000D01*
X78100000Y-57100000D01*
G37*
G36*
X78900000Y-57100000D02*
G01*
X78900000Y-56700000D01*
X79300000Y-56700000D01*
X79300000Y-57100000D01*
X78900000Y-57100000D01*
G37*
G36*
X79300000Y-57100000D02*
G01*
X79300000Y-56700000D01*
X79700000Y-56700000D01*
X79700000Y-57100000D01*
X79300000Y-57100000D01*
G37*
G36*
X80500000Y-57100000D02*
G01*
X80500000Y-56700000D01*
X80900000Y-56700000D01*
X80900000Y-57100000D01*
X80500000Y-57100000D01*
G37*
G36*
X80900000Y-57100000D02*
G01*
X80900000Y-56700000D01*
X81300000Y-56700000D01*
X81300000Y-57100000D01*
X80900000Y-57100000D01*
G37*
G36*
X66500000Y-56700000D02*
G01*
X66500000Y-56300000D01*
X66900000Y-56300000D01*
X66900000Y-56700000D01*
X66500000Y-56700000D01*
G37*
G36*
X66900000Y-56700000D02*
G01*
X66900000Y-56300000D01*
X67300000Y-56300000D01*
X67300000Y-56700000D01*
X66900000Y-56700000D01*
G37*
G36*
X67300000Y-56700000D02*
G01*
X67300000Y-56300000D01*
X67700000Y-56300000D01*
X67700000Y-56700000D01*
X67300000Y-56700000D01*
G37*
G36*
X68100000Y-56700000D02*
G01*
X68100000Y-56300000D01*
X68500000Y-56300000D01*
X68500000Y-56700000D01*
X68100000Y-56700000D01*
G37*
G36*
X68900000Y-56700000D02*
G01*
X68900000Y-56300000D01*
X69300000Y-56300000D01*
X69300000Y-56700000D01*
X68900000Y-56700000D01*
G37*
G36*
X69300000Y-56700000D02*
G01*
X69300000Y-56300000D01*
X69700000Y-56300000D01*
X69700000Y-56700000D01*
X69300000Y-56700000D01*
G37*
G36*
X70500000Y-56700000D02*
G01*
X70500000Y-56300000D01*
X70900000Y-56300000D01*
X70900000Y-56700000D01*
X70500000Y-56700000D01*
G37*
G36*
X72100000Y-56700000D02*
G01*
X72100000Y-56300000D01*
X72500000Y-56300000D01*
X72500000Y-56700000D01*
X72100000Y-56700000D01*
G37*
G36*
X72500000Y-56700000D02*
G01*
X72500000Y-56300000D01*
X72900000Y-56300000D01*
X72900000Y-56700000D01*
X72500000Y-56700000D01*
G37*
G36*
X72900000Y-56700000D02*
G01*
X72900000Y-56300000D01*
X73300000Y-56300000D01*
X73300000Y-56700000D01*
X72900000Y-56700000D01*
G37*
G36*
X74500000Y-56700000D02*
G01*
X74500000Y-56300000D01*
X74900000Y-56300000D01*
X74900000Y-56700000D01*
X74500000Y-56700000D01*
G37*
G36*
X74900000Y-56700000D02*
G01*
X74900000Y-56300000D01*
X75300000Y-56300000D01*
X75300000Y-56700000D01*
X74900000Y-56700000D01*
G37*
G36*
X76100000Y-56700000D02*
G01*
X76100000Y-56300000D01*
X76500000Y-56300000D01*
X76500000Y-56700000D01*
X76100000Y-56700000D01*
G37*
G36*
X76900000Y-56700000D02*
G01*
X76900000Y-56300000D01*
X77300000Y-56300000D01*
X77300000Y-56700000D01*
X76900000Y-56700000D01*
G37*
G36*
X78100000Y-56700000D02*
G01*
X78100000Y-56300000D01*
X78500000Y-56300000D01*
X78500000Y-56700000D01*
X78100000Y-56700000D01*
G37*
G36*
X79300000Y-56700000D02*
G01*
X79300000Y-56300000D01*
X79700000Y-56300000D01*
X79700000Y-56700000D01*
X79300000Y-56700000D01*
G37*
G36*
X79700000Y-56700000D02*
G01*
X79700000Y-56300000D01*
X80100000Y-56300000D01*
X80100000Y-56700000D01*
X79700000Y-56700000D01*
G37*
G36*
X80100000Y-56700000D02*
G01*
X80100000Y-56300000D01*
X80500000Y-56300000D01*
X80500000Y-56700000D01*
X80100000Y-56700000D01*
G37*
G36*
X80500000Y-56700000D02*
G01*
X80500000Y-56300000D01*
X80900000Y-56300000D01*
X80900000Y-56700000D01*
X80500000Y-56700000D01*
G37*
G36*
X80900000Y-56700000D02*
G01*
X80900000Y-56300000D01*
X81300000Y-56300000D01*
X81300000Y-56700000D01*
X80900000Y-56700000D01*
G37*
G36*
X66500000Y-56300000D02*
G01*
X66500000Y-55900000D01*
X66900000Y-55900000D01*
X66900000Y-56300000D01*
X66500000Y-56300000D01*
G37*
G36*
X66900000Y-56300000D02*
G01*
X66900000Y-55900000D01*
X67300000Y-55900000D01*
X67300000Y-56300000D01*
X66900000Y-56300000D01*
G37*
G36*
X67300000Y-56300000D02*
G01*
X67300000Y-55900000D01*
X67700000Y-55900000D01*
X67700000Y-56300000D01*
X67300000Y-56300000D01*
G37*
G36*
X67700000Y-56300000D02*
G01*
X67700000Y-55900000D01*
X68100000Y-55900000D01*
X68100000Y-56300000D01*
X67700000Y-56300000D01*
G37*
G36*
X68900000Y-56300000D02*
G01*
X68900000Y-55900000D01*
X69300000Y-55900000D01*
X69300000Y-56300000D01*
X68900000Y-56300000D01*
G37*
G36*
X69300000Y-56300000D02*
G01*
X69300000Y-55900000D01*
X69700000Y-55900000D01*
X69700000Y-56300000D01*
X69300000Y-56300000D01*
G37*
G36*
X69700000Y-56300000D02*
G01*
X69700000Y-55900000D01*
X70100000Y-55900000D01*
X70100000Y-56300000D01*
X69700000Y-56300000D01*
G37*
G36*
X70500000Y-56300000D02*
G01*
X70500000Y-55900000D01*
X70900000Y-55900000D01*
X70900000Y-56300000D01*
X70500000Y-56300000D01*
G37*
G36*
X71300000Y-56300000D02*
G01*
X71300000Y-55900000D01*
X71700000Y-55900000D01*
X71700000Y-56300000D01*
X71300000Y-56300000D01*
G37*
G36*
X71700000Y-56300000D02*
G01*
X71700000Y-55900000D01*
X72100000Y-55900000D01*
X72100000Y-56300000D01*
X71700000Y-56300000D01*
G37*
G36*
X72100000Y-56300000D02*
G01*
X72100000Y-55900000D01*
X72500000Y-55900000D01*
X72500000Y-56300000D01*
X72100000Y-56300000D01*
G37*
G36*
X72500000Y-56300000D02*
G01*
X72500000Y-55900000D01*
X72900000Y-55900000D01*
X72900000Y-56300000D01*
X72500000Y-56300000D01*
G37*
G36*
X73300000Y-56300000D02*
G01*
X73300000Y-55900000D01*
X73700000Y-55900000D01*
X73700000Y-56300000D01*
X73300000Y-56300000D01*
G37*
G36*
X75300000Y-56300000D02*
G01*
X75300000Y-55900000D01*
X75700000Y-55900000D01*
X75700000Y-56300000D01*
X75300000Y-56300000D01*
G37*
G36*
X76100000Y-56300000D02*
G01*
X76100000Y-55900000D01*
X76500000Y-55900000D01*
X76500000Y-56300000D01*
X76100000Y-56300000D01*
G37*
G36*
X76900000Y-56300000D02*
G01*
X76900000Y-55900000D01*
X77300000Y-55900000D01*
X77300000Y-56300000D01*
X76900000Y-56300000D01*
G37*
G36*
X77700000Y-56300000D02*
G01*
X77700000Y-55900000D01*
X78100000Y-55900000D01*
X78100000Y-56300000D01*
X77700000Y-56300000D01*
G37*
G36*
X78900000Y-56300000D02*
G01*
X78900000Y-55900000D01*
X79300000Y-55900000D01*
X79300000Y-56300000D01*
X78900000Y-56300000D01*
G37*
G36*
X79700000Y-56300000D02*
G01*
X79700000Y-55900000D01*
X80100000Y-55900000D01*
X80100000Y-56300000D01*
X79700000Y-56300000D01*
G37*
G36*
X80100000Y-56300000D02*
G01*
X80100000Y-55900000D01*
X80500000Y-55900000D01*
X80500000Y-56300000D01*
X80100000Y-56300000D01*
G37*
G36*
X80500000Y-56300000D02*
G01*
X80500000Y-55900000D01*
X80900000Y-55900000D01*
X80900000Y-56300000D01*
X80500000Y-56300000D01*
G37*
G36*
X80900000Y-56300000D02*
G01*
X80900000Y-55900000D01*
X81300000Y-55900000D01*
X81300000Y-56300000D01*
X80900000Y-56300000D01*
G37*
G36*
X66500000Y-55900000D02*
G01*
X66500000Y-55500000D01*
X66900000Y-55500000D01*
X66900000Y-55900000D01*
X66500000Y-55900000D01*
G37*
G36*
X66900000Y-55900000D02*
G01*
X66900000Y-55500000D01*
X67300000Y-55500000D01*
X67300000Y-55900000D01*
X66900000Y-55900000D01*
G37*
G36*
X67700000Y-55900000D02*
G01*
X67700000Y-55500000D01*
X68100000Y-55500000D01*
X68100000Y-55900000D01*
X67700000Y-55900000D01*
G37*
G36*
X68100000Y-55900000D02*
G01*
X68100000Y-55500000D01*
X68500000Y-55500000D01*
X68500000Y-55900000D01*
X68100000Y-55900000D01*
G37*
G36*
X70500000Y-55900000D02*
G01*
X70500000Y-55500000D01*
X70900000Y-55500000D01*
X70900000Y-55900000D01*
X70500000Y-55900000D01*
G37*
G36*
X70900000Y-55900000D02*
G01*
X70900000Y-55500000D01*
X71300000Y-55500000D01*
X71300000Y-55900000D01*
X70900000Y-55900000D01*
G37*
G36*
X71300000Y-55900000D02*
G01*
X71300000Y-55500000D01*
X71700000Y-55500000D01*
X71700000Y-55900000D01*
X71300000Y-55900000D01*
G37*
G36*
X72900000Y-55900000D02*
G01*
X72900000Y-55500000D01*
X73300000Y-55500000D01*
X73300000Y-55900000D01*
X72900000Y-55900000D01*
G37*
G36*
X73700000Y-55900000D02*
G01*
X73700000Y-55500000D01*
X74100000Y-55500000D01*
X74100000Y-55900000D01*
X73700000Y-55900000D01*
G37*
G36*
X74100000Y-55900000D02*
G01*
X74100000Y-55500000D01*
X74500000Y-55500000D01*
X74500000Y-55900000D01*
X74100000Y-55900000D01*
G37*
G36*
X74500000Y-55900000D02*
G01*
X74500000Y-55500000D01*
X74900000Y-55500000D01*
X74900000Y-55900000D01*
X74500000Y-55900000D01*
G37*
G36*
X74900000Y-55900000D02*
G01*
X74900000Y-55500000D01*
X75300000Y-55500000D01*
X75300000Y-55900000D01*
X74900000Y-55900000D01*
G37*
G36*
X75700000Y-55900000D02*
G01*
X75700000Y-55500000D01*
X76100000Y-55500000D01*
X76100000Y-55900000D01*
X75700000Y-55900000D01*
G37*
G36*
X76100000Y-55900000D02*
G01*
X76100000Y-55500000D01*
X76500000Y-55500000D01*
X76500000Y-55900000D01*
X76100000Y-55900000D01*
G37*
G36*
X78100000Y-55900000D02*
G01*
X78100000Y-55500000D01*
X78500000Y-55500000D01*
X78500000Y-55900000D01*
X78100000Y-55900000D01*
G37*
G36*
X78900000Y-55900000D02*
G01*
X78900000Y-55500000D01*
X79300000Y-55500000D01*
X79300000Y-55900000D01*
X78900000Y-55900000D01*
G37*
G36*
X79300000Y-55900000D02*
G01*
X79300000Y-55500000D01*
X79700000Y-55500000D01*
X79700000Y-55900000D01*
X79300000Y-55900000D01*
G37*
G36*
X79700000Y-55900000D02*
G01*
X79700000Y-55500000D01*
X80100000Y-55500000D01*
X80100000Y-55900000D01*
X79700000Y-55900000D01*
G37*
G36*
X80500000Y-55900000D02*
G01*
X80500000Y-55500000D01*
X80900000Y-55500000D01*
X80900000Y-55900000D01*
X80500000Y-55900000D01*
G37*
G36*
X80900000Y-55900000D02*
G01*
X80900000Y-55500000D01*
X81300000Y-55500000D01*
X81300000Y-55900000D01*
X80900000Y-55900000D01*
G37*
G36*
X66500000Y-55500000D02*
G01*
X66500000Y-55100000D01*
X66900000Y-55100000D01*
X66900000Y-55500000D01*
X66500000Y-55500000D01*
G37*
G36*
X66900000Y-55500000D02*
G01*
X66900000Y-55100000D01*
X67300000Y-55100000D01*
X67300000Y-55500000D01*
X66900000Y-55500000D01*
G37*
G36*
X67300000Y-55500000D02*
G01*
X67300000Y-55100000D01*
X67700000Y-55100000D01*
X67700000Y-55500000D01*
X67300000Y-55500000D01*
G37*
G36*
X67700000Y-55500000D02*
G01*
X67700000Y-55100000D01*
X68100000Y-55100000D01*
X68100000Y-55500000D01*
X67700000Y-55500000D01*
G37*
G36*
X68100000Y-55500000D02*
G01*
X68100000Y-55100000D01*
X68500000Y-55100000D01*
X68500000Y-55500000D01*
X68100000Y-55500000D01*
G37*
G36*
X68500000Y-55500000D02*
G01*
X68500000Y-55100000D01*
X68900000Y-55100000D01*
X68900000Y-55500000D01*
X68500000Y-55500000D01*
G37*
G36*
X68900000Y-55500000D02*
G01*
X68900000Y-55100000D01*
X69300000Y-55100000D01*
X69300000Y-55500000D01*
X68900000Y-55500000D01*
G37*
G36*
X69300000Y-55500000D02*
G01*
X69300000Y-55100000D01*
X69700000Y-55100000D01*
X69700000Y-55500000D01*
X69300000Y-55500000D01*
G37*
G36*
X69700000Y-55500000D02*
G01*
X69700000Y-55100000D01*
X70100000Y-55100000D01*
X70100000Y-55500000D01*
X69700000Y-55500000D01*
G37*
G36*
X70100000Y-55500000D02*
G01*
X70100000Y-55100000D01*
X70500000Y-55100000D01*
X70500000Y-55500000D01*
X70100000Y-55500000D01*
G37*
G36*
X70500000Y-55500000D02*
G01*
X70500000Y-55100000D01*
X70900000Y-55100000D01*
X70900000Y-55500000D01*
X70500000Y-55500000D01*
G37*
G36*
X72100000Y-55500000D02*
G01*
X72100000Y-55100000D01*
X72500000Y-55100000D01*
X72500000Y-55500000D01*
X72100000Y-55500000D01*
G37*
G36*
X72500000Y-55500000D02*
G01*
X72500000Y-55100000D01*
X72900000Y-55100000D01*
X72900000Y-55500000D01*
X72500000Y-55500000D01*
G37*
G36*
X72900000Y-55500000D02*
G01*
X72900000Y-55100000D01*
X73300000Y-55100000D01*
X73300000Y-55500000D01*
X72900000Y-55500000D01*
G37*
G36*
X74500000Y-55500000D02*
G01*
X74500000Y-55100000D01*
X74900000Y-55100000D01*
X74900000Y-55500000D01*
X74500000Y-55500000D01*
G37*
G36*
X74900000Y-55500000D02*
G01*
X74900000Y-55100000D01*
X75300000Y-55100000D01*
X75300000Y-55500000D01*
X74900000Y-55500000D01*
G37*
G36*
X75700000Y-55500000D02*
G01*
X75700000Y-55100000D01*
X76100000Y-55100000D01*
X76100000Y-55500000D01*
X75700000Y-55500000D01*
G37*
G36*
X76100000Y-55500000D02*
G01*
X76100000Y-55100000D01*
X76500000Y-55100000D01*
X76500000Y-55500000D01*
X76100000Y-55500000D01*
G37*
G36*
X77300000Y-55500000D02*
G01*
X77300000Y-55100000D01*
X77700000Y-55100000D01*
X77700000Y-55500000D01*
X77300000Y-55500000D01*
G37*
G36*
X77700000Y-55500000D02*
G01*
X77700000Y-55100000D01*
X78100000Y-55100000D01*
X78100000Y-55500000D01*
X77700000Y-55500000D01*
G37*
G36*
X78100000Y-55500000D02*
G01*
X78100000Y-55100000D01*
X78500000Y-55100000D01*
X78500000Y-55500000D01*
X78100000Y-55500000D01*
G37*
G36*
X78500000Y-55500000D02*
G01*
X78500000Y-55100000D01*
X78900000Y-55100000D01*
X78900000Y-55500000D01*
X78500000Y-55500000D01*
G37*
G36*
X78900000Y-55500000D02*
G01*
X78900000Y-55100000D01*
X79300000Y-55100000D01*
X79300000Y-55500000D01*
X78900000Y-55500000D01*
G37*
G36*
X79300000Y-55500000D02*
G01*
X79300000Y-55100000D01*
X79700000Y-55100000D01*
X79700000Y-55500000D01*
X79300000Y-55500000D01*
G37*
G36*
X79700000Y-55500000D02*
G01*
X79700000Y-55100000D01*
X80100000Y-55100000D01*
X80100000Y-55500000D01*
X79700000Y-55500000D01*
G37*
G36*
X80100000Y-55500000D02*
G01*
X80100000Y-55100000D01*
X80500000Y-55100000D01*
X80500000Y-55500000D01*
X80100000Y-55500000D01*
G37*
G36*
X80500000Y-55500000D02*
G01*
X80500000Y-55100000D01*
X80900000Y-55100000D01*
X80900000Y-55500000D01*
X80500000Y-55500000D01*
G37*
G36*
X80900000Y-55500000D02*
G01*
X80900000Y-55100000D01*
X81300000Y-55100000D01*
X81300000Y-55500000D01*
X80900000Y-55500000D01*
G37*
G36*
X66500000Y-55100000D02*
G01*
X66500000Y-54700000D01*
X66900000Y-54700000D01*
X66900000Y-55100000D01*
X66500000Y-55100000D01*
G37*
G36*
X66900000Y-55100000D02*
G01*
X66900000Y-54700000D01*
X67300000Y-54700000D01*
X67300000Y-55100000D01*
X66900000Y-55100000D01*
G37*
G36*
X70100000Y-55100000D02*
G01*
X70100000Y-54700000D01*
X70500000Y-54700000D01*
X70500000Y-55100000D01*
X70100000Y-55100000D01*
G37*
G36*
X70900000Y-55100000D02*
G01*
X70900000Y-54700000D01*
X71300000Y-54700000D01*
X71300000Y-55100000D01*
X70900000Y-55100000D01*
G37*
G36*
X71700000Y-55100000D02*
G01*
X71700000Y-54700000D01*
X72100000Y-54700000D01*
X72100000Y-55100000D01*
X71700000Y-55100000D01*
G37*
G36*
X72500000Y-55100000D02*
G01*
X72500000Y-54700000D01*
X72900000Y-54700000D01*
X72900000Y-55100000D01*
X72500000Y-55100000D01*
G37*
G36*
X73300000Y-55100000D02*
G01*
X73300000Y-54700000D01*
X73700000Y-54700000D01*
X73700000Y-55100000D01*
X73300000Y-55100000D01*
G37*
G36*
X74100000Y-55100000D02*
G01*
X74100000Y-54700000D01*
X74500000Y-54700000D01*
X74500000Y-55100000D01*
X74100000Y-55100000D01*
G37*
G36*
X74900000Y-55100000D02*
G01*
X74900000Y-54700000D01*
X75300000Y-54700000D01*
X75300000Y-55100000D01*
X74900000Y-55100000D01*
G37*
G36*
X75700000Y-55100000D02*
G01*
X75700000Y-54700000D01*
X76100000Y-54700000D01*
X76100000Y-55100000D01*
X75700000Y-55100000D01*
G37*
G36*
X76500000Y-55100000D02*
G01*
X76500000Y-54700000D01*
X76900000Y-54700000D01*
X76900000Y-55100000D01*
X76500000Y-55100000D01*
G37*
G36*
X77300000Y-55100000D02*
G01*
X77300000Y-54700000D01*
X77700000Y-54700000D01*
X77700000Y-55100000D01*
X77300000Y-55100000D01*
G37*
G36*
X80500000Y-55100000D02*
G01*
X80500000Y-54700000D01*
X80900000Y-54700000D01*
X80900000Y-55100000D01*
X80500000Y-55100000D01*
G37*
G36*
X80900000Y-55100000D02*
G01*
X80900000Y-54700000D01*
X81300000Y-54700000D01*
X81300000Y-55100000D01*
X80900000Y-55100000D01*
G37*
G36*
X66500000Y-54700000D02*
G01*
X66500000Y-54300000D01*
X66900000Y-54300000D01*
X66900000Y-54700000D01*
X66500000Y-54700000D01*
G37*
G36*
X66900000Y-54700000D02*
G01*
X66900000Y-54300000D01*
X67300000Y-54300000D01*
X67300000Y-54700000D01*
X66900000Y-54700000D01*
G37*
G36*
X67700000Y-54700000D02*
G01*
X67700000Y-54300000D01*
X68100000Y-54300000D01*
X68100000Y-54700000D01*
X67700000Y-54700000D01*
G37*
G36*
X68100000Y-54700000D02*
G01*
X68100000Y-54300000D01*
X68500000Y-54300000D01*
X68500000Y-54700000D01*
X68100000Y-54700000D01*
G37*
G36*
X68500000Y-54700000D02*
G01*
X68500000Y-54300000D01*
X68900000Y-54300000D01*
X68900000Y-54700000D01*
X68500000Y-54700000D01*
G37*
G36*
X68900000Y-54700000D02*
G01*
X68900000Y-54300000D01*
X69300000Y-54300000D01*
X69300000Y-54700000D01*
X68900000Y-54700000D01*
G37*
G36*
X69300000Y-54700000D02*
G01*
X69300000Y-54300000D01*
X69700000Y-54300000D01*
X69700000Y-54700000D01*
X69300000Y-54700000D01*
G37*
G36*
X70100000Y-54700000D02*
G01*
X70100000Y-54300000D01*
X70500000Y-54300000D01*
X70500000Y-54700000D01*
X70100000Y-54700000D01*
G37*
G36*
X70500000Y-54700000D02*
G01*
X70500000Y-54300000D01*
X70900000Y-54300000D01*
X70900000Y-54700000D01*
X70500000Y-54700000D01*
G37*
G36*
X70900000Y-54700000D02*
G01*
X70900000Y-54300000D01*
X71300000Y-54300000D01*
X71300000Y-54700000D01*
X70900000Y-54700000D01*
G37*
G36*
X71300000Y-54700000D02*
G01*
X71300000Y-54300000D01*
X71700000Y-54300000D01*
X71700000Y-54700000D01*
X71300000Y-54700000D01*
G37*
G36*
X72100000Y-54700000D02*
G01*
X72100000Y-54300000D01*
X72500000Y-54300000D01*
X72500000Y-54700000D01*
X72100000Y-54700000D01*
G37*
G36*
X74100000Y-54700000D02*
G01*
X74100000Y-54300000D01*
X74500000Y-54300000D01*
X74500000Y-54700000D01*
X74100000Y-54700000D01*
G37*
G36*
X74500000Y-54700000D02*
G01*
X74500000Y-54300000D01*
X74900000Y-54300000D01*
X74900000Y-54700000D01*
X74500000Y-54700000D01*
G37*
G36*
X75300000Y-54700000D02*
G01*
X75300000Y-54300000D01*
X75700000Y-54300000D01*
X75700000Y-54700000D01*
X75300000Y-54700000D01*
G37*
G36*
X76500000Y-54700000D02*
G01*
X76500000Y-54300000D01*
X76900000Y-54300000D01*
X76900000Y-54700000D01*
X76500000Y-54700000D01*
G37*
G36*
X77300000Y-54700000D02*
G01*
X77300000Y-54300000D01*
X77700000Y-54300000D01*
X77700000Y-54700000D01*
X77300000Y-54700000D01*
G37*
G36*
X78100000Y-54700000D02*
G01*
X78100000Y-54300000D01*
X78500000Y-54300000D01*
X78500000Y-54700000D01*
X78100000Y-54700000D01*
G37*
G36*
X78500000Y-54700000D02*
G01*
X78500000Y-54300000D01*
X78900000Y-54300000D01*
X78900000Y-54700000D01*
X78500000Y-54700000D01*
G37*
G36*
X78900000Y-54700000D02*
G01*
X78900000Y-54300000D01*
X79300000Y-54300000D01*
X79300000Y-54700000D01*
X78900000Y-54700000D01*
G37*
G36*
X79300000Y-54700000D02*
G01*
X79300000Y-54300000D01*
X79700000Y-54300000D01*
X79700000Y-54700000D01*
X79300000Y-54700000D01*
G37*
G36*
X79700000Y-54700000D02*
G01*
X79700000Y-54300000D01*
X80100000Y-54300000D01*
X80100000Y-54700000D01*
X79700000Y-54700000D01*
G37*
G36*
X80500000Y-54700000D02*
G01*
X80500000Y-54300000D01*
X80900000Y-54300000D01*
X80900000Y-54700000D01*
X80500000Y-54700000D01*
G37*
G36*
X80900000Y-54700000D02*
G01*
X80900000Y-54300000D01*
X81300000Y-54300000D01*
X81300000Y-54700000D01*
X80900000Y-54700000D01*
G37*
G36*
X66500000Y-54300000D02*
G01*
X66500000Y-53900000D01*
X66900000Y-53900000D01*
X66900000Y-54300000D01*
X66500000Y-54300000D01*
G37*
G36*
X66900000Y-54300000D02*
G01*
X66900000Y-53900000D01*
X67300000Y-53900000D01*
X67300000Y-54300000D01*
X66900000Y-54300000D01*
G37*
G36*
X67700000Y-54300000D02*
G01*
X67700000Y-53900000D01*
X68100000Y-53900000D01*
X68100000Y-54300000D01*
X67700000Y-54300000D01*
G37*
G36*
X69300000Y-54300000D02*
G01*
X69300000Y-53900000D01*
X69700000Y-53900000D01*
X69700000Y-54300000D01*
X69300000Y-54300000D01*
G37*
G36*
X70100000Y-54300000D02*
G01*
X70100000Y-53900000D01*
X70500000Y-53900000D01*
X70500000Y-54300000D01*
X70100000Y-54300000D01*
G37*
G36*
X70900000Y-54300000D02*
G01*
X70900000Y-53900000D01*
X71300000Y-53900000D01*
X71300000Y-54300000D01*
X70900000Y-54300000D01*
G37*
G36*
X71300000Y-54300000D02*
G01*
X71300000Y-53900000D01*
X71700000Y-53900000D01*
X71700000Y-54300000D01*
X71300000Y-54300000D01*
G37*
G36*
X71700000Y-54300000D02*
G01*
X71700000Y-53900000D01*
X72100000Y-53900000D01*
X72100000Y-54300000D01*
X71700000Y-54300000D01*
G37*
G36*
X73300000Y-54300000D02*
G01*
X73300000Y-53900000D01*
X73700000Y-53900000D01*
X73700000Y-54300000D01*
X73300000Y-54300000D01*
G37*
G36*
X73700000Y-54300000D02*
G01*
X73700000Y-53900000D01*
X74100000Y-53900000D01*
X74100000Y-54300000D01*
X73700000Y-54300000D01*
G37*
G36*
X74100000Y-54300000D02*
G01*
X74100000Y-53900000D01*
X74500000Y-53900000D01*
X74500000Y-54300000D01*
X74100000Y-54300000D01*
G37*
G36*
X76100000Y-54300000D02*
G01*
X76100000Y-53900000D01*
X76500000Y-53900000D01*
X76500000Y-54300000D01*
X76100000Y-54300000D01*
G37*
G36*
X76500000Y-54300000D02*
G01*
X76500000Y-53900000D01*
X76900000Y-53900000D01*
X76900000Y-54300000D01*
X76500000Y-54300000D01*
G37*
G36*
X77300000Y-54300000D02*
G01*
X77300000Y-53900000D01*
X77700000Y-53900000D01*
X77700000Y-54300000D01*
X77300000Y-54300000D01*
G37*
G36*
X78100000Y-54300000D02*
G01*
X78100000Y-53900000D01*
X78500000Y-53900000D01*
X78500000Y-54300000D01*
X78100000Y-54300000D01*
G37*
G36*
X79700000Y-54300000D02*
G01*
X79700000Y-53900000D01*
X80100000Y-53900000D01*
X80100000Y-54300000D01*
X79700000Y-54300000D01*
G37*
G36*
X80500000Y-54300000D02*
G01*
X80500000Y-53900000D01*
X80900000Y-53900000D01*
X80900000Y-54300000D01*
X80500000Y-54300000D01*
G37*
G36*
X80900000Y-54300000D02*
G01*
X80900000Y-53900000D01*
X81300000Y-53900000D01*
X81300000Y-54300000D01*
X80900000Y-54300000D01*
G37*
G36*
X66500000Y-53900000D02*
G01*
X66500000Y-53500000D01*
X66900000Y-53500000D01*
X66900000Y-53900000D01*
X66500000Y-53900000D01*
G37*
G36*
X66900000Y-53900000D02*
G01*
X66900000Y-53500000D01*
X67300000Y-53500000D01*
X67300000Y-53900000D01*
X66900000Y-53900000D01*
G37*
G36*
X67700000Y-53900000D02*
G01*
X67700000Y-53500000D01*
X68100000Y-53500000D01*
X68100000Y-53900000D01*
X67700000Y-53900000D01*
G37*
G36*
X69300000Y-53900000D02*
G01*
X69300000Y-53500000D01*
X69700000Y-53500000D01*
X69700000Y-53900000D01*
X69300000Y-53900000D01*
G37*
G36*
X70100000Y-53900000D02*
G01*
X70100000Y-53500000D01*
X70500000Y-53500000D01*
X70500000Y-53900000D01*
X70100000Y-53900000D01*
G37*
G36*
X71300000Y-53900000D02*
G01*
X71300000Y-53500000D01*
X71700000Y-53500000D01*
X71700000Y-53900000D01*
X71300000Y-53900000D01*
G37*
G36*
X72500000Y-53900000D02*
G01*
X72500000Y-53500000D01*
X72900000Y-53500000D01*
X72900000Y-53900000D01*
X72500000Y-53900000D01*
G37*
G36*
X73700000Y-53900000D02*
G01*
X73700000Y-53500000D01*
X74100000Y-53500000D01*
X74100000Y-53900000D01*
X73700000Y-53900000D01*
G37*
G36*
X74900000Y-53900000D02*
G01*
X74900000Y-53500000D01*
X75300000Y-53500000D01*
X75300000Y-53900000D01*
X74900000Y-53900000D01*
G37*
G36*
X75300000Y-53900000D02*
G01*
X75300000Y-53500000D01*
X75700000Y-53500000D01*
X75700000Y-53900000D01*
X75300000Y-53900000D01*
G37*
G36*
X75700000Y-53900000D02*
G01*
X75700000Y-53500000D01*
X76100000Y-53500000D01*
X76100000Y-53900000D01*
X75700000Y-53900000D01*
G37*
G36*
X77300000Y-53900000D02*
G01*
X77300000Y-53500000D01*
X77700000Y-53500000D01*
X77700000Y-53900000D01*
X77300000Y-53900000D01*
G37*
G36*
X78100000Y-53900000D02*
G01*
X78100000Y-53500000D01*
X78500000Y-53500000D01*
X78500000Y-53900000D01*
X78100000Y-53900000D01*
G37*
G36*
X79700000Y-53900000D02*
G01*
X79700000Y-53500000D01*
X80100000Y-53500000D01*
X80100000Y-53900000D01*
X79700000Y-53900000D01*
G37*
G36*
X80500000Y-53900000D02*
G01*
X80500000Y-53500000D01*
X80900000Y-53500000D01*
X80900000Y-53900000D01*
X80500000Y-53900000D01*
G37*
G36*
X80900000Y-53900000D02*
G01*
X80900000Y-53500000D01*
X81300000Y-53500000D01*
X81300000Y-53900000D01*
X80900000Y-53900000D01*
G37*
G36*
X66500000Y-53500000D02*
G01*
X66500000Y-53100000D01*
X66900000Y-53100000D01*
X66900000Y-53500000D01*
X66500000Y-53500000D01*
G37*
G36*
X66900000Y-53500000D02*
G01*
X66900000Y-53100000D01*
X67300000Y-53100000D01*
X67300000Y-53500000D01*
X66900000Y-53500000D01*
G37*
G36*
X67700000Y-53500000D02*
G01*
X67700000Y-53100000D01*
X68100000Y-53100000D01*
X68100000Y-53500000D01*
X67700000Y-53500000D01*
G37*
G36*
X69300000Y-53500000D02*
G01*
X69300000Y-53100000D01*
X69700000Y-53100000D01*
X69700000Y-53500000D01*
X69300000Y-53500000D01*
G37*
G36*
X70100000Y-53500000D02*
G01*
X70100000Y-53100000D01*
X70500000Y-53100000D01*
X70500000Y-53500000D01*
X70100000Y-53500000D01*
G37*
G36*
X71700000Y-53500000D02*
G01*
X71700000Y-53100000D01*
X72100000Y-53100000D01*
X72100000Y-53500000D01*
X71700000Y-53500000D01*
G37*
G36*
X72100000Y-53500000D02*
G01*
X72100000Y-53100000D01*
X72500000Y-53100000D01*
X72500000Y-53500000D01*
X72100000Y-53500000D01*
G37*
G36*
X72500000Y-53500000D02*
G01*
X72500000Y-53100000D01*
X72900000Y-53100000D01*
X72900000Y-53500000D01*
X72500000Y-53500000D01*
G37*
G36*
X72900000Y-53500000D02*
G01*
X72900000Y-53100000D01*
X73300000Y-53100000D01*
X73300000Y-53500000D01*
X72900000Y-53500000D01*
G37*
G36*
X73300000Y-53500000D02*
G01*
X73300000Y-53100000D01*
X73700000Y-53100000D01*
X73700000Y-53500000D01*
X73300000Y-53500000D01*
G37*
G36*
X74500000Y-53500000D02*
G01*
X74500000Y-53100000D01*
X74900000Y-53100000D01*
X74900000Y-53500000D01*
X74500000Y-53500000D01*
G37*
G36*
X75300000Y-53500000D02*
G01*
X75300000Y-53100000D01*
X75700000Y-53100000D01*
X75700000Y-53500000D01*
X75300000Y-53500000D01*
G37*
G36*
X75700000Y-53500000D02*
G01*
X75700000Y-53100000D01*
X76100000Y-53100000D01*
X76100000Y-53500000D01*
X75700000Y-53500000D01*
G37*
G36*
X76100000Y-53500000D02*
G01*
X76100000Y-53100000D01*
X76500000Y-53100000D01*
X76500000Y-53500000D01*
X76100000Y-53500000D01*
G37*
G36*
X76900000Y-53500000D02*
G01*
X76900000Y-53100000D01*
X77300000Y-53100000D01*
X77300000Y-53500000D01*
X76900000Y-53500000D01*
G37*
G36*
X77300000Y-53500000D02*
G01*
X77300000Y-53100000D01*
X77700000Y-53100000D01*
X77700000Y-53500000D01*
X77300000Y-53500000D01*
G37*
G36*
X78100000Y-53500000D02*
G01*
X78100000Y-53100000D01*
X78500000Y-53100000D01*
X78500000Y-53500000D01*
X78100000Y-53500000D01*
G37*
G36*
X79700000Y-53500000D02*
G01*
X79700000Y-53100000D01*
X80100000Y-53100000D01*
X80100000Y-53500000D01*
X79700000Y-53500000D01*
G37*
G36*
X80500000Y-53500000D02*
G01*
X80500000Y-53100000D01*
X80900000Y-53100000D01*
X80900000Y-53500000D01*
X80500000Y-53500000D01*
G37*
G36*
X80900000Y-53500000D02*
G01*
X80900000Y-53100000D01*
X81300000Y-53100000D01*
X81300000Y-53500000D01*
X80900000Y-53500000D01*
G37*
G36*
X66500000Y-53100000D02*
G01*
X66500000Y-52700000D01*
X66900000Y-52700000D01*
X66900000Y-53100000D01*
X66500000Y-53100000D01*
G37*
G36*
X66900000Y-53100000D02*
G01*
X66900000Y-52700000D01*
X67300000Y-52700000D01*
X67300000Y-53100000D01*
X66900000Y-53100000D01*
G37*
G36*
X67700000Y-53100000D02*
G01*
X67700000Y-52700000D01*
X68100000Y-52700000D01*
X68100000Y-53100000D01*
X67700000Y-53100000D01*
G37*
G36*
X68100000Y-53100000D02*
G01*
X68100000Y-52700000D01*
X68500000Y-52700000D01*
X68500000Y-53100000D01*
X68100000Y-53100000D01*
G37*
G36*
X68500000Y-53100000D02*
G01*
X68500000Y-52700000D01*
X68900000Y-52700000D01*
X68900000Y-53100000D01*
X68500000Y-53100000D01*
G37*
G36*
X68900000Y-53100000D02*
G01*
X68900000Y-52700000D01*
X69300000Y-52700000D01*
X69300000Y-53100000D01*
X68900000Y-53100000D01*
G37*
G36*
X69300000Y-53100000D02*
G01*
X69300000Y-52700000D01*
X69700000Y-52700000D01*
X69700000Y-53100000D01*
X69300000Y-53100000D01*
G37*
G36*
X70100000Y-53100000D02*
G01*
X70100000Y-52700000D01*
X70500000Y-52700000D01*
X70500000Y-53100000D01*
X70100000Y-53100000D01*
G37*
G36*
X70500000Y-53100000D02*
G01*
X70500000Y-52700000D01*
X70900000Y-52700000D01*
X70900000Y-53100000D01*
X70500000Y-53100000D01*
G37*
G36*
X70900000Y-53100000D02*
G01*
X70900000Y-52700000D01*
X71300000Y-52700000D01*
X71300000Y-53100000D01*
X70900000Y-53100000D01*
G37*
G36*
X72100000Y-53100000D02*
G01*
X72100000Y-52700000D01*
X72500000Y-52700000D01*
X72500000Y-53100000D01*
X72100000Y-53100000D01*
G37*
G36*
X72900000Y-53100000D02*
G01*
X72900000Y-52700000D01*
X73300000Y-52700000D01*
X73300000Y-53100000D01*
X72900000Y-53100000D01*
G37*
G36*
X74100000Y-53100000D02*
G01*
X74100000Y-52700000D01*
X74500000Y-52700000D01*
X74500000Y-53100000D01*
X74100000Y-53100000D01*
G37*
G36*
X74500000Y-53100000D02*
G01*
X74500000Y-52700000D01*
X74900000Y-52700000D01*
X74900000Y-53100000D01*
X74500000Y-53100000D01*
G37*
G36*
X74900000Y-53100000D02*
G01*
X74900000Y-52700000D01*
X75300000Y-52700000D01*
X75300000Y-53100000D01*
X74900000Y-53100000D01*
G37*
G36*
X76100000Y-53100000D02*
G01*
X76100000Y-52700000D01*
X76500000Y-52700000D01*
X76500000Y-53100000D01*
X76100000Y-53100000D01*
G37*
G36*
X76900000Y-53100000D02*
G01*
X76900000Y-52700000D01*
X77300000Y-52700000D01*
X77300000Y-53100000D01*
X76900000Y-53100000D01*
G37*
G36*
X77300000Y-53100000D02*
G01*
X77300000Y-52700000D01*
X77700000Y-52700000D01*
X77700000Y-53100000D01*
X77300000Y-53100000D01*
G37*
G36*
X78100000Y-53100000D02*
G01*
X78100000Y-52700000D01*
X78500000Y-52700000D01*
X78500000Y-53100000D01*
X78100000Y-53100000D01*
G37*
G36*
X78500000Y-53100000D02*
G01*
X78500000Y-52700000D01*
X78900000Y-52700000D01*
X78900000Y-53100000D01*
X78500000Y-53100000D01*
G37*
G36*
X78900000Y-53100000D02*
G01*
X78900000Y-52700000D01*
X79300000Y-52700000D01*
X79300000Y-53100000D01*
X78900000Y-53100000D01*
G37*
G36*
X79300000Y-53100000D02*
G01*
X79300000Y-52700000D01*
X79700000Y-52700000D01*
X79700000Y-53100000D01*
X79300000Y-53100000D01*
G37*
G36*
X79700000Y-53100000D02*
G01*
X79700000Y-52700000D01*
X80100000Y-52700000D01*
X80100000Y-53100000D01*
X79700000Y-53100000D01*
G37*
G36*
X80500000Y-53100000D02*
G01*
X80500000Y-52700000D01*
X80900000Y-52700000D01*
X80900000Y-53100000D01*
X80500000Y-53100000D01*
G37*
G36*
X80900000Y-53100000D02*
G01*
X80900000Y-52700000D01*
X81300000Y-52700000D01*
X81300000Y-53100000D01*
X80900000Y-53100000D01*
G37*
G36*
X66500000Y-52700000D02*
G01*
X66500000Y-52300000D01*
X66900000Y-52300000D01*
X66900000Y-52700000D01*
X66500000Y-52700000D01*
G37*
G36*
X66900000Y-52700000D02*
G01*
X66900000Y-52300000D01*
X67300000Y-52300000D01*
X67300000Y-52700000D01*
X66900000Y-52700000D01*
G37*
G36*
X70100000Y-52700000D02*
G01*
X70100000Y-52300000D01*
X70500000Y-52300000D01*
X70500000Y-52700000D01*
X70100000Y-52700000D01*
G37*
G36*
X70500000Y-52700000D02*
G01*
X70500000Y-52300000D01*
X70900000Y-52300000D01*
X70900000Y-52700000D01*
X70500000Y-52700000D01*
G37*
G36*
X71300000Y-52700000D02*
G01*
X71300000Y-52300000D01*
X71700000Y-52300000D01*
X71700000Y-52700000D01*
X71300000Y-52700000D01*
G37*
G36*
X72100000Y-52700000D02*
G01*
X72100000Y-52300000D01*
X72500000Y-52300000D01*
X72500000Y-52700000D01*
X72100000Y-52700000D01*
G37*
G36*
X72500000Y-52700000D02*
G01*
X72500000Y-52300000D01*
X72900000Y-52300000D01*
X72900000Y-52700000D01*
X72500000Y-52700000D01*
G37*
G36*
X72900000Y-52700000D02*
G01*
X72900000Y-52300000D01*
X73300000Y-52300000D01*
X73300000Y-52700000D01*
X72900000Y-52700000D01*
G37*
G36*
X74900000Y-52700000D02*
G01*
X74900000Y-52300000D01*
X75300000Y-52300000D01*
X75300000Y-52700000D01*
X74900000Y-52700000D01*
G37*
G36*
X75300000Y-52700000D02*
G01*
X75300000Y-52300000D01*
X75700000Y-52300000D01*
X75700000Y-52700000D01*
X75300000Y-52700000D01*
G37*
G36*
X75700000Y-52700000D02*
G01*
X75700000Y-52300000D01*
X76100000Y-52300000D01*
X76100000Y-52700000D01*
X75700000Y-52700000D01*
G37*
G36*
X76500000Y-52700000D02*
G01*
X76500000Y-52300000D01*
X76900000Y-52300000D01*
X76900000Y-52700000D01*
X76500000Y-52700000D01*
G37*
G36*
X77300000Y-52700000D02*
G01*
X77300000Y-52300000D01*
X77700000Y-52300000D01*
X77700000Y-52700000D01*
X77300000Y-52700000D01*
G37*
G36*
X80500000Y-52700000D02*
G01*
X80500000Y-52300000D01*
X80900000Y-52300000D01*
X80900000Y-52700000D01*
X80500000Y-52700000D01*
G37*
G36*
X80900000Y-52700000D02*
G01*
X80900000Y-52300000D01*
X81300000Y-52300000D01*
X81300000Y-52700000D01*
X80900000Y-52700000D01*
G37*
G36*
X66500000Y-52300000D02*
G01*
X66500000Y-51900000D01*
X66900000Y-51900000D01*
X66900000Y-52300000D01*
X66500000Y-52300000D01*
G37*
G36*
X66900000Y-52300000D02*
G01*
X66900000Y-51900000D01*
X67300000Y-51900000D01*
X67300000Y-52300000D01*
X66900000Y-52300000D01*
G37*
G36*
X67300000Y-52300000D02*
G01*
X67300000Y-51900000D01*
X67700000Y-51900000D01*
X67700000Y-52300000D01*
X67300000Y-52300000D01*
G37*
G36*
X67700000Y-52300000D02*
G01*
X67700000Y-51900000D01*
X68100000Y-51900000D01*
X68100000Y-52300000D01*
X67700000Y-52300000D01*
G37*
G36*
X68100000Y-52300000D02*
G01*
X68100000Y-51900000D01*
X68500000Y-51900000D01*
X68500000Y-52300000D01*
X68100000Y-52300000D01*
G37*
G36*
X68500000Y-52300000D02*
G01*
X68500000Y-51900000D01*
X68900000Y-51900000D01*
X68900000Y-52300000D01*
X68500000Y-52300000D01*
G37*
G36*
X68900000Y-52300000D02*
G01*
X68900000Y-51900000D01*
X69300000Y-51900000D01*
X69300000Y-52300000D01*
X68900000Y-52300000D01*
G37*
G36*
X69300000Y-52300000D02*
G01*
X69300000Y-51900000D01*
X69700000Y-51900000D01*
X69700000Y-52300000D01*
X69300000Y-52300000D01*
G37*
G36*
X69700000Y-52300000D02*
G01*
X69700000Y-51900000D01*
X70100000Y-51900000D01*
X70100000Y-52300000D01*
X69700000Y-52300000D01*
G37*
G36*
X70100000Y-52300000D02*
G01*
X70100000Y-51900000D01*
X70500000Y-51900000D01*
X70500000Y-52300000D01*
X70100000Y-52300000D01*
G37*
G36*
X70500000Y-52300000D02*
G01*
X70500000Y-51900000D01*
X70900000Y-51900000D01*
X70900000Y-52300000D01*
X70500000Y-52300000D01*
G37*
G36*
X70900000Y-52300000D02*
G01*
X70900000Y-51900000D01*
X71300000Y-51900000D01*
X71300000Y-52300000D01*
X70900000Y-52300000D01*
G37*
G36*
X71300000Y-52300000D02*
G01*
X71300000Y-51900000D01*
X71700000Y-51900000D01*
X71700000Y-52300000D01*
X71300000Y-52300000D01*
G37*
G36*
X71700000Y-52300000D02*
G01*
X71700000Y-51900000D01*
X72100000Y-51900000D01*
X72100000Y-52300000D01*
X71700000Y-52300000D01*
G37*
G36*
X72100000Y-52300000D02*
G01*
X72100000Y-51900000D01*
X72500000Y-51900000D01*
X72500000Y-52300000D01*
X72100000Y-52300000D01*
G37*
G36*
X72500000Y-52300000D02*
G01*
X72500000Y-51900000D01*
X72900000Y-51900000D01*
X72900000Y-52300000D01*
X72500000Y-52300000D01*
G37*
G36*
X72900000Y-52300000D02*
G01*
X72900000Y-51900000D01*
X73300000Y-51900000D01*
X73300000Y-52300000D01*
X72900000Y-52300000D01*
G37*
G36*
X73300000Y-52300000D02*
G01*
X73300000Y-51900000D01*
X73700000Y-51900000D01*
X73700000Y-52300000D01*
X73300000Y-52300000D01*
G37*
G36*
X73700000Y-52300000D02*
G01*
X73700000Y-51900000D01*
X74100000Y-51900000D01*
X74100000Y-52300000D01*
X73700000Y-52300000D01*
G37*
G36*
X74100000Y-52300000D02*
G01*
X74100000Y-51900000D01*
X74500000Y-51900000D01*
X74500000Y-52300000D01*
X74100000Y-52300000D01*
G37*
G36*
X74500000Y-52300000D02*
G01*
X74500000Y-51900000D01*
X74900000Y-51900000D01*
X74900000Y-52300000D01*
X74500000Y-52300000D01*
G37*
G36*
X74900000Y-52300000D02*
G01*
X74900000Y-51900000D01*
X75300000Y-51900000D01*
X75300000Y-52300000D01*
X74900000Y-52300000D01*
G37*
G36*
X75300000Y-52300000D02*
G01*
X75300000Y-51900000D01*
X75700000Y-51900000D01*
X75700000Y-52300000D01*
X75300000Y-52300000D01*
G37*
G36*
X75700000Y-52300000D02*
G01*
X75700000Y-51900000D01*
X76100000Y-51900000D01*
X76100000Y-52300000D01*
X75700000Y-52300000D01*
G37*
G36*
X76100000Y-52300000D02*
G01*
X76100000Y-51900000D01*
X76500000Y-51900000D01*
X76500000Y-52300000D01*
X76100000Y-52300000D01*
G37*
G36*
X76500000Y-52300000D02*
G01*
X76500000Y-51900000D01*
X76900000Y-51900000D01*
X76900000Y-52300000D01*
X76500000Y-52300000D01*
G37*
G36*
X76900000Y-52300000D02*
G01*
X76900000Y-51900000D01*
X77300000Y-51900000D01*
X77300000Y-52300000D01*
X76900000Y-52300000D01*
G37*
G36*
X77300000Y-52300000D02*
G01*
X77300000Y-51900000D01*
X77700000Y-51900000D01*
X77700000Y-52300000D01*
X77300000Y-52300000D01*
G37*
G36*
X77700000Y-52300000D02*
G01*
X77700000Y-51900000D01*
X78100000Y-51900000D01*
X78100000Y-52300000D01*
X77700000Y-52300000D01*
G37*
G36*
X78100000Y-52300000D02*
G01*
X78100000Y-51900000D01*
X78500000Y-51900000D01*
X78500000Y-52300000D01*
X78100000Y-52300000D01*
G37*
G36*
X78500000Y-52300000D02*
G01*
X78500000Y-51900000D01*
X78900000Y-51900000D01*
X78900000Y-52300000D01*
X78500000Y-52300000D01*
G37*
G36*
X78900000Y-52300000D02*
G01*
X78900000Y-51900000D01*
X79300000Y-51900000D01*
X79300000Y-52300000D01*
X78900000Y-52300000D01*
G37*
G36*
X79300000Y-52300000D02*
G01*
X79300000Y-51900000D01*
X79700000Y-51900000D01*
X79700000Y-52300000D01*
X79300000Y-52300000D01*
G37*
G36*
X79700000Y-52300000D02*
G01*
X79700000Y-51900000D01*
X80100000Y-51900000D01*
X80100000Y-52300000D01*
X79700000Y-52300000D01*
G37*
G36*
X80100000Y-52300000D02*
G01*
X80100000Y-51900000D01*
X80500000Y-51900000D01*
X80500000Y-52300000D01*
X80100000Y-52300000D01*
G37*
G36*
X80500000Y-52300000D02*
G01*
X80500000Y-51900000D01*
X80900000Y-51900000D01*
X80900000Y-52300000D01*
X80500000Y-52300000D01*
G37*
G36*
X80900000Y-52300000D02*
G01*
X80900000Y-51900000D01*
X81300000Y-51900000D01*
X81300000Y-52300000D01*
X80900000Y-52300000D01*
G37*
G36*
X66500000Y-51900000D02*
G01*
X66500000Y-51500000D01*
X66900000Y-51500000D01*
X66900000Y-51900000D01*
X66500000Y-51900000D01*
G37*
G36*
X66900000Y-51900000D02*
G01*
X66900000Y-51500000D01*
X67300000Y-51500000D01*
X67300000Y-51900000D01*
X66900000Y-51900000D01*
G37*
G36*
X67300000Y-51900000D02*
G01*
X67300000Y-51500000D01*
X67700000Y-51500000D01*
X67700000Y-51900000D01*
X67300000Y-51900000D01*
G37*
G36*
X67700000Y-51900000D02*
G01*
X67700000Y-51500000D01*
X68100000Y-51500000D01*
X68100000Y-51900000D01*
X67700000Y-51900000D01*
G37*
G36*
X68100000Y-51900000D02*
G01*
X68100000Y-51500000D01*
X68500000Y-51500000D01*
X68500000Y-51900000D01*
X68100000Y-51900000D01*
G37*
G36*
X68500000Y-51900000D02*
G01*
X68500000Y-51500000D01*
X68900000Y-51500000D01*
X68900000Y-51900000D01*
X68500000Y-51900000D01*
G37*
G36*
X68900000Y-51900000D02*
G01*
X68900000Y-51500000D01*
X69300000Y-51500000D01*
X69300000Y-51900000D01*
X68900000Y-51900000D01*
G37*
G36*
X69300000Y-51900000D02*
G01*
X69300000Y-51500000D01*
X69700000Y-51500000D01*
X69700000Y-51900000D01*
X69300000Y-51900000D01*
G37*
G36*
X69700000Y-51900000D02*
G01*
X69700000Y-51500000D01*
X70100000Y-51500000D01*
X70100000Y-51900000D01*
X69700000Y-51900000D01*
G37*
G36*
X70100000Y-51900000D02*
G01*
X70100000Y-51500000D01*
X70500000Y-51500000D01*
X70500000Y-51900000D01*
X70100000Y-51900000D01*
G37*
G36*
X70500000Y-51900000D02*
G01*
X70500000Y-51500000D01*
X70900000Y-51500000D01*
X70900000Y-51900000D01*
X70500000Y-51900000D01*
G37*
G36*
X70900000Y-51900000D02*
G01*
X70900000Y-51500000D01*
X71300000Y-51500000D01*
X71300000Y-51900000D01*
X70900000Y-51900000D01*
G37*
G36*
X71300000Y-51900000D02*
G01*
X71300000Y-51500000D01*
X71700000Y-51500000D01*
X71700000Y-51900000D01*
X71300000Y-51900000D01*
G37*
G36*
X71700000Y-51900000D02*
G01*
X71700000Y-51500000D01*
X72100000Y-51500000D01*
X72100000Y-51900000D01*
X71700000Y-51900000D01*
G37*
G36*
X72100000Y-51900000D02*
G01*
X72100000Y-51500000D01*
X72500000Y-51500000D01*
X72500000Y-51900000D01*
X72100000Y-51900000D01*
G37*
G36*
X72500000Y-51900000D02*
G01*
X72500000Y-51500000D01*
X72900000Y-51500000D01*
X72900000Y-51900000D01*
X72500000Y-51900000D01*
G37*
G36*
X72900000Y-51900000D02*
G01*
X72900000Y-51500000D01*
X73300000Y-51500000D01*
X73300000Y-51900000D01*
X72900000Y-51900000D01*
G37*
G36*
X73300000Y-51900000D02*
G01*
X73300000Y-51500000D01*
X73700000Y-51500000D01*
X73700000Y-51900000D01*
X73300000Y-51900000D01*
G37*
G36*
X73700000Y-51900000D02*
G01*
X73700000Y-51500000D01*
X74100000Y-51500000D01*
X74100000Y-51900000D01*
X73700000Y-51900000D01*
G37*
G36*
X74100000Y-51900000D02*
G01*
X74100000Y-51500000D01*
X74500000Y-51500000D01*
X74500000Y-51900000D01*
X74100000Y-51900000D01*
G37*
G36*
X74500000Y-51900000D02*
G01*
X74500000Y-51500000D01*
X74900000Y-51500000D01*
X74900000Y-51900000D01*
X74500000Y-51900000D01*
G37*
G36*
X74900000Y-51900000D02*
G01*
X74900000Y-51500000D01*
X75300000Y-51500000D01*
X75300000Y-51900000D01*
X74900000Y-51900000D01*
G37*
G36*
X75300000Y-51900000D02*
G01*
X75300000Y-51500000D01*
X75700000Y-51500000D01*
X75700000Y-51900000D01*
X75300000Y-51900000D01*
G37*
G36*
X75700000Y-51900000D02*
G01*
X75700000Y-51500000D01*
X76100000Y-51500000D01*
X76100000Y-51900000D01*
X75700000Y-51900000D01*
G37*
G36*
X76100000Y-51900000D02*
G01*
X76100000Y-51500000D01*
X76500000Y-51500000D01*
X76500000Y-51900000D01*
X76100000Y-51900000D01*
G37*
G36*
X76500000Y-51900000D02*
G01*
X76500000Y-51500000D01*
X76900000Y-51500000D01*
X76900000Y-51900000D01*
X76500000Y-51900000D01*
G37*
G36*
X76900000Y-51900000D02*
G01*
X76900000Y-51500000D01*
X77300000Y-51500000D01*
X77300000Y-51900000D01*
X76900000Y-51900000D01*
G37*
G36*
X77300000Y-51900000D02*
G01*
X77300000Y-51500000D01*
X77700000Y-51500000D01*
X77700000Y-51900000D01*
X77300000Y-51900000D01*
G37*
G36*
X77700000Y-51900000D02*
G01*
X77700000Y-51500000D01*
X78100000Y-51500000D01*
X78100000Y-51900000D01*
X77700000Y-51900000D01*
G37*
G36*
X78100000Y-51900000D02*
G01*
X78100000Y-51500000D01*
X78500000Y-51500000D01*
X78500000Y-51900000D01*
X78100000Y-51900000D01*
G37*
G36*
X78500000Y-51900000D02*
G01*
X78500000Y-51500000D01*
X78900000Y-51500000D01*
X78900000Y-51900000D01*
X78500000Y-51900000D01*
G37*
G36*
X78900000Y-51900000D02*
G01*
X78900000Y-51500000D01*
X79300000Y-51500000D01*
X79300000Y-51900000D01*
X78900000Y-51900000D01*
G37*
G36*
X79300000Y-51900000D02*
G01*
X79300000Y-51500000D01*
X79700000Y-51500000D01*
X79700000Y-51900000D01*
X79300000Y-51900000D01*
G37*
G36*
X79700000Y-51900000D02*
G01*
X79700000Y-51500000D01*
X80100000Y-51500000D01*
X80100000Y-51900000D01*
X79700000Y-51900000D01*
G37*
G36*
X80100000Y-51900000D02*
G01*
X80100000Y-51500000D01*
X80500000Y-51500000D01*
X80500000Y-51900000D01*
X80100000Y-51900000D01*
G37*
G36*
X80500000Y-51900000D02*
G01*
X80500000Y-51500000D01*
X80900000Y-51500000D01*
X80900000Y-51900000D01*
X80500000Y-51900000D01*
G37*
G36*
X80900000Y-51900000D02*
G01*
X80900000Y-51500000D01*
X81300000Y-51500000D01*
X81300000Y-51900000D01*
X80900000Y-51900000D01*
G37*
M02*
